<?xml version="1.0" encoding="UTF-8" standalone="no"?>
<!DOCTYPE svg PUBLIC "-//W3C//DTD SVG 1.1//EN"
 "http://www.w3.org/Graphics/SVG/1.1/DTD/svg11.dtd">
<!-- Generated by graphviz version 2.40.1 (20161225.0304)
 -->
<!-- Pages: 1 -->
<svg width="95pt" height="218pt"
 viewBox="0.00 0.00 95.00 218.00" xmlns="http://www.w3.org/2000/svg" xmlns:xlink="http://www.w3.org/1999/xlink">
<g id="graph0" class="graph" transform="scale(1 1) rotate(0) translate(4 214)">
<polygon fill="#ffffff" stroke="transparent" points="-4,4 -4,-214 91,-214 91,4 -4,4"/>
<!-- 1 -->
<g id="node1" class="node">
<title>1</title>
<ellipse fill="none" stroke="#ff0000" cx="27" cy="-192" rx="27" ry="18"/>
<text text-anchor="middle" x="27" y="-189.5" font-family="Calibri" font-size="10.00" fill="#000000">1</text>
</g>
<!-- 1&#45;&gt;1 -->
<g id="edge1" class="edge">
<title>1&#45;&gt;1</title>
<path fill="none" stroke="#0000ff" d="M51.532,-199.75C62.508,-200.49 72,-197.91 72,-192 72,-188.03 67.715,-185.56 61.574,-184.59"/>
<polygon fill="#0000ff" stroke="#0000ff" points="61.6447,-181.0905 51.532,-184.25 61.4078,-188.0865 61.6447,-181.0905"/>
<text text-anchor="middle" x="81" y="-190.1" font-family="Calibri" font-size="8.00" fill="#000000">0.2</text>
</g>
<!-- 2 -->
<g id="node2" class="node">
<title>2</title>
<ellipse fill="none" stroke="#ff0000" cx="27" cy="-105" rx="27" ry="18"/>
<text text-anchor="middle" x="27" y="-102.5" font-family="Calibri" font-size="10.00" fill="#000000">2</text>
</g>
<!-- 1&#45;&gt;2 -->
<g id="edge2" class="edge">
<title>1&#45;&gt;2</title>
<path fill="none" stroke="#0000ff" d="M15.319,-175.3C9.8421,-165.49 5.0921,-152.74 8,-141 8.8586,-137.53 10.119,-134.03 11.588,-130.65"/>
<polygon fill="#0000ff" stroke="#0000ff" points="14.8045,-132.0424 16.124,-121.53 8.5369,-128.925 14.8045,-132.0424"/>
<text text-anchor="middle" x="17" y="-146.6" font-family="Calibri" font-size="8.00" fill="#000000">0.8</text>
</g>
<!-- 2&#45;&gt;1 -->
<g id="edge3" class="edge">
<title>2&#45;&gt;1</title>
<path fill="none" stroke="#0000ff" d="M27,-123C27,-134.78 27,-150.41 27,-163.82"/>
<polygon fill="#0000ff" stroke="#0000ff" points="23.5001,-163.97 27,-173.97 30.5001,-163.97 23.5001,-163.97"/>
<text text-anchor="middle" x="36" y="-146.6" font-family="Calibri" font-size="8.00" fill="#000000">0.1</text>
</g>
<!-- 2&#45;&gt;2 -->
<g id="edge4" class="edge">
<title>2&#45;&gt;2</title>
<path fill="none" stroke="#0000ff" d="M51.532,-112.75C62.508,-113.49 72,-110.91 72,-105 72,-101.03 67.715,-98.563 61.574,-97.594"/>
<polygon fill="#0000ff" stroke="#0000ff" points="61.6466,-94.0945 51.532,-97.248 61.4055,-101.0904 61.6466,-94.0945"/>
<text text-anchor="middle" x="81" y="-103.1" font-family="Calibri" font-size="8.00" fill="#000000">0.5</text>
</g>
<!-- 3 -->
<g id="node3" class="node">
<title>3</title>
<ellipse fill="none" stroke="#ff0000" cx="27" cy="-18" rx="27" ry="18"/>
<text text-anchor="middle" x="27" y="-15.5" font-family="Calibri" font-size="10.00" fill="#000000">3</text>
</g>
<!-- 2&#45;&gt;3 -->
<g id="edge5" class="edge">
<title>2&#45;&gt;3</title>
<path fill="none" stroke="#0000ff" d="M27,-86.974C27,-75.192 27,-59.561 27,-46.158"/>
<polygon fill="#0000ff" stroke="#0000ff" points="30.5001,-46.003 27,-36.003 23.5001,-46.003 30.5001,-46.003"/>
<text text-anchor="middle" x="36" y="-59.6" font-family="Calibri" font-size="8.00" fill="#000000">0.4</text>
</g>
<!-- 3&#45;&gt;3 -->
<g id="edge6" class="edge">
<title>3&#45;&gt;3</title>
<path fill="none" stroke="#0000ff" d="M51.532,-25.752C62.508,-26.49 72,-23.906 72,-18 72,-14.032 67.715,-11.563 61.574,-10.594"/>
<polygon fill="#0000ff" stroke="#0000ff" points="61.6466,-7.0945 51.532,-10.248 61.4055,-14.0904 61.6466,-7.0945"/>
<text text-anchor="middle" x="81" y="-16.1" font-family="Calibri" font-size="8.00" fill="#000000">1.0</text>
</g>
</g>
</svg>
