<?xml version="1.0" encoding="UTF-8" standalone="no"?>
<!DOCTYPE svg PUBLIC "-//W3C//DTD SVG 1.1//EN"
 "http://www.w3.org/Graphics/SVG/1.1/DTD/svg11.dtd">
<!-- Generated by graphviz version 2.40.1 (20161225.0304)
 -->
<!-- Pages: 1 -->
<svg width="284pt" height="392pt"
 viewBox="0.00 0.00 283.97 392.00" xmlns="http://www.w3.org/2000/svg" xmlns:xlink="http://www.w3.org/1999/xlink">
<g id="graph0" class="graph" transform="scale(1 1) rotate(0) translate(4 388)">
<polygon fill="#ffffff" stroke="transparent" points="-4,4 -4,-388 279.972,-388 279.972,4 -4,4"/>
<!-- 0 -->
<g id="node1" class="node">
<title>0</title>
<ellipse fill="none" stroke="#ff0000" cx="126.972" cy="-192" rx="27" ry="18"/>
<text text-anchor="middle" x="126.972" y="-189.5" font-family="Calibri" font-size="10.00" fill="#000000">0</text>
</g>
<!-- 0&#45;&gt;0 -->
<g id="edge1" class="edge">
<title>0&#45;&gt;0</title>
<path fill="none" stroke="#0000ff" d="M151.502,-199.75C162.472,-200.49 171.972,-197.91 171.972,-192 171.972,-188.03 167.682,-185.56 161.542,-184.59"/>
<polygon fill="#0000ff" stroke="#0000ff" points="161.6148,-181.0906 151.502,-184.25 161.3778,-188.0865 161.6148,-181.0906"/>
<text text-anchor="middle" x="187.472" y="-190.1" font-family="Calibri" font-size="8.00" fill="#000000">0.333</text>
</g>
<!-- 2 -->
<g id="node2" class="node">
<title>2</title>
<ellipse fill="none" stroke="#ff0000" cx="56.967" cy="-105" rx="27" ry="18"/>
<text text-anchor="middle" x="56.967" y="-102.5" font-family="Calibri" font-size="10.00" fill="#000000">2</text>
</g>
<!-- 0&#45;&gt;2 -->
<g id="edge2" class="edge">
<title>0&#45;&gt;2</title>
<path fill="none" stroke="#0000ff" d="M114.128,-176.04C103.538,-162.88 88.349,-144 76.29,-129.02"/>
<polygon fill="#0000ff" stroke="#0000ff" points="78.9559,-126.75 69.962,-121.15 73.5007,-131.1364 78.9559,-126.75"/>
<text text-anchor="middle" x="112.467" y="-146.6" font-family="Calibri" font-size="8.00" fill="#000000">0.333</text>
</g>
<!-- 5 -->
<g id="node3" class="node">
<title>5</title>
<ellipse fill="none" stroke="#ff0000" cx="215.972" cy="-105" rx="27" ry="18"/>
<text text-anchor="middle" x="215.972" y="-102.5" font-family="Calibri" font-size="10.00" fill="#000000">5</text>
</g>
<!-- 0&#45;&gt;5 -->
<g id="edge3" class="edge">
<title>0&#45;&gt;5</title>
<path fill="none" stroke="#0000ff" d="M142.472,-176.85C156.512,-163.12 177.362,-142.73 193.282,-127.18"/>
<polygon fill="#0000ff" stroke="#0000ff" points="195.9412,-129.4749 200.642,-119.98 191.0461,-124.471 195.9412,-129.4749"/>
<text text-anchor="middle" x="191.472" y="-146.6" font-family="Calibri" font-size="8.00" fill="#000000">0.333</text>
</g>
<!-- 4 -->
<g id="node4" class="node">
<title>4</title>
<ellipse fill="none" stroke="#ff0000" cx="56.967" cy="-18" rx="27" ry="18"/>
<text text-anchor="middle" x="56.967" y="-15.5" font-family="Calibri" font-size="10.00" fill="#000000">4</text>
</g>
<!-- 2&#45;&gt;4 -->
<g id="edge4" class="edge">
<title>2&#45;&gt;4</title>
<path fill="none" stroke="#0000ff" d="M46.091,-88.47C42.807,-82.574 39.632,-75.723 37.967,-69 35.9,-60.654 37.703,-51.797 40.886,-43.847"/>
<polygon fill="#0000ff" stroke="#0000ff" points="44.1074,-45.2241 45.286,-34.695 37.7986,-42.191 44.1074,-45.2241"/>
<text text-anchor="middle" x="46.967" y="-59.6" font-family="Calibri" font-size="8.00" fill="#000000">1.0</text>
</g>
<!-- 5&#45;&gt;5 -->
<g id="edge5" class="edge">
<title>5&#45;&gt;5</title>
<path fill="none" stroke="#0000ff" d="M240.502,-112.75C251.472,-113.49 260.972,-110.91 260.972,-105 260.972,-101.03 256.682,-98.563 250.542,-97.594"/>
<polygon fill="#0000ff" stroke="#0000ff" points="250.6166,-94.0946 240.502,-97.248 250.3755,-101.0904 250.6166,-94.0946"/>
<text text-anchor="middle" x="269.972" y="-103.1" font-family="Calibri" font-size="8.00" fill="#000000">1.0</text>
</g>
<!-- 4&#45;&gt;2 -->
<g id="edge6" class="edge">
<title>4&#45;&gt;2</title>
<path fill="none" stroke="#0000ff" d="M56.967,-36.003C56.967,-47.78 56.967,-63.41 56.967,-76.816"/>
<polygon fill="#0000ff" stroke="#0000ff" points="53.4671,-76.974 56.967,-86.974 60.4671,-76.974 53.4671,-76.974"/>
<text text-anchor="middle" x="65.967" y="-59.6" font-family="Calibri" font-size="8.00" fill="#000000">1.0</text>
</g>
<!-- 1 -->
<g id="node5" class="node">
<title>1</title>
<ellipse fill="none" stroke="#ff0000" cx="65.967" cy="-279" rx="27" ry="18"/>
<text text-anchor="middle" x="65.967" y="-276.5" font-family="Calibri" font-size="10.00" fill="#000000">1</text>
</g>
<!-- 1&#45;&gt;0 -->
<g id="edge7" class="edge">
<title>1&#45;&gt;0</title>
<path fill="none" stroke="#0000ff" d="M77.441,-262.64C86.415,-249.84 99.048,-231.82 109.309,-217.18"/>
<polygon fill="#0000ff" stroke="#0000ff" points="112.4579,-218.7859 115.338,-208.59 106.7283,-214.7645 112.4579,-218.7859"/>
<text text-anchor="middle" x="109.967" y="-233.6" font-family="Calibri" font-size="8.00" fill="#000000">0.5</text>
</g>
<!-- 1&#45;&gt;2 -->
<g id="edge8" class="edge">
<title>1&#45;&gt;2</title>
<path fill="none" stroke="#0000ff" d="M65.021,-260.71C63.45,-230.34 60.294,-169.32 58.433,-133.35"/>
<polygon fill="#0000ff" stroke="#0000ff" points="61.9122,-132.8561 57.901,-123.05 54.9216,-133.2173 61.9122,-132.8561"/>
<text text-anchor="middle" x="75.467" y="-190.1" font-family="Calibri" font-size="8.00" fill="#000000">0.25</text>
</g>
<!-- 1&#45;&gt;1 -->
<g id="edge9" class="edge">
<title>1&#45;&gt;1</title>
<path fill="none" stroke="#0000ff" d="M90.5,-286.75C101.475,-287.49 110.967,-284.91 110.967,-279 110.967,-275.03 106.682,-272.56 100.541,-271.59"/>
<polygon fill="#0000ff" stroke="#0000ff" points="100.6128,-268.0905 90.5,-271.25 100.3758,-275.0865 100.6128,-268.0905"/>
<text text-anchor="middle" x="123.472" y="-277.1" font-family="Calibri" font-size="8.00" fill="#000000">0.25</text>
</g>
<!-- 3 -->
<g id="node6" class="node">
<title>3</title>
<ellipse fill="none" stroke="#ff0000" cx="144.972" cy="-366" rx="27" ry="18"/>
<text text-anchor="middle" x="144.972" y="-363.5" font-family="Calibri" font-size="10.00" fill="#000000">3</text>
</g>
<!-- 3&#45;&gt;0 -->
<g id="edge10" class="edge">
<title>3&#45;&gt;0</title>
<path fill="none" stroke="#0000ff" d="M146.372,-347.7C147.662,-326.68 148.842,-291.2 144.972,-261 143.182,-247.09 139.452,-231.98 135.852,-219.45"/>
<polygon fill="#0000ff" stroke="#0000ff" points="139.1291,-218.1944 132.892,-209.63 132.427,-220.2146 139.1291,-218.1944"/>
<text text-anchor="middle" x="159.472" y="-277.1" font-family="Calibri" font-size="8.00" fill="#000000">0.25</text>
</g>
<!-- 3&#45;&gt;2 -->
<g id="edge11" class="edge">
<title>3&#45;&gt;2</title>
<path fill="none" stroke="#0000ff" d="M119.882,-359.05C92.226,-349.89 49.125,-330.84 29.967,-297 0,-244.07 25.7858,-170.21 43.551,-131.33"/>
<polygon fill="#0000ff" stroke="#0000ff" points="46.7389,-132.7758 47.856,-122.24 40.4125,-129.7796 46.7389,-132.7758"/>
<text text-anchor="middle" x="29.467" y="-233.6" font-family="Calibri" font-size="8.00" fill="#000000">0.25</text>
</g>
<!-- 3&#45;&gt;5 -->
<g id="edge12" class="edge">
<title>3&#45;&gt;5</title>
<path fill="none" stroke="#0000ff" d="M154.882,-348.95C170.522,-321.02 200.322,-263.27 211.972,-210 217.562,-184.39 218.142,-154.44 217.562,-133.1"/>
<polygon fill="#0000ff" stroke="#0000ff" points="221.0587,-132.944 217.192,-123.08 214.0635,-133.2024 221.0587,-132.944"/>
<text text-anchor="middle" x="219.472" y="-233.6" font-family="Calibri" font-size="8.00" fill="#000000">0.25</text>
</g>
<!-- 3&#45;&gt;1 -->
<g id="edge13" class="edge">
<title>3&#45;&gt;1</title>
<path fill="none" stroke="#0000ff" d="M130.842,-350.45C118.602,-336.96 100.711,-317.26 86.818,-301.96"/>
<polygon fill="#0000ff" stroke="#0000ff" points="89.2829,-299.4681 79.968,-294.42 84.1017,-304.1752 89.2829,-299.4681"/>
<text text-anchor="middle" x="122.472" y="-320.6" font-family="Calibri" font-size="8.00" fill="#000000">0.25</text>
</g>
</g>
</svg>
