<?xml version="1.0" encoding="UTF-8" standalone="no"?>
<!DOCTYPE svg PUBLIC "-//W3C//DTD SVG 1.1//EN"
 "http://www.w3.org/Graphics/SVG/1.1/DTD/svg11.dtd">
<!-- Generated by graphviz version 2.40.1 (20161225.0304)
 -->
<!-- Pages: 1 -->
<svg width="562pt" height="566pt"
 viewBox="0.00 0.00 562.00 566.00" xmlns="http://www.w3.org/2000/svg" xmlns:xlink="http://www.w3.org/1999/xlink">
<g id="graph0" class="graph" transform="scale(1 1) rotate(0) translate(4 562)">
<polygon fill="#ffffff" stroke="transparent" points="-4,4 -4,-562 558,-562 558,4 -4,4"/>
<!-- 0 -->
<g id="node1" class="node">
<title>0</title>
<ellipse fill="none" stroke="#ff0000" cx="100" cy="-105" rx="27" ry="18"/>
<text text-anchor="middle" x="100" y="-102.5" font-family="Calibri" font-size="10.00" fill="#000000">0</text>
</g>
<!-- 0&#45;&gt;0 -->
<g id="edge1" class="edge">
<title>0&#45;&gt;0</title>
<path fill="none" stroke="#0000ff" d="M124.53,-112.75C135.51,-113.49 145,-110.91 145,-105 145,-101.03 140.72,-98.563 134.57,-97.594"/>
<polygon fill="#0000ff" stroke="#0000ff" points="134.6446,-94.0946 124.53,-97.248 134.4035,-101.0904 134.6446,-94.0946"/>
<text text-anchor="middle" x="154" y="-103.1" font-family="Calibri" font-size="8.00" fill="#000000">1.0</text>
</g>
<!-- 1 -->
<g id="node2" class="node">
<title>1</title>
<ellipse fill="none" stroke="#ff0000" cx="112" cy="-540" rx="27" ry="18"/>
<text text-anchor="middle" x="112" y="-537.5" font-family="Calibri" font-size="10.00" fill="#000000">1</text>
</g>
<!-- 1&#45;&gt;0 -->
<g id="edge2" class="edge">
<title>1&#45;&gt;0</title>
<path fill="none" stroke="#0000ff" d="M87.144,-532.9C54.147,-521.77 0,-496.83 0,-453 0,-453 0,-453 0,-192 0,-155.92 37.505,-131.4 66.578,-117.82"/>
<polygon fill="#0000ff" stroke="#0000ff" points="68.3193,-120.8769 76.048,-113.63 65.4869,-114.4755 68.3193,-120.8769"/>
<text text-anchor="middle" x="15.5" y="-320.6" font-family="Calibri" font-size="8.00" fill="#000000">0.744</text>
</g>
<!-- 2 -->
<g id="node3" class="node">
<title>2</title>
<ellipse fill="none" stroke="#ff0000" cx="166" cy="-453" rx="27" ry="18"/>
<text text-anchor="middle" x="166" y="-450.5" font-family="Calibri" font-size="10.00" fill="#000000">2</text>
</g>
<!-- 1&#45;&gt;2 -->
<g id="edge3" class="edge">
<title>1&#45;&gt;2</title>
<path fill="none" stroke="#0000ff" d="M108.45,-521.97C107.35,-511.71 107.6,-498.96 113,-489 117.8,-480.15 125.84,-473.05 134.22,-467.58"/>
<polygon fill="#0000ff" stroke="#0000ff" points="136.1007,-470.5347 142.96,-462.46 132.5624,-464.4947 136.1007,-470.5347"/>
<text text-anchor="middle" x="128.5" y="-494.6" font-family="Calibri" font-size="8.00" fill="#000000">0.192</text>
</g>
<!-- 4 -->
<g id="node4" class="node">
<title>4</title>
<ellipse fill="none" stroke="#ff0000" cx="341" cy="-105" rx="27" ry="18"/>
<text text-anchor="middle" x="341" y="-102.5" font-family="Calibri" font-size="10.00" fill="#000000">4</text>
</g>
<!-- 1&#45;&gt;4 -->
<g id="edge4" class="edge">
<title>1&#45;&gt;4</title>
<path fill="none" stroke="#0000ff" d="M94.912,-525.9C77.803,-510.1 54,-482.77 54,-453 54,-453 54,-453 54,-322.5 54,-218.69 110.52,-191.89 201,-141 233.14,-122.92 274.52,-113.73 303.93,-109.19"/>
<polygon fill="#0000ff" stroke="#0000ff" points="304.7875,-112.603 314.19,-107.72 303.7947,-105.6737 304.7875,-112.603"/>
<text text-anchor="middle" x="69.5" y="-320.6" font-family="Calibri" font-size="8.00" fill="#000000">0.064</text>
</g>
<!-- 2&#45;&gt;0 -->
<g id="edge5" class="edge">
<title>2&#45;&gt;0</title>
<path fill="none" stroke="#0000ff" d="M147.26,-439.97C127.75,-424.71 100,-397.47 100,-366 100,-366 100,-366 100,-192 100,-172.55 100,-150.65 100,-133.69"/>
<polygon fill="#0000ff" stroke="#0000ff" points="103.5001,-133.33 100,-123.33 96.5001,-133.33 103.5001,-133.33"/>
<text text-anchor="middle" x="112.5" y="-277.1" font-family="Calibri" font-size="8.00" fill="#000000">0.36</text>
</g>
<!-- 2&#45;&gt;1 -->
<g id="edge6" class="edge">
<title>2&#45;&gt;1</title>
<path fill="none" stroke="#0000ff" d="M159.97,-470.69C156.13,-480.84 150.63,-493.59 144,-504 141.1,-508.56 137.62,-513.11 134.05,-517.36"/>
<polygon fill="#0000ff" stroke="#0000ff" points="131.1944,-515.3051 127.18,-525.11 136.4326,-519.9485 131.1944,-515.3051"/>
<text text-anchor="middle" x="168.5" y="-494.6" font-family="Calibri" font-size="8.00" fill="#000000">0.288</text>
</g>
<!-- 3 -->
<g id="node5" class="node">
<title>3</title>
<ellipse fill="none" stroke="#ff0000" cx="279" cy="-192" rx="27" ry="18"/>
<text text-anchor="middle" x="279" y="-189.5" font-family="Calibri" font-size="10.00" fill="#000000">3</text>
</g>
<!-- 2&#45;&gt;3 -->
<g id="edge7" class="edge">
<title>2&#45;&gt;3</title>
<path fill="none" stroke="#0000ff" d="M158.03,-435.53C147.08,-409.3 129.76,-358.21 139,-315 147.86,-273.56 146.88,-256.76 178,-228 195.74,-211.61 221.45,-202.58 242.49,-197.67"/>
<polygon fill="#0000ff" stroke="#0000ff" points="243.3251,-201.0708 252.38,-195.57 241.8711,-194.2235 243.3251,-201.0708"/>
<text text-anchor="middle" x="154.5" y="-320.6" font-family="Calibri" font-size="8.00" fill="#000000">0.288</text>
</g>
<!-- 5 -->
<g id="node6" class="node">
<title>5</title>
<ellipse fill="none" stroke="#ff0000" cx="279" cy="-366" rx="27" ry="18"/>
<text text-anchor="middle" x="279" y="-363.5" font-family="Calibri" font-size="10.00" fill="#000000">5</text>
</g>
<!-- 2&#45;&gt;5 -->
<g id="edge8" class="edge">
<title>2&#45;&gt;5</title>
<path fill="none" stroke="#0000ff" d="M182.16,-438.44C194.02,-427.96 210.66,-413.67 226,-402 233.93,-395.96 242.8,-389.74 250.98,-384.21"/>
<polygon fill="#0000ff" stroke="#0000ff" points="253.1401,-386.9761 259.51,-378.51 249.2509,-381.156 253.1401,-386.9761"/>
<text text-anchor="middle" x="241.5" y="-407.6" font-family="Calibri" font-size="8.00" fill="#000000">0.064</text>
</g>
<!-- 4&#45;&gt;1 -->
<g id="edge9" class="edge">
<title>4&#45;&gt;1</title>
<path fill="none" stroke="#0000ff" d="M367.31,-109.76C392.78,-115.04 431.99,-125.01 463,-141 495.64,-157.83 528,-155.28 528,-192 528,-453 528,-453 528,-453 528,-491.53 251.1,-525.1 149.12,-536.16"/>
<polygon fill="#0000ff" stroke="#0000ff" points="148.5435,-532.7015 138.97,-537.24 149.2842,-539.6622 148.5435,-532.7015"/>
<text text-anchor="middle" x="543.5" y="-320.6" font-family="Calibri" font-size="8.00" fill="#000000">0.216</text>
</g>
<!-- 4&#45;&gt;3 -->
<g id="edge10" class="edge">
<title>4&#45;&gt;3</title>
<path fill="none" stroke="#0000ff" d="M318.43,-115.05C307.55,-121.04 295.31,-129.7 288,-141 283.65,-147.72 281.24,-155.93 279.94,-163.78"/>
<polygon fill="#0000ff" stroke="#0000ff" points="276.4585,-163.4194 278.81,-173.75 283.414,-164.2078 276.4585,-163.4194"/>
<text text-anchor="middle" x="303.5" y="-146.6" font-family="Calibri" font-size="8.00" fill="#000000">0.432</text>
</g>
<!-- 4&#45;&gt;5 -->
<g id="edge11" class="edge">
<title>4&#45;&gt;5</title>
<path fill="none" stroke="#0000ff" d="M352.81,-121.45C356.43,-127.33 359.98,-134.2 362,-141 377.27,-192.34 375.21,-263.71 368,-297 364.59,-312.75 364.24,-318.46 353,-330 342.17,-341.12 327.21,-349.28 313.57,-355"/>
<polygon fill="#0000ff" stroke="#0000ff" points="312.0084,-351.8515 303.95,-358.73 314.539,-358.3781 312.0084,-351.8515"/>
<text text-anchor="middle" x="388.5" y="-233.6" font-family="Calibri" font-size="8.00" fill="#000000">0.288</text>
</g>
<!-- 7 -->
<g id="node7" class="node">
<title>7</title>
<ellipse fill="none" stroke="#ff0000" cx="429" cy="-18" rx="27" ry="18"/>
<text text-anchor="middle" x="429" y="-15.5" font-family="Calibri" font-size="10.00" fill="#000000">7</text>
</g>
<!-- 4&#45;&gt;7 -->
<g id="edge12" class="edge">
<title>4&#45;&gt;7</title>
<path fill="none" stroke="#0000ff" d="M353.42,-88.671C361.63,-78.297 372.89,-64.831 384,-54 389.62,-48.527 396.01,-43.031 402.18,-38.039"/>
<polygon fill="#0000ff" stroke="#0000ff" points="404.6712,-40.5321 410.36,-31.594 400.339,-35.0336 404.6712,-40.5321"/>
<text text-anchor="middle" x="399.5" y="-59.6" font-family="Calibri" font-size="8.00" fill="#000000">0.064</text>
</g>
<!-- 3&#45;&gt;0 -->
<g id="edge13" class="edge">
<title>3&#45;&gt;0</title>
<path fill="none" stroke="#0000ff" d="M257.05,-181.33C225.43,-165.96 166.91,-137.52 130.92,-120.03"/>
<polygon fill="#0000ff" stroke="#0000ff" points="132.3738,-116.8451 121.85,-115.62 129.3128,-123.1404 132.3738,-116.8451"/>
<text text-anchor="middle" x="215.5" y="-146.6" font-family="Calibri" font-size="8.00" fill="#000000">0.216</text>
</g>
<!-- 3&#45;&gt;2 -->
<g id="edge14" class="edge">
<title>3&#45;&gt;2</title>
<path fill="none" stroke="#0000ff" d="M253.53,-198.19C237.42,-203.43 217.54,-212.63 206,-228 182.98,-258.64 171.92,-371.17 167.89,-424.55"/>
<polygon fill="#0000ff" stroke="#0000ff" points="164.3872,-424.4617 167.15,-434.69 171.3687,-424.9713 164.3872,-424.4617"/>
<text text-anchor="middle" x="196.5" y="-320.6" font-family="Calibri" font-size="8.00" fill="#000000">0.432</text>
</g>
<!-- 3&#45;&gt;4 -->
<g id="edge15" class="edge">
<title>3&#45;&gt;4</title>
<path fill="none" stroke="#0000ff" d="M297.34,-178.37C304.78,-172.17 313.01,-164.35 319,-156 324.12,-148.87 328.38,-140.37 331.74,-132.36"/>
<polygon fill="#0000ff" stroke="#0000ff" points="335.0255,-133.5682 335.4,-122.98 328.5044,-131.0237 335.0255,-133.5682"/>
<text text-anchor="middle" x="342.5" y="-146.6" font-family="Calibri" font-size="8.00" fill="#000000">0.288</text>
</g>
<!-- 6 -->
<g id="node8" class="node">
<title>6</title>
<ellipse fill="none" stroke="#ff0000" cx="332" cy="-279" rx="27" ry="18"/>
<text text-anchor="middle" x="332" y="-276.5" font-family="Calibri" font-size="10.00" fill="#000000">6</text>
</g>
<!-- 3&#45;&gt;6 -->
<g id="edge16" class="edge">
<title>3&#45;&gt;6</title>
<path fill="none" stroke="#0000ff" d="M275.48,-210.01C274.39,-220.26 274.64,-233.01 280,-243 284.61,-251.6 292.29,-258.56 300.34,-264"/>
<polygon fill="#0000ff" stroke="#0000ff" points="298.7394,-267.1219 309.11,-269.29 302.3549,-261.1279 298.7394,-267.1219"/>
<text text-anchor="middle" x="295.5" y="-233.6" font-family="Calibri" font-size="8.00" fill="#000000">0.064</text>
</g>
<!-- 5&#45;&gt;2 -->
<g id="edge17" class="edge">
<title>5&#45;&gt;2</title>
<path fill="none" stroke="#0000ff" d="M274.95,-384.07C271.7,-394.86 266.14,-408.14 257,-417 241.98,-431.57 220.34,-440.46 201.93,-445.75"/>
<polygon fill="#0000ff" stroke="#0000ff" points="200.8782,-442.4076 192.1,-448.34 202.6618,-449.1766 200.8782,-442.4076"/>
<text text-anchor="middle" x="282.5" y="-407.6" font-family="Calibri" font-size="8.00" fill="#000000">0.216</text>
</g>
<!-- 5&#45;&gt;4 -->
<g id="edge18" class="edge">
<title>5&#45;&gt;4</title>
<path fill="none" stroke="#0000ff" d="M265.85,-350.11C234.96,-310.76 163.98,-207.17 214,-141 224.96,-126.5 271.08,-116.15 304.59,-110.37"/>
<polygon fill="#0000ff" stroke="#0000ff" points="305.2332,-113.8113 314.53,-108.73 304.0936,-106.9047 305.2332,-113.8113"/>
<text text-anchor="middle" x="219.5" y="-233.6" font-family="Calibri" font-size="8.00" fill="#000000">0.432</text>
</g>
<!-- 5&#45;&gt;7 -->
<g id="edge19" class="edge">
<title>5&#45;&gt;7</title>
<path fill="none" stroke="#0000ff" d="M304.62,-360.3C357.75,-347.74 475,-315.86 475,-279 475,-279 475,-279 475,-105 475,-81.43 461.64,-57.999 449.32,-41.401"/>
<polygon fill="#0000ff" stroke="#0000ff" points="451.9662,-39.103 443.05,-33.38 446.4512,-43.4141 451.9662,-39.103"/>
<text text-anchor="middle" x="487.5" y="-190.1" font-family="Calibri" font-size="8.00" fill="#000000">0.16</text>
</g>
<!-- 5&#45;&gt;6 -->
<g id="edge20" class="edge">
<title>5&#45;&gt;6</title>
<path fill="none" stroke="#0000ff" d="M275.48,-347.99C274.39,-337.74 274.64,-324.99 280,-315 284.61,-306.4 292.29,-299.44 300.34,-294"/>
<polygon fill="#0000ff" stroke="#0000ff" points="302.3549,-296.8721 309.11,-288.71 298.7394,-290.8781 302.3549,-296.8721"/>
<text text-anchor="middle" x="295.5" y="-320.6" font-family="Calibri" font-size="8.00" fill="#000000">0.192</text>
</g>
<!-- 7&#45;&gt;7 -->
<g id="edge21" class="edge">
<title>7&#45;&gt;7</title>
<path fill="none" stroke="#0000ff" d="M453.53,-25.752C464.51,-26.49 474,-23.906 474,-18 474,-14.032 469.72,-11.563 463.57,-10.594"/>
<polygon fill="#0000ff" stroke="#0000ff" points="463.6446,-7.0946 453.53,-10.248 463.4035,-14.0904 463.6446,-7.0946"/>
<text text-anchor="middle" x="483" y="-16.1" font-family="Calibri" font-size="8.00" fill="#000000">1.0</text>
</g>
<!-- 6&#45;&gt;3 -->
<g id="edge22" class="edge">
<title>6&#45;&gt;3</title>
<path fill="none" stroke="#0000ff" d="M326.37,-261.3C322.75,-251.14 317.5,-238.39 311,-228 308.19,-223.51 304.81,-219.03 301.32,-214.84"/>
<polygon fill="#0000ff" stroke="#0000ff" points="303.8141,-212.3767 294.57,-207.2 298.5682,-217.0115 303.8141,-212.3767"/>
<text text-anchor="middle" x="333.5" y="-233.6" font-family="Calibri" font-size="8.00" fill="#000000">0.216</text>
</g>
<!-- 6&#45;&gt;5 -->
<g id="edge23" class="edge">
<title>6&#45;&gt;5</title>
<path fill="none" stroke="#0000ff" d="M326.37,-296.7C322.75,-306.86 317.5,-319.61 311,-330 308.19,-334.49 304.81,-338.97 301.32,-343.16"/>
<polygon fill="#0000ff" stroke="#0000ff" points="298.5682,-340.9885 294.57,-350.8 303.8141,-345.6233 298.5682,-340.9885"/>
<text text-anchor="middle" x="333.5" y="-320.6" font-family="Calibri" font-size="8.00" fill="#000000">0.288</text>
</g>
<!-- 6&#45;&gt;7 -->
<g id="edge24" class="edge">
<title>6&#45;&gt;7</title>
<path fill="none" stroke="#0000ff" d="M357.82,-273.73C374.96,-268.81 396.36,-259.63 408,-243 429.73,-211.95 430.62,-99.629 429.75,-46.38"/>
<polygon fill="#0000ff" stroke="#0000ff" points="433.247,-46.1908 429.55,-36.262 426.2484,-46.3293 433.247,-46.1908"/>
<text text-anchor="middle" x="443.5" y="-146.6" font-family="Calibri" font-size="8.00" fill="#000000">0.496</text>
</g>
</g>
</svg>
