<?xml version="1.0" encoding="UTF-8" standalone="no"?>
<!DOCTYPE svg PUBLIC "-//W3C//DTD SVG 1.1//EN"
 "http://www.w3.org/Graphics/SVG/1.1/DTD/svg11.dtd">
<!-- Generated by graphviz version 2.40.1 (20161225.0304)
 -->
<!-- Pages: 1 -->
<svg width="542pt" height="566pt"
 viewBox="0.00 0.00 541.96 566.00" xmlns="http://www.w3.org/2000/svg" xmlns:xlink="http://www.w3.org/1999/xlink">
<g id="graph0" class="graph" transform="scale(1 1) rotate(0) translate(4 562)">
<polygon fill="#ffffff" stroke="transparent" points="-4,4 -4,-562 537.9602,-562 537.9602,4 -4,4"/>
<!-- SSS -->
<g id="node1" class="node">
<title>SSS</title>
<ellipse fill="none" stroke="#ff0000" cx="369.4602" cy="-540" rx="27" ry="18"/>
<text text-anchor="middle" x="369.4602" y="-537.5" font-family="Calibri" font-size="10.00" fill="#000000">SSS</text>
</g>
<!-- SSS&#45;&gt;SSS -->
<g id="edge1" class="edge">
<title>SSS&#45;&gt;SSS</title>
<path fill="none" stroke="#0000ff" d="M393.9902,-547.75C404.9702,-548.49 414.4602,-545.91 414.4602,-540 414.4602,-536.03 410.1702,-533.56 404.0302,-532.59"/>
<polygon fill="#0000ff" stroke="#0000ff" points="404.103,-529.0906 393.9902,-532.25 403.866,-536.0865 404.103,-529.0906"/>
<text text-anchor="middle" x="426.9602" y="-538.1" font-family="Calibri" font-size="8.00" fill="#000000">0.25</text>
</g>
<!-- SSN -->
<g id="node2" class="node">
<title>SSN</title>
<ellipse fill="none" stroke="#ff0000" cx="250.4602" cy="-453" rx="27" ry="18"/>
<text text-anchor="middle" x="250.4602" y="-450.5" font-family="Calibri" font-size="10.00" fill="#000000">SSN</text>
</g>
<!-- SSS&#45;&gt;SSN -->
<g id="edge2" class="edge">
<title>SSS&#45;&gt;SSN</title>
<path fill="none" stroke="#0000ff" d="M351.1302,-526.6C331.3602,-512.14 299.6902,-488.99 277.1502,-472.52"/>
<polygon fill="#0000ff" stroke="#0000ff" points="279.1464,-469.6437 269.0102,-466.56 275.011,-475.2916 279.1464,-469.6437"/>
<text text-anchor="middle" x="328.9602" y="-494.6" font-family="Calibri" font-size="8.00" fill="#000000">0.25</text>
</g>
<!-- SNS -->
<g id="node3" class="node">
<title>SNS</title>
<ellipse fill="none" stroke="#ff0000" cx="47.4592" cy="-279" rx="27" ry="18"/>
<text text-anchor="middle" x="47.4592" y="-276.5" font-family="Calibri" font-size="10.00" fill="#000000">SNS</text>
</g>
<!-- SSS&#45;&gt;SNS -->
<g id="edge3" class="edge">
<title>SSS&#45;&gt;SNS</title>
<path fill="none" stroke="#0000ff" d="M342.4002,-538.65C267.9702,-534.71 64.1742,-522.35 40.4592,-504 2.7787,-474.84 0,-449.06 7.4596,-402 12.8669,-367.89 26.2162,-330.37 36.0112,-305.84"/>
<polygon fill="#0000ff" stroke="#0000ff" points="39.289,-307.0711 39.8282,-296.49 32.8082,-304.4254 39.289,-307.0711"/>
<text text-anchor="middle" x="19.9592" y="-407.6" font-family="Calibri" font-size="8.00" fill="#000000">0.25</text>
</g>
<!-- SNN -->
<g id="node4" class="node">
<title>SNN</title>
<ellipse fill="none" stroke="#ff0000" cx="428.4602" cy="-279" rx="28.5" ry="18"/>
<text text-anchor="middle" x="428.4602" y="-276.5" font-family="Calibri" font-size="10.00" fill="#000000">SNN</text>
</g>
<!-- SSS&#45;&gt;SNN -->
<g id="edge4" class="edge">
<title>SSS&#45;&gt;SNN</title>
<path fill="none" stroke="#0000ff" d="M378.6102,-522.96C396.7402,-488.02 436.5002,-405.21 448.4602,-330 449.5102,-323.42 450.1302,-321.45 448.4602,-315 447.5702,-311.57 446.2802,-308.13 444.7702,-304.8"/>
<polygon fill="#0000ff" stroke="#0000ff" points="447.8229,-303.0839 440.1102,-295.82 441.6097,-306.3082 447.8229,-303.0839"/>
<text text-anchor="middle" x="441.9602" y="-407.6" font-family="Calibri" font-size="8.00" fill="#000000">0.25</text>
</g>
<!-- NSS -->
<g id="node5" class="node">
<title>NSS</title>
<ellipse fill="none" stroke="#ff0000" cx="352.4602" cy="-366" rx="27" ry="18"/>
<text text-anchor="middle" x="352.4602" y="-363.5" font-family="Calibri" font-size="10.00" fill="#000000">NSS</text>
</g>
<!-- SSN&#45;&gt;NSS -->
<g id="edge5" class="edge">
<title>SSN&#45;&gt;NSS</title>
<path fill="none" stroke="#0000ff" d="M275.5902,-446.35C292.3302,-440.83 313.8502,-431.5 328.4602,-417 335.0502,-410.46 340.0502,-401.76 343.7402,-393.41"/>
<polygon fill="#0000ff" stroke="#0000ff" points="347.0771,-394.4875 347.4702,-383.9 340.5604,-391.9315 347.0771,-394.4875"/>
<text text-anchor="middle" x="350.9602" y="-407.6" font-family="Calibri" font-size="8.00" fill="#000000">0.25</text>
</g>
<!-- NSN -->
<g id="node6" class="node">
<title>NSN</title>
<ellipse fill="none" stroke="#ff0000" cx="244.4602" cy="-18" rx="28.5" ry="18"/>
<text text-anchor="middle" x="244.4602" y="-15.5" font-family="Calibri" font-size="10.00" fill="#000000">NSN</text>
</g>
<!-- SSN&#45;&gt;NSN -->
<g id="edge6" class="edge">
<title>SSN&#45;&gt;NSN</title>
<path fill="none" stroke="#0000ff" d="M223.8302,-449.23C189.6102,-442.75 131.8402,-425.88 108.4602,-384 76.2572,-326.33 102.4592,-301.55 102.4592,-235.5 102.4592,-235.5 102.4592,-235.5 102.4592,-105 102.4592,-56.121 164.3902,-33.859 206.4502,-24.375"/>
<polygon fill="#0000ff" stroke="#0000ff" points="207.3348,-27.7656 216.4002,-22.282 205.8939,-20.9155 207.3348,-27.7656"/>
<text text-anchor="middle" x="114.9602" y="-233.6" font-family="Calibri" font-size="8.00" fill="#000000">0.25</text>
</g>
<!-- NNS -->
<g id="node7" class="node">
<title>NNS</title>
<ellipse fill="none" stroke="#ff0000" cx="244.4602" cy="-105" rx="28.5" ry="18"/>
<text text-anchor="middle" x="244.4602" y="-102.5" font-family="Calibri" font-size="10.00" fill="#000000">NNS</text>
</g>
<!-- SSN&#45;&gt;NNS -->
<g id="edge7" class="edge">
<title>SSN&#45;&gt;NNS</title>
<path fill="none" stroke="#0000ff" d="M234.2302,-438.51C228.2102,-432.39 221.8102,-424.86 217.4602,-417 190.6902,-368.6 191.8602,-351.82 184.4602,-297 174.9802,-226.77 186.2602,-204.63 217.4602,-141 219.3902,-137.05 221.7802,-133.1 224.3302,-129.34"/>
<polygon fill="#0000ff" stroke="#0000ff" points="227.3516,-131.1377 230.4302,-121 221.7016,-127.0052 227.3516,-131.1377"/>
<text text-anchor="middle" x="196.9602" y="-277.1" font-family="Calibri" font-size="8.00" fill="#000000">0.25</text>
</g>
<!-- NNN -->
<g id="node8" class="node">
<title>NNN</title>
<ellipse fill="none" stroke="#ff0000" cx="309.4602" cy="-192" rx="30" ry="18"/>
<text text-anchor="middle" x="309.4602" y="-189.5" font-family="Calibri" font-size="10.00" fill="#000000">NNN</text>
</g>
<!-- SSN&#45;&gt;NNN -->
<g id="edge8" class="edge">
<title>SSN&#45;&gt;NNN</title>
<path fill="none" stroke="#0000ff" d="M250.2302,-434.88C250.2702,-408.26 251.7702,-357.16 261.4602,-315 269.3502,-280.64 285.0902,-243.17 296.3902,-218.73"/>
<polygon fill="#0000ff" stroke="#0000ff" points="299.6852,-219.9481 300.7802,-209.41 293.3526,-216.9652 299.6852,-219.9481"/>
<text text-anchor="middle" x="273.9602" y="-320.6" font-family="Calibri" font-size="8.00" fill="#000000">0.25</text>
</g>
<!-- SNS&#45;&gt;SSS -->
<g id="edge9" class="edge">
<title>SNS&#45;&gt;SSS</title>
<path fill="none" stroke="#0000ff" d="M46.1732,-297.07C44.1952,-330.05 41.9302,-398.35 55.4592,-417 121.2202,-507.64 264.0002,-531.5 332.0002,-537.77"/>
<polygon fill="#0000ff" stroke="#0000ff" points="331.9926,-541.2816 342.2502,-538.63 332.5779,-534.3061 331.9926,-541.2816"/>
<text text-anchor="middle" x="67.9592" y="-407.6" font-family="Calibri" font-size="8.00" fill="#000000">0.25</text>
</g>
<!-- SNS&#45;&gt;SSN -->
<g id="edge10" class="edge">
<title>SNS&#45;&gt;SSN</title>
<path fill="none" stroke="#0000ff" d="M59.8582,-295.18C81.6812,-322.84 129.4102,-379.86 179.4602,-417 191.2202,-425.73 205.4102,-433.4 218.0102,-439.39"/>
<polygon fill="#0000ff" stroke="#0000ff" points="216.7122,-442.6453 227.2602,-443.64 219.6347,-436.2846 216.7122,-442.6453"/>
<text text-anchor="middle" x="152.9602" y="-364.1" font-family="Calibri" font-size="8.00" fill="#000000">0.25</text>
</g>
<!-- SNS&#45;&gt;NSN -->
<g id="edge11" class="edge">
<title>SNS&#45;&gt;NSN</title>
<path fill="none" stroke="#0000ff" d="M44.6792,-260.85C39.2802,-218.29 32.3952,-111.36 88.4592,-54 104.5502,-37.543 165.0902,-27.314 205.8502,-22.141"/>
<polygon fill="#0000ff" stroke="#0000ff" points="206.4966,-25.5882 216.0002,-20.905 205.6504,-18.6396 206.4966,-25.5882"/>
<text text-anchor="middle" x="56.4592" y="-146.6" font-family="Calibri" font-size="8.00" fill="#000000">0.5</text>
</g>
<!-- SNN&#45;&gt;NSS -->
<g id="edge12" class="edge">
<title>SNN&#45;&gt;NSS</title>
<path fill="none" stroke="#0000ff" d="M425.6502,-297C423.2802,-307.5 419.0202,-320.51 411.4602,-330 404.3802,-338.89 394.4602,-346.13 384.7702,-351.73"/>
<polygon fill="#0000ff" stroke="#0000ff" points="382.8358,-348.795 375.6602,-356.59 386.1306,-354.9711 382.8358,-348.795"/>
<text text-anchor="middle" x="431.9602" y="-320.6" font-family="Calibri" font-size="8.00" fill="#000000">0.25</text>
</g>
<!-- SNN&#45;&gt;NSN -->
<g id="edge13" class="edge">
<title>SNN&#45;&gt;NSN</title>
<path fill="none" stroke="#0000ff" d="M436.3302,-261.31C444.7402,-239.63 455.1402,-202.28 441.4602,-174 407.3402,-103.46 324.1102,-55.104 277.4902,-32.533"/>
<polygon fill="#0000ff" stroke="#0000ff" points="278.9369,-29.3456 268.4002,-28.237 275.9458,-35.6744 278.9369,-29.3456"/>
<text text-anchor="middle" x="442.9602" y="-146.6" font-family="Calibri" font-size="8.00" fill="#000000">0.25</text>
</g>
<!-- SNN&#45;&gt;NNS -->
<g id="edge14" class="edge">
<title>SNN&#45;&gt;NNS</title>
<path fill="none" stroke="#0000ff" d="M426.4502,-260.81C423.0202,-237.92 414.0802,-198.63 391.4602,-174 354.1902,-133.41 327.9402,-147.24 278.4602,-123 277.4702,-122.52 276.4702,-122.02 275.4602,-121.51"/>
<polygon fill="#0000ff" stroke="#0000ff" points="276.7964,-118.2621 266.3002,-116.82 273.6062,-124.4929 276.7964,-118.2621"/>
<text text-anchor="middle" x="424.9602" y="-190.1" font-family="Calibri" font-size="8.00" fill="#000000">0.25</text>
</g>
<!-- SNN&#45;&gt;NNN -->
<g id="edge15" class="edge">
<title>SNN&#45;&gt;NNN</title>
<path fill="none" stroke="#0000ff" d="M410.1002,-265C396.4702,-254.67 377.4002,-240.33 360.4602,-228 353.1502,-222.68 345.2002,-217.01 337.7902,-211.78"/>
<polygon fill="#0000ff" stroke="#0000ff" points="339.6041,-208.7769 329.4102,-205.89 335.5789,-214.5038 339.6041,-208.7769"/>
<text text-anchor="middle" x="390.9602" y="-233.6" font-family="Calibri" font-size="8.00" fill="#000000">0.25</text>
</g>
<!-- NSS&#45;&gt;SSS -->
<g id="edge16" class="edge">
<title>NSS&#45;&gt;SSS</title>
<path fill="none" stroke="#0000ff" d="M361.1702,-383.15C363.7002,-388.98 366.1402,-395.64 367.4602,-402 375.2002,-439.28 374.1002,-483.45 372.1502,-511.59"/>
<polygon fill="#0000ff" stroke="#0000ff" points="368.6344,-511.6592 371.3502,-521.9 375.6134,-512.2008 368.6344,-511.6592"/>
<text text-anchor="middle" x="385.9602" y="-451.1" font-family="Calibri" font-size="8.00" fill="#000000">0.25</text>
</g>
<!-- NSS&#45;&gt;SSN -->
<g id="edge17" class="edge">
<title>NSS&#45;&gt;SSN</title>
<path fill="none" stroke="#0000ff" d="M332.3702,-378.23C322.1502,-384.8 309.7402,-393.32 299.4602,-402 289.5902,-410.33 279.5602,-420.43 271.1602,-429.43"/>
<polygon fill="#0000ff" stroke="#0000ff" points="268.4134,-427.2474 264.2502,-436.99 273.5803,-431.97 268.4134,-427.2474"/>
<text text-anchor="middle" x="311.9602" y="-407.6" font-family="Calibri" font-size="8.00" fill="#000000">0.25</text>
</g>
<!-- NSS&#45;&gt;SNS -->
<g id="edge18" class="edge">
<title>NSS&#45;&gt;SNS</title>
<path fill="none" stroke="#0000ff" d="M336.6002,-351.22C321.8202,-337.77 300.5702,-319.36 290.4602,-315 232.0502,-289.8 211.3502,-306.58 148.4602,-297 126.8202,-293.7 102.6752,-289.42 83.4222,-285.86"/>
<polygon fill="#0000ff" stroke="#0000ff" points="84.0305,-282.4132 73.5582,-284.02 82.7468,-289.2945 84.0305,-282.4132"/>
<text text-anchor="middle" x="322.9602" y="-320.6" font-family="Calibri" font-size="8.00" fill="#000000">0.25</text>
</g>
<!-- NSS&#45;&gt;SNN -->
<g id="edge19" class="edge">
<title>NSS&#45;&gt;SNN</title>
<path fill="none" stroke="#0000ff" d="M360.7102,-348.4C366.0602,-338.04 373.6602,-325.05 382.4602,-315 387.6002,-309.13 393.8202,-303.53 399.9902,-298.57"/>
<polygon fill="#0000ff" stroke="#0000ff" points="402.4447,-301.0996 408.2702,-292.25 398.1976,-295.5352 402.4447,-301.0996"/>
<text text-anchor="middle" x="394.9602" y="-320.6" font-family="Calibri" font-size="8.00" fill="#000000">0.25</text>
</g>
<!-- NSN&#45;&gt;NSN -->
<g id="edge20" class="edge">
<title>NSN&#45;&gt;NSN</title>
<path fill="none" stroke="#0000ff" d="M270.3402,-25.781C281.5002,-26.418 291.0602,-23.824 291.0602,-18 291.0602,-14.087 286.7402,-11.632 280.5202,-10.636"/>
<polygon fill="#0000ff" stroke="#0000ff" points="280.4751,-7.1313 270.3402,-10.219 280.1885,-14.1254 280.4751,-7.1313"/>
<text text-anchor="middle" x="300.0602" y="-16.1" font-family="Calibri" font-size="8.00" fill="#000000">1.0</text>
</g>
<!-- NNS&#45;&gt;SSS -->
<g id="edge21" class="edge">
<title>NNS&#45;&gt;SSS</title>
<path fill="none" stroke="#0000ff" d="M265.1302,-117.56C269.4102,-119.69 273.9802,-121.65 278.4602,-123 355.8602,-146.35 385.9102,-107.45 459.4602,-141 489.4902,-154.7 513.4602,-158.99 513.4602,-192 513.4602,-453 513.4602,-453 513.4602,-453 513.4602,-503.19 448.5802,-525.2 405.9202,-534.25"/>
<polygon fill="#0000ff" stroke="#0000ff" points="405.005,-530.8629 395.8702,-536.23 406.3582,-537.7309 405.005,-530.8629"/>
<text text-anchor="middle" x="525.9602" y="-320.6" font-family="Calibri" font-size="8.00" fill="#000000">0.25</text>
</g>
<!-- NNS&#45;&gt;SSN -->
<g id="edge22" class="edge">
<title>NNS&#45;&gt;SSN</title>
<path fill="none" stroke="#0000ff" d="M240.2002,-122.88C236.4102,-140.39 231.4602,-167.87 231.4602,-192 231.4602,-366 231.4602,-366 231.4602,-366 231.4602,-386.23 236.4202,-408.51 241.2802,-425.45"/>
<polygon fill="#0000ff" stroke="#0000ff" points="237.9982,-426.6891 244.2402,-435.25 244.6992,-424.6651 237.9982,-426.6891"/>
<text text-anchor="middle" x="243.9602" y="-277.1" font-family="Calibri" font-size="8.00" fill="#000000">0.25</text>
</g>
<!-- NNS&#45;&gt;NSN -->
<g id="edge23" class="edge">
<title>NNS&#45;&gt;NSN</title>
<path fill="none" stroke="#0000ff" d="M244.4602,-86.974C244.4602,-75.192 244.4602,-59.561 244.4602,-46.158"/>
<polygon fill="#0000ff" stroke="#0000ff" points="247.9603,-46.003 244.4602,-36.003 240.9603,-46.003 247.9603,-46.003"/>
<text text-anchor="middle" x="253.4602" y="-59.6" font-family="Calibri" font-size="8.00" fill="#000000">0.5</text>
</g>
<!-- NNN&#45;&gt;NSS -->
<g id="edge24" class="edge">
<title>NNN&#45;&gt;NSS</title>
<path fill="none" stroke="#0000ff" d="M313.8802,-209.87C321.3802,-240.23 336.6602,-302.09 345.5802,-338.16"/>
<polygon fill="#0000ff" stroke="#0000ff" points="342.2225,-339.1622 348.0202,-348.03 349.0179,-337.4823 342.2225,-339.1622"/>
<text text-anchor="middle" x="346.9602" y="-277.1" font-family="Calibri" font-size="8.00" fill="#000000">0.25</text>
</g>
<!-- NNN&#45;&gt;NSN -->
<g id="edge25" class="edge">
<title>NNN&#45;&gt;NSN</title>
<path fill="none" stroke="#0000ff" d="M305.9402,-173.83C301.5702,-152.63 293.3502,-116.69 282.4602,-87 276.8502,-71.697 274.2702,-68.304 266.4602,-54 264.6302,-50.653 262.6402,-47.179 260.6202,-43.767"/>
<polygon fill="#0000ff" stroke="#0000ff" points="263.4937,-41.7552 255.3202,-35.014 257.5059,-45.381 263.4937,-41.7552"/>
<text text-anchor="middle" x="304.9602" y="-103.1" font-family="Calibri" font-size="8.00" fill="#000000">0.25</text>
</g>
<!-- NNN&#45;&gt;NNS -->
<g id="edge26" class="edge">
<title>NNN&#45;&gt;NNS</title>
<path fill="none" stroke="#0000ff" d="M291.0602,-177.42C284.0602,-171.3 276.3602,-163.78 270.4602,-156 264.9402,-148.71 260.0302,-140.08 256.0002,-132"/>
<polygon fill="#0000ff" stroke="#0000ff" points="259.1371,-130.4461 251.7002,-122.9 252.8081,-133.4368 259.1371,-130.4461"/>
<text text-anchor="middle" x="282.9602" y="-146.6" font-family="Calibri" font-size="8.00" fill="#000000">0.25</text>
</g>
<!-- NNN&#45;&gt;NNN -->
<g id="edge27" class="edge">
<title>NNN&#45;&gt;NNN</title>
<path fill="none" stroke="#0000ff" d="M336.5402,-199.81C347.8102,-200.34 357.3602,-197.74 357.3602,-192 357.3602,-188.14 353.0502,-185.7 346.8002,-184.68"/>
<polygon fill="#0000ff" stroke="#0000ff" points="346.6958,-181.1711 336.5402,-184.19 346.3618,-188.1631 346.6958,-181.1711"/>
<text text-anchor="middle" x="369.8602" y="-190.1" font-family="Calibri" font-size="8.00" fill="#000000">0.25</text>
</g>
</g>
</svg>
