<?xml version="1.0" encoding="UTF-8" standalone="no"?>
<!DOCTYPE svg PUBLIC "-//W3C//DTD SVG 1.1//EN"
 "http://www.w3.org/Graphics/SVG/1.1/DTD/svg11.dtd">
<!-- Generated by graphviz version 2.40.1 (20161225.0304)
 -->
<!-- Pages: 1 -->
<svg width="179pt" height="305pt"
 viewBox="0.00 0.00 179.00 305.00" xmlns="http://www.w3.org/2000/svg" xmlns:xlink="http://www.w3.org/1999/xlink">
<g id="graph0" class="graph" transform="scale(1 1) rotate(0) translate(4 301)">
<polygon fill="#ffffff" stroke="transparent" points="-4,4 -4,-301 175,-301 175,4 -4,4"/>
<!-- 0 -->
<g id="node1" class="node">
<title>0</title>
<ellipse fill="none" stroke="#ff0000" cx="113" cy="-279" rx="27" ry="18"/>
<text text-anchor="middle" x="113" y="-276.5" font-family="Calibri" font-size="10.00" fill="#000000">0</text>
</g>
<!-- 1 -->
<g id="node2" class="node">
<title>1</title>
<ellipse fill="none" stroke="#ff0000" cx="27" cy="-192" rx="27" ry="18"/>
<text text-anchor="middle" x="27" y="-189.5" font-family="Calibri" font-size="10.00" fill="#000000">1</text>
</g>
<!-- 0&#45;&gt;1 -->
<g id="edge1" class="edge">
<title>0&#45;&gt;1</title>
<path fill="none" stroke="#0000ff" d="M91.524,-267.96C80.624,-261.65 67.679,-253.01 58,-243 51.017,-235.78 44.878,-226.72 39.944,-218.24"/>
<polygon fill="#0000ff" stroke="#0000ff" points="42.9642,-216.4685 35.081,-209.39 36.8294,-219.8396 42.9642,-216.4685"/>
<text text-anchor="middle" x="67" y="-233.6" font-family="Calibri" font-size="8.00" fill="#000000">0.3</text>
</g>
<!-- 2 -->
<g id="node3" class="node">
<title>2</title>
<ellipse fill="none" stroke="#ff0000" cx="81" cy="-105" rx="27" ry="18"/>
<text text-anchor="middle" x="81" y="-102.5" font-family="Calibri" font-size="10.00" fill="#000000">2</text>
</g>
<!-- 0&#45;&gt;2 -->
<g id="edge2" class="edge">
<title>0&#45;&gt;2</title>
<path fill="none" stroke="#0000ff" d="M109.7,-261.03C104.1,-230.61 92.723,-168.74 86.099,-132.72"/>
<polygon fill="#0000ff" stroke="#0000ff" points="89.5385,-132.0712 84.286,-122.87 82.6541,-133.3384 89.5385,-132.0712"/>
<text text-anchor="middle" x="109" y="-190.1" font-family="Calibri" font-size="8.00" fill="#000000">0.4</text>
</g>
<!-- 3 -->
<g id="node4" class="node">
<title>3</title>
<ellipse fill="none" stroke="#ff0000" cx="136" cy="-18" rx="27" ry="18"/>
<text text-anchor="middle" x="136" y="-15.5" font-family="Calibri" font-size="10.00" fill="#000000">3</text>
</g>
<!-- 0&#45;&gt;3 -->
<g id="edge3" class="edge">
<title>0&#45;&gt;3</title>
<path fill="none" stroke="#0000ff" d="M115.7,-260.88C117.68,-246.98 120.32,-227.31 122,-210 127.64,-151.87 132.1,-83.634 134.37,-46.178"/>
<polygon fill="#0000ff" stroke="#0000ff" points="137.8739,-46.2131 134.97,-36.024 130.8861,-45.8001 137.8739,-46.2131"/>
<text text-anchor="middle" x="136" y="-146.6" font-family="Calibri" font-size="8.00" fill="#000000">0.3</text>
</g>
<!-- 1&#45;&gt;2 -->
<g id="edge4" class="edge">
<title>1&#45;&gt;2</title>
<path fill="none" stroke="#0000ff" d="M37.239,-174.94C43.235,-165.01 50.985,-152.26 58,-141 60.145,-137.56 62.424,-133.94 64.68,-130.39"/>
<polygon fill="#0000ff" stroke="#0000ff" points="67.7319,-132.1136 70.157,-121.8 61.8296,-128.3502 67.7319,-132.1136"/>
<text text-anchor="middle" x="67" y="-146.6" font-family="Calibri" font-size="8.00" fill="#000000">1.0</text>
</g>
<!-- 2&#45;&gt;3 -->
<g id="edge5" class="edge">
<title>2&#45;&gt;3</title>
<path fill="none" stroke="#0000ff" d="M87.428,-87.324C91.487,-77.182 97.237,-64.432 104,-54 106.94,-49.468 110.43,-44.93 114.01,-40.68"/>
<polygon fill="#0000ff" stroke="#0000ff" points="116.8631,-42.7379 120.88,-32.934 111.6261,-38.0931 116.8631,-42.7379"/>
<text text-anchor="middle" x="113" y="-59.6" font-family="Calibri" font-size="8.00" fill="#000000">1.0</text>
</g>
<!-- 3&#45;&gt;0 -->
<g id="edge6" class="edge">
<title>3&#45;&gt;0</title>
<path fill="none" stroke="#0000ff" d="M142.47,-35.717C144.28,-41.47 146.02,-47.935 147,-54 160.4,-137.16 161.45,-163.72 133,-243 131.78,-246.4 130.26,-249.86 128.61,-253.23"/>
<polygon fill="#0000ff" stroke="#0000ff" points="125.3784,-251.851 123.75,-262.32 131.5515,-255.1515 125.3784,-251.851"/>
<text text-anchor="middle" x="165" y="-146.6" font-family="Calibri" font-size="8.00" fill="#000000">1.0</text>
</g>
</g>
</svg>
