<?xml version="1.0" encoding="UTF-8" standalone="no"?>
<!DOCTYPE svg PUBLIC "-//W3C//DTD SVG 1.1//EN"
 "http://www.w3.org/Graphics/SVG/1.1/DTD/svg11.dtd">
<!-- Generated by graphviz version 2.40.1 (20161225.0304)
 -->
<!-- Pages: 1 -->
<svg width="203pt" height="131pt"
 viewBox="0.00 0.00 203.00 131.00" xmlns="http://www.w3.org/2000/svg" xmlns:xlink="http://www.w3.org/1999/xlink">
<g id="graph0" class="graph" transform="scale(1 1) rotate(0) translate(4 127)">
<polygon fill="#ffffff" stroke="transparent" points="-4,4 -4,-127 199,-127 199,4 -4,4"/>
<!-- 0 -->
<g id="node1" class="node">
<title>0</title>
<ellipse fill="none" stroke="#ff0000" cx="27" cy="-105" rx="27" ry="18"/>
<text text-anchor="middle" x="27" y="-102.5" font-family="Calibri" font-size="10.00" fill="#000000">0</text>
</g>
<!-- 0&#45;&gt;0 -->
<g id="edge1" class="edge">
<title>0&#45;&gt;0</title>
<path fill="none" stroke="#0000ff" d="M51.532,-112.75C62.508,-113.49 72,-110.91 72,-105 72,-101.03 67.715,-98.563 61.574,-97.594"/>
<polygon fill="#0000ff" stroke="#0000ff" points="61.6466,-94.0945 51.532,-97.248 61.4055,-101.0904 61.6466,-94.0945"/>
<text text-anchor="middle" x="81" y="-103.1" font-family="Calibri" font-size="8.00" fill="#000000">0.5</text>
</g>
<!-- 1 -->
<g id="node2" class="node">
<title>1</title>
<ellipse fill="none" stroke="#ff0000" cx="68" cy="-18" rx="27" ry="18"/>
<text text-anchor="middle" x="68" y="-15.5" font-family="Calibri" font-size="10.00" fill="#000000">1</text>
</g>
<!-- 0&#45;&gt;1 -->
<g id="edge2" class="edge">
<title>0&#45;&gt;1</title>
<path fill="none" stroke="#0000ff" d="M23.923,-86.753C23.046,-76.661 23.361,-64.148 28,-54 30.804,-47.866 35.207,-42.329 40.085,-37.54"/>
<polygon fill="#0000ff" stroke="#0000ff" points="42.7448,-39.8642 47.978,-30.652 38.1422,-34.5901 42.7448,-39.8642"/>
<text text-anchor="middle" x="37" y="-59.6" font-family="Calibri" font-size="8.00" fill="#000000">0.5</text>
</g>
<!-- 1&#45;&gt;0 -->
<g id="edge3" class="edge">
<title>1&#45;&gt;0</title>
<path fill="none" stroke="#0000ff" d="M60.8,-35.619C56.657,-45.515 51.246,-58.041 46,-69 44.458,-72.221 42.785,-75.573 41.092,-78.879"/>
<polygon fill="#0000ff" stroke="#0000ff" points="37.8936,-77.4424 36.362,-87.926 44.0969,-80.6857 37.8936,-77.4424"/>
<text text-anchor="middle" x="61" y="-59.6" font-family="Calibri" font-size="8.00" fill="#000000">0.5</text>
</g>
<!-- 1&#45;&gt;1 -->
<g id="edge4" class="edge">
<title>1&#45;&gt;1</title>
<path fill="none" stroke="#0000ff" d="M92.532,-25.752C103.51,-26.49 113,-23.906 113,-18 113,-14.032 108.72,-11.563 102.57,-10.594"/>
<polygon fill="#0000ff" stroke="#0000ff" points="102.6467,-7.0947 92.532,-10.248 102.4055,-14.0905 102.6467,-7.0947"/>
<text text-anchor="middle" x="122" y="-16.1" font-family="Calibri" font-size="8.00" fill="#000000">0.5</text>
</g>
<!-- 2 -->
<g id="node3" class="node">
<title>2</title>
<ellipse fill="none" stroke="#ff0000" cx="135" cy="-105" rx="27" ry="18"/>
<text text-anchor="middle" x="135" y="-102.5" font-family="Calibri" font-size="10.00" fill="#000000">2</text>
</g>
<!-- 2&#45;&gt;1 -->
<g id="edge5" class="edge">
<title>2&#45;&gt;1</title>
<path fill="none" stroke="#0000ff" d="M122.4,-88.636C112.38,-75.634 98.224,-57.246 86.86,-42.49"/>
<polygon fill="#0000ff" stroke="#0000ff" points="89.4205,-40.0784 80.546,-34.291 83.8744,-44.3495 89.4205,-40.0784"/>
<text text-anchor="middle" x="114" y="-59.6" font-family="Calibri" font-size="8.00" fill="#000000">0.5</text>
</g>
<!-- 2&#45;&gt;2 -->
<g id="edge6" class="edge">
<title>2&#45;&gt;2</title>
<path fill="none" stroke="#0000ff" d="M159.53,-112.75C170.51,-113.49 180,-110.91 180,-105 180,-101.03 175.72,-98.563 169.57,-97.594"/>
<polygon fill="#0000ff" stroke="#0000ff" points="169.6446,-94.0946 159.53,-97.248 169.4035,-101.0904 169.6446,-94.0946"/>
<text text-anchor="middle" x="189" y="-103.1" font-family="Calibri" font-size="8.00" fill="#000000">0.5</text>
</g>
</g>
</svg>
