<?xml version="1.0" encoding="UTF-8" standalone="no"?>
<!DOCTYPE svg PUBLIC "-//W3C//DTD SVG 1.1//EN"
 "http://www.w3.org/Graphics/SVG/1.1/DTD/svg11.dtd">
<!-- Generated by graphviz version 2.40.1 (20161225.0304)
 -->
<!-- Pages: 1 -->
<svg width="256pt" height="131pt"
 viewBox="0.00 0.00 256.04 131.00" xmlns="http://www.w3.org/2000/svg" xmlns:xlink="http://www.w3.org/1999/xlink">
<g id="graph0" class="graph" transform="scale(1 1) rotate(0) translate(4 127)">
<polygon fill="#ffffff" stroke="transparent" points="-4,4 -4,-127 252.042,-127 252.042,4 -4,4"/>
<!-- Rich -->
<g id="node1" class="node">
<title>Rich</title>
<ellipse fill="none" stroke="#ff0000" cx="27.5" cy="-105" rx="27.5" ry="18"/>
<text text-anchor="middle" x="27.5" y="-102.5" font-family="Calibri" font-size="10.00" fill="#000000">Rich</text>
</g>
<!-- Rich&#45;&gt;Rich -->
<g id="edge1" class="edge">
<title>Rich&#45;&gt;Rich</title>
<path fill="none" stroke="#0000ff" d="M52.194,-112.75C63.242,-113.49 72.797,-110.91 72.797,-105 72.797,-101.03 68.484,-98.563 62.303,-97.594"/>
<polygon fill="#0000ff" stroke="#0000ff" points="62.3079,-94.0922 52.194,-97.248 62.0684,-101.0881 62.3079,-94.0922"/>
<text text-anchor="middle" x="88.297" y="-103.1" font-family="Calibri" font-size="8.00" fill="#000000">0.388</text>
</g>
<!-- Poor -->
<g id="node2" class="node">
<title>Poor</title>
<ellipse fill="none" stroke="#ff0000" cx="30.5" cy="-18" rx="27.5" ry="18"/>
<text text-anchor="middle" x="30.5" y="-15.5" font-family="Calibri" font-size="10.00" fill="#000000">Poor</text>
</g>
<!-- Rich&#45;&gt;Poor -->
<g id="edge2" class="edge">
<title>Rich&#45;&gt;Poor</title>
<path fill="none" stroke="#0000ff" d="M18.377,-87.636C14.32,-77.82 10.968,-65.289 13.5,-54 14.226,-50.763 15.277,-47.474 16.506,-44.266"/>
<polygon fill="#0000ff" stroke="#0000ff" points="19.7498,-45.5843 20.58,-35.022 13.3443,-42.7612 19.7498,-45.5843"/>
<text text-anchor="middle" x="29" y="-59.6" font-family="Calibri" font-size="8.00" fill="#000000">0.612</text>
</g>
<!-- Poor&#45;&gt;Rich -->
<g id="edge3" class="edge">
<title>Poor&#45;&gt;Rich</title>
<path fill="none" stroke="#0000ff" d="M39.622,-35.364C43.679,-45.18 47.031,-57.711 44.5,-69 43.774,-72.237 42.722,-75.526 41.493,-78.734"/>
<polygon fill="#0000ff" stroke="#0000ff" points="38.2492,-77.4157 37.419,-87.978 44.6547,-80.2388 38.2492,-77.4157"/>
<text text-anchor="middle" x="61" y="-59.6" font-family="Calibri" font-size="8.00" fill="#000000">0.378</text>
</g>
<!-- Poor&#45;&gt;Poor -->
<g id="edge4" class="edge">
<title>Poor&#45;&gt;Poor</title>
<path fill="none" stroke="#0000ff" d="M55.194,-25.752C66.242,-26.49 75.797,-23.906 75.797,-18 75.797,-14.032 71.484,-11.563 65.303,-10.594"/>
<polygon fill="#0000ff" stroke="#0000ff" points="65.3079,-7.0922 55.194,-10.248 65.0684,-14.0881 65.3079,-7.0922"/>
<text text-anchor="middle" x="91.297" y="-16.1" font-family="Calibri" font-size="8.00" fill="#000000">0.622</text>
</g>
<!-- Neutral -->
<g id="node3" class="node">
<title>Neutral</title>
<ellipse fill="none" stroke="#ff0000" cx="166.502" cy="-105" rx="37" ry="18"/>
<text text-anchor="middle" x="166.502" y="-102.5" font-family="Calibri" font-size="10.00" fill="#000000">Neutral</text>
</g>
<!-- Neutral&#45;&gt;Neutral -->
<g id="edge5" class="edge">
<title>Neutral&#45;&gt;Neutral</title>
<path fill="none" stroke="#0000ff" d="M199.822,-112.87C211.792,-113.04 221.542,-110.41 221.542,-105 221.542,-101.28 216.932,-98.875 210.162,-97.792"/>
<polygon fill="#0000ff" stroke="#0000ff" points="210.0244,-94.2762 199.822,-97.133 209.5791,-101.262 210.0244,-94.2762"/>
<text text-anchor="middle" x="237.042" y="-103.1" font-family="Calibri" font-size="8.00" fill="#000000">0.595</text>
</g>
<!-- Loser -->
<g id="node4" class="node">
<title>Loser</title>
<ellipse fill="none" stroke="#ff0000" cx="173.502" cy="-18" rx="30.5" ry="18"/>
<text text-anchor="middle" x="173.502" y="-15.5" font-family="Calibri" font-size="10.00" fill="#000000">Loser</text>
</g>
<!-- Neutral&#45;&gt;Loser -->
<g id="edge6" class="edge">
<title>Neutral&#45;&gt;Loser</title>
<path fill="none" stroke="#0000ff" d="M149.242,-88.94C140.862,-79.128 133.562,-66.167 138.502,-54 140.592,-48.851 143.812,-44.034 147.462,-39.703"/>
<polygon fill="#0000ff" stroke="#0000ff" points="149.9983,-42.1149 154.372,-32.465 144.9351,-37.2812 149.9983,-42.1149"/>
<text text-anchor="middle" x="154.002" y="-59.6" font-family="Calibri" font-size="8.00" fill="#000000">0.405</text>
</g>
<!-- Loser&#45;&gt;Neutral -->
<g id="edge7" class="edge">
<title>Loser&#45;&gt;Neutral</title>
<path fill="none" stroke="#0000ff" d="M172.082,-36.414C171.322,-46.111 170.372,-58.2 169.502,-69 169.302,-71.426 169.102,-73.944 168.892,-76.471"/>
<polygon fill="#0000ff" stroke="#0000ff" points="165.3833,-76.4312 168.042,-86.687 172.3592,-77.0117 165.3833,-76.4312"/>
<text text-anchor="middle" x="186.002" y="-59.6" font-family="Calibri" font-size="8.00" fill="#000000">0.585</text>
</g>
<!-- Loser&#45;&gt;Loser -->
<g id="edge8" class="edge">
<title>Loser&#45;&gt;Loser</title>
<path fill="none" stroke="#0000ff" d="M201.442,-25.827C212.642,-26.269 222.042,-23.66 222.042,-18 222.042,-14.197 217.802,-11.772 211.612,-10.723"/>
<polygon fill="#0000ff" stroke="#0000ff" points="211.6164,-7.2182 201.442,-10.173 211.2384,-14.208 211.6164,-7.2182"/>
<text text-anchor="middle" x="237.542" y="-16.1" font-family="Calibri" font-size="8.00" fill="#000000">0.415</text>
</g>
</g>
</svg>
