<?xml version="1.0" encoding="UTF-8" standalone="no"?>
<!DOCTYPE svg PUBLIC "-//W3C//DTD SVG 1.1//EN"
 "http://www.w3.org/Graphics/SVG/1.1/DTD/svg11.dtd">
<!-- Generated by graphviz version 2.40.1 (20161225.0304)
 -->
<!-- Pages: 1 -->
<svg width="305pt" height="305pt"
 viewBox="0.00 0.00 305.04 305.00" xmlns="http://www.w3.org/2000/svg" xmlns:xlink="http://www.w3.org/1999/xlink">
<g id="graph0" class="graph" transform="scale(1 1) rotate(0) translate(4 301)">
<polygon fill="#ffffff" stroke="transparent" points="-4,4 -4,-301 301.0429,-301 301.0429,4 -4,4"/>
<!-- 0 -->
<g id="node1" class="node">
<title>0</title>
<ellipse fill="none" stroke="#ff0000" cx="63.0389" cy="-279" rx="27" ry="18"/>
<text text-anchor="middle" x="63.0389" y="-276.5" font-family="Calibri" font-size="10.00" fill="#000000">0</text>
</g>
<!-- 2 -->
<g id="node2" class="node">
<title>2</title>
<ellipse fill="none" stroke="#ff0000" cx="63.0389" cy="-192" rx="27" ry="18"/>
<text text-anchor="middle" x="63.0389" y="-189.5" font-family="Calibri" font-size="10.00" fill="#000000">2</text>
</g>
<!-- 0&#45;&gt;2 -->
<g id="edge1" class="edge">
<title>0&#45;&gt;2</title>
<path fill="none" stroke="#0000ff" d="M63.0389,-260.97C63.0389,-249.19 63.0389,-233.56 63.0389,-220.16"/>
<polygon fill="#0000ff" stroke="#0000ff" points="66.539,-220 63.0389,-210 59.539,-220 66.539,-220"/>
<text text-anchor="middle" x="75.5389" y="-233.6" font-family="Calibri" font-size="8.00" fill="#000000">0.07</text>
</g>
<!-- 5 -->
<g id="node3" class="node">
<title>5</title>
<ellipse fill="none" stroke="#ff0000" cx="33.0389" cy="-105" rx="27" ry="18"/>
<text text-anchor="middle" x="33.0389" y="-102.5" font-family="Calibri" font-size="10.00" fill="#000000">5</text>
</g>
<!-- 0&#45;&gt;5 -->
<g id="edge2" class="edge">
<title>0&#45;&gt;5</title>
<path fill="none" stroke="#0000ff" d="M46.7559,-264.4C33.7369,-251.55 16.4759,-231.57 9.0385,-210 0,-183.79 9.4855,-152.71 19.0679,-131.2"/>
<polygon fill="#0000ff" stroke="#0000ff" points="22.2893,-132.5753 23.4109,-122.04 15.9642,-129.5764 22.2893,-132.5753"/>
<text text-anchor="middle" x="18.0389" y="-190.1" font-family="Calibri" font-size="8.00" fill="#000000">0.7</text>
</g>
<!-- 6 -->
<g id="node4" class="node">
<title>6</title>
<ellipse fill="none" stroke="#ff0000" cx="171.0429" cy="-192" rx="27" ry="18"/>
<text text-anchor="middle" x="171.0429" y="-189.5" font-family="Calibri" font-size="10.00" fill="#000000">6</text>
</g>
<!-- 0&#45;&gt;6 -->
<g id="edge3" class="edge">
<title>0&#45;&gt;6</title>
<path fill="none" stroke="#0000ff" d="M87.6579,-271.11C103.3489,-265.19 123.4029,-255.89 138.0429,-243 145.9129,-236.07 152.6429,-226.83 157.9429,-218.11"/>
<polygon fill="#0000ff" stroke="#0000ff" points="161.0285,-219.7641 162.9229,-209.34 154.9414,-216.3076 161.0285,-219.7641"/>
<text text-anchor="middle" x="164.5429" y="-233.6" font-family="Calibri" font-size="8.00" fill="#000000">0.23</text>
</g>
<!-- 2&#45;&gt;2 -->
<g id="edge4" class="edge">
<title>2&#45;&gt;2</title>
<path fill="none" stroke="#0000ff" d="M87.5709,-199.75C98.5459,-200.49 108.0429,-197.91 108.0429,-192 108.0429,-188.03 103.7539,-185.56 97.6129,-184.59"/>
<polygon fill="#0000ff" stroke="#0000ff" points="97.6836,-181.0905 87.5709,-184.25 97.4467,-188.0865 97.6836,-181.0905"/>
<text text-anchor="middle" x="117.0429" y="-190.1" font-family="Calibri" font-size="8.00" fill="#000000">0.8</text>
</g>
<!-- 2&#45;&gt;5 -->
<g id="edge5" class="edge">
<title>2&#45;&gt;5</title>
<path fill="none" stroke="#0000ff" d="M47.2189,-176.94C42.0089,-170.97 36.8369,-163.69 34.0389,-156 31.4459,-148.87 30.4759,-140.81 30.3329,-133.23"/>
<polygon fill="#0000ff" stroke="#0000ff" points="33.8379,-133.0775 30.5989,-122.99 26.8403,-132.8957 33.8379,-133.0775"/>
<text text-anchor="middle" x="43.0389" y="-146.6" font-family="Calibri" font-size="8.00" fill="#000000">0.2</text>
</g>
<!-- 5&#45;&gt;2 -->
<g id="edge6" class="edge">
<title>5&#45;&gt;2</title>
<path fill="none" stroke="#0000ff" d="M43.1109,-121.78C46.3309,-127.69 49.6699,-134.49 52.0389,-141 54.6789,-148.26 56.7809,-156.34 58.4099,-163.88"/>
<polygon fill="#0000ff" stroke="#0000ff" points="54.981,-164.5827 60.3439,-173.72 61.8496,-163.2327 54.981,-164.5827"/>
<text text-anchor="middle" x="69.5389" y="-146.6" font-family="Calibri" font-size="8.00" fill="#000000">0.07</text>
</g>
<!-- 5&#45;&gt;5 -->
<g id="edge7" class="edge">
<title>5&#45;&gt;5</title>
<path fill="none" stroke="#0000ff" d="M57.5709,-112.75C68.5459,-113.49 78.0389,-110.91 78.0389,-105 78.0389,-101.03 73.7539,-98.563 67.6129,-97.594"/>
<polygon fill="#0000ff" stroke="#0000ff" points="67.6855,-94.0945 57.5709,-97.248 67.4444,-101.0904 67.6855,-94.0945"/>
<text text-anchor="middle" x="90.5389" y="-103.1" font-family="Calibri" font-size="8.00" fill="#000000">0.93</text>
</g>
<!-- 6&#45;&gt;6 -->
<g id="edge8" class="edge">
<title>6&#45;&gt;6</title>
<path fill="none" stroke="#0000ff" d="M195.5729,-199.75C206.5429,-200.49 216.0429,-197.91 216.0429,-192 216.0429,-188.03 211.7529,-185.56 205.6129,-184.59"/>
<polygon fill="#0000ff" stroke="#0000ff" points="205.6857,-181.0906 195.5729,-184.25 205.4487,-188.0865 205.6857,-181.0906"/>
<text text-anchor="middle" x="225.0429" y="-190.1" font-family="Calibri" font-size="8.00" fill="#000000">0.5</text>
</g>
<!-- 1 -->
<g id="node5" class="node">
<title>1</title>
<ellipse fill="none" stroke="#ff0000" cx="189.0429" cy="-105" rx="27" ry="18"/>
<text text-anchor="middle" x="189.0429" y="-102.5" font-family="Calibri" font-size="10.00" fill="#000000">1</text>
</g>
<!-- 6&#45;&gt;1 -->
<g id="edge9" class="edge">
<title>6&#45;&gt;1</title>
<path fill="none" stroke="#0000ff" d="M174.7729,-173.97C177.2029,-162.19 180.4429,-146.56 183.2129,-133.16"/>
<polygon fill="#0000ff" stroke="#0000ff" points="186.7162,-133.5015 185.3129,-123 179.8611,-132.0845 186.7162,-133.5015"/>
<text text-anchor="middle" x="190.0429" y="-146.6" font-family="Calibri" font-size="8.00" fill="#000000">0.5</text>
</g>
<!-- 1&#45;&gt;1 -->
<g id="edge10" class="edge">
<title>1&#45;&gt;1</title>
<path fill="none" stroke="#0000ff" d="M213.5729,-112.75C224.5429,-113.49 234.0429,-110.91 234.0429,-105 234.0429,-101.03 229.7529,-98.563 223.6129,-97.594"/>
<polygon fill="#0000ff" stroke="#0000ff" points="223.6875,-94.0946 213.5729,-97.248 223.4464,-101.0904 223.6875,-94.0946"/>
<text text-anchor="middle" x="246.5429" y="-103.1" font-family="Calibri" font-size="8.00" fill="#000000">0.98</text>
</g>
<!-- 4 -->
<g id="node6" class="node">
<title>4</title>
<ellipse fill="none" stroke="#ff0000" cx="237.0429" cy="-18" rx="27" ry="18"/>
<text text-anchor="middle" x="237.0429" y="-15.5" font-family="Calibri" font-size="10.00" fill="#000000">4</text>
</g>
<!-- 1&#45;&gt;4 -->
<g id="edge11" class="edge">
<title>1&#45;&gt;4</title>
<path fill="none" stroke="#0000ff" d="M185.7029,-87.086C184.6729,-76.865 184.9229,-64.115 190.0429,-54 193.8229,-46.52 199.9629,-40.152 206.5829,-34.946"/>
<polygon fill="#0000ff" stroke="#0000ff" points="208.904,-37.5927 215.0729,-28.979 204.8789,-31.8657 208.904,-37.5927"/>
<text text-anchor="middle" x="202.5429" y="-59.6" font-family="Calibri" font-size="8.00" fill="#000000">0.02</text>
</g>
<!-- 4&#45;&gt;6 -->
<g id="edge12" class="edge">
<title>4&#45;&gt;6</title>
<path fill="none" stroke="#0000ff" d="M249.2129,-34.371C263.4329,-55.663 283.2029,-93.608 268.0429,-123 254.6129,-149.03 226.3129,-167.39 203.7329,-178.59"/>
<polygon fill="#0000ff" stroke="#0000ff" points="202.0158,-175.53 194.4629,-182.96 205.0007,-181.8617 202.0158,-175.53"/>
<text text-anchor="middle" x="282.0429" y="-103.1" font-family="Calibri" font-size="8.00" fill="#000000">0.3</text>
</g>
<!-- 4&#45;&gt;1 -->
<g id="edge13" class="edge">
<title>4&#45;&gt;1</title>
<path fill="none" stroke="#0000ff" d="M230.4229,-35.924C226.4629,-45.914 221.0329,-58.434 215.0429,-69 212.7929,-72.953 210.2029,-76.996 207.5429,-80.876"/>
<polygon fill="#0000ff" stroke="#0000ff" points="204.6943,-78.8424 201.7329,-89.015 210.3916,-82.9095 204.6943,-78.8424"/>
<text text-anchor="middle" x="231.0429" y="-59.6" font-family="Calibri" font-size="8.00" fill="#000000">0.5</text>
</g>
<!-- 4&#45;&gt;4 -->
<g id="edge14" class="edge">
<title>4&#45;&gt;4</title>
<path fill="none" stroke="#0000ff" d="M261.5729,-25.752C272.5429,-26.49 282.0429,-23.906 282.0429,-18 282.0429,-14.032 277.7529,-11.563 271.6129,-10.594"/>
<polygon fill="#0000ff" stroke="#0000ff" points="271.6875,-7.0946 261.5729,-10.248 271.4464,-14.0904 271.6875,-7.0946"/>
<text text-anchor="middle" x="291.0429" y="-16.1" font-family="Calibri" font-size="8.00" fill="#000000">0.2</text>
</g>
<!-- 3 -->
<g id="node7" class="node">
<title>3</title>
<ellipse fill="none" stroke="#ff0000" cx="202.0429" cy="-279" rx="27" ry="18"/>
<text text-anchor="middle" x="202.0429" y="-276.5" font-family="Calibri" font-size="10.00" fill="#000000">3</text>
</g>
<!-- 3&#45;&gt;2 -->
<g id="edge15" class="edge">
<title>3&#45;&gt;2</title>
<path fill="none" stroke="#0000ff" d="M177.4929,-271.45C159.6029,-265.32 135.2429,-255.62 116.0429,-243 104.2489,-235.25 92.7649,-224.7 83.5189,-215.2"/>
<polygon fill="#0000ff" stroke="#0000ff" points="86.0257,-212.7567 76.6199,-207.88 80.9316,-217.5578 86.0257,-212.7567"/>
<text text-anchor="middle" x="125.0429" y="-233.6" font-family="Calibri" font-size="8.00" fill="#000000">0.4</text>
</g>
<!-- 3&#45;&gt;1 -->
<g id="edge16" class="edge">
<title>3&#45;&gt;1</title>
<path fill="none" stroke="#0000ff" d="M215.6529,-263.14C231.4729,-242.71 254.0729,-206.01 243.0429,-174 236.8829,-156.14 223.9829,-139.36 212.3429,-126.83"/>
<polygon fill="#0000ff" stroke="#0000ff" points="214.8001,-124.3364 205.3229,-119.6 209.778,-129.2127 214.8001,-124.3364"/>
<text text-anchor="middle" x="254.0429" y="-190.1" font-family="Calibri" font-size="8.00" fill="#000000">0.3</text>
</g>
<!-- 3&#45;&gt;3 -->
<g id="edge17" class="edge">
<title>3&#45;&gt;3</title>
<path fill="none" stroke="#0000ff" d="M226.5729,-286.75C237.5429,-287.49 247.0429,-284.91 247.0429,-279 247.0429,-275.03 242.7529,-272.56 236.6129,-271.59"/>
<polygon fill="#0000ff" stroke="#0000ff" points="236.6857,-268.0906 226.5729,-271.25 236.4487,-275.0865 236.6857,-268.0906"/>
<text text-anchor="middle" x="256.0429" y="-277.1" font-family="Calibri" font-size="8.00" fill="#000000">0.3</text>
</g>
</g>
</svg>
