<?xml version="1.0" encoding="UTF-8" standalone="no"?>
<!DOCTYPE svg PUBLIC "-//W3C//DTD SVG 1.1//EN"
 "http://www.w3.org/Graphics/SVG/1.1/DTD/svg11.dtd">
<!-- Generated by graphviz version 2.40.1 (20161225.0304)
 -->
<!-- Pages: 1 -->
<svg width="180pt" height="305pt"
 viewBox="0.00 0.00 180.02 305.00" xmlns="http://www.w3.org/2000/svg" xmlns:xlink="http://www.w3.org/1999/xlink">
<g id="graph0" class="graph" transform="scale(1 1) rotate(0) translate(4 301)">
<polygon fill="#ffffff" stroke="transparent" points="-4,4 -4,-301 176.0218,-301 176.0218,4 -4,4"/>
<!-- 0 -->
<g id="node1" class="node">
<title>0</title>
<ellipse fill="none" stroke="#ff0000" cx="43.0198" cy="-18" rx="27" ry="18"/>
<text text-anchor="middle" x="43.0198" y="-15.5" font-family="Calibri" font-size="10.00" fill="#000000">0</text>
</g>
<!-- 0&#45;&gt;0 -->
<g id="edge1" class="edge">
<title>0&#45;&gt;0</title>
<path fill="none" stroke="#0000ff" d="M67.5528,-25.752C78.5278,-26.49 88.0198,-23.906 88.0198,-18 88.0198,-14.032 83.7348,-11.563 77.5938,-10.594"/>
<polygon fill="#0000ff" stroke="#0000ff" points="77.6674,-7.0946 67.5528,-10.248 77.4263,-14.0904 77.6674,-7.0946"/>
<text text-anchor="middle" x="97.0198" y="-16.1" font-family="Calibri" font-size="8.00" fill="#000000">1.0</text>
</g>
<!-- 1 -->
<g id="node2" class="node">
<title>1</title>
<ellipse fill="none" stroke="#ff0000" cx="61.0198" cy="-279" rx="27" ry="18"/>
<text text-anchor="middle" x="61.0198" y="-276.5" font-family="Calibri" font-size="10.00" fill="#000000">1</text>
</g>
<!-- 1&#45;&gt;0 -->
<g id="edge2" class="edge">
<title>1&#45;&gt;0</title>
<path fill="none" stroke="#0000ff" d="M46.7918,-263.4C35.8658,-250.26 21.7148,-230.39 16.0199,-210 0,-152.66 19.0049,-82.901 32.2838,-45.256"/>
<polygon fill="#0000ff" stroke="#0000ff" points="35.6943,-46.1208 35.8438,-35.527 29.1205,-43.7153 35.6943,-46.1208"/>
<text text-anchor="middle" x="19.0199" y="-146.6" font-family="Calibri" font-size="8.00" fill="#000000">0.2</text>
</g>
<!-- 1&#45;&gt;1 -->
<g id="edge3" class="edge">
<title>1&#45;&gt;1</title>
<path fill="none" stroke="#0000ff" d="M85.5528,-286.75C96.5278,-287.49 106.0198,-284.91 106.0198,-279 106.0198,-275.03 101.7348,-272.56 95.5938,-271.59"/>
<polygon fill="#0000ff" stroke="#0000ff" points="95.6656,-268.0905 85.5528,-271.25 95.4286,-275.0865 95.6656,-268.0905"/>
<text text-anchor="middle" x="115.0218" y="-277.1" font-family="Calibri" font-size="8.00" fill="#000000">0.4</text>
</g>
<!-- 2 -->
<g id="node3" class="node">
<title>2</title>
<ellipse fill="none" stroke="#ff0000" cx="52.0198" cy="-192" rx="27" ry="18"/>
<text text-anchor="middle" x="52.0198" y="-189.5" font-family="Calibri" font-size="10.00" fill="#000000">2</text>
</g>
<!-- 1&#45;&gt;2 -->
<g id="edge4" class="edge">
<title>1&#45;&gt;2</title>
<path fill="none" stroke="#0000ff" d="M50.1438,-262.47C46.8598,-256.57 43.6848,-249.72 42.0198,-243 40.1408,-235.41 40.6778,-227.12 42.2118,-219.47"/>
<polygon fill="#0000ff" stroke="#0000ff" points="45.6594,-220.1189 44.7878,-209.56 38.8845,-218.3578 45.6594,-220.1189"/>
<text text-anchor="middle" x="51.0198" y="-233.6" font-family="Calibri" font-size="8.00" fill="#000000">0.2</text>
</g>
<!-- 3 -->
<g id="node4" class="node">
<title>3</title>
<ellipse fill="none" stroke="#ff0000" cx="112.0218" cy="-105" rx="27" ry="18"/>
<text text-anchor="middle" x="112.0218" y="-102.5" font-family="Calibri" font-size="10.00" fill="#000000">3</text>
</g>
<!-- 1&#45;&gt;3 -->
<g id="edge5" class="edge">
<title>1&#45;&gt;3</title>
<path fill="none" stroke="#0000ff" d="M79.3498,-265.47C94.5658,-253 115.1018,-232.99 124.0218,-210 133.7518,-184.9 128.3818,-154.07 122.0318,-132.33"/>
<polygon fill="#0000ff" stroke="#0000ff" points="125.35,-131.2149 118.9918,-122.74 118.6773,-133.3302 125.35,-131.2149"/>
<text text-anchor="middle" x="138.0218" y="-190.1" font-family="Calibri" font-size="8.00" fill="#000000">0.2</text>
</g>
<!-- 2&#45;&gt;0 -->
<g id="edge6" class="edge">
<title>2&#45;&gt;0</title>
<path fill="none" stroke="#0000ff" d="M51.0738,-173.71C49.5028,-143.34 46.3468,-82.323 44.4858,-46.346"/>
<polygon fill="#0000ff" stroke="#0000ff" points="47.9651,-45.8531 43.9538,-36.047 40.9744,-46.2143 47.9651,-45.8531"/>
<text text-anchor="middle" x="57.0198" y="-103.1" font-family="Calibri" font-size="8.00" fill="#000000">0.3</text>
</g>
<!-- 2&#45;&gt;1 -->
<g id="edge7" class="edge">
<title>2&#45;&gt;1</title>
<path fill="none" stroke="#0000ff" d="M56.7168,-209.82C58.0358,-215.58 59.3048,-222.02 60.0198,-228 60.9068,-235.41 61.3188,-243.47 61.4708,-250.95"/>
<polygon fill="#0000ff" stroke="#0000ff" points="57.9711,-251.0236 61.5378,-261 64.971,-250.9769 57.9711,-251.0236"/>
<text text-anchor="middle" x="70.0198" y="-233.6" font-family="Calibri" font-size="8.00" fill="#000000">0.3</text>
</g>
<!-- 2&#45;&gt;2 -->
<g id="edge8" class="edge">
<title>2&#45;&gt;2</title>
<path fill="none" stroke="#0000ff" d="M76.5528,-199.75C87.5278,-200.49 97.0198,-197.91 97.0198,-192 97.0198,-188.03 92.7348,-185.56 86.5938,-184.59"/>
<polygon fill="#0000ff" stroke="#0000ff" points="86.6656,-181.0905 76.5528,-184.25 86.4286,-188.0865 86.6656,-181.0905"/>
<text text-anchor="middle" x="106.0198" y="-190.1" font-family="Calibri" font-size="8.00" fill="#000000">0.2</text>
</g>
<!-- 2&#45;&gt;3 -->
<g id="edge9" class="edge">
<title>2&#45;&gt;3</title>
<path fill="none" stroke="#0000ff" d="M59.0698,-174.24C63.5028,-164.07 69.7528,-151.32 77.0198,-141 80.4928,-136.07 84.6448,-131.17 88.8548,-126.66"/>
<polygon fill="#0000ff" stroke="#0000ff" points="91.3969,-129.0664 95.8868,-119.47 86.3925,-124.172 91.3969,-129.0664"/>
<text text-anchor="middle" x="86.0198" y="-146.6" font-family="Calibri" font-size="8.00" fill="#000000">0.2</text>
</g>
<!-- 3&#45;&gt;0 -->
<g id="edge10" class="edge">
<title>3&#45;&gt;0</title>
<path fill="none" stroke="#0000ff" d="M99.3638,-89.043C88.9258,-75.881 73.9538,-57.004 62.0668,-42.016"/>
<polygon fill="#0000ff" stroke="#0000ff" points="64.7851,-39.8109 55.8288,-34.151 59.3007,-44.1608 64.7851,-39.8109"/>
<text text-anchor="middle" x="90.0198" y="-59.6" font-family="Calibri" font-size="8.00" fill="#000000">0.5</text>
</g>
<!-- 3&#45;&gt;2 -->
<g id="edge11" class="edge">
<title>3&#45;&gt;2</title>
<path fill="none" stroke="#0000ff" d="M108.5628,-123.09C105.9928,-133.38 101.7428,-146.13 95.0198,-156 90.8008,-162.2 85.2298,-167.92 79.5008,-172.9"/>
<polygon fill="#0000ff" stroke="#0000ff" points="77.2828,-170.1924 71.7048,-179.2 81.6825,-175.6369 77.2828,-170.1924"/>
<text text-anchor="middle" x="111.0218" y="-146.6" font-family="Calibri" font-size="8.00" fill="#000000">0.3</text>
</g>
<!-- 3&#45;&gt;3 -->
<g id="edge12" class="edge">
<title>3&#45;&gt;3</title>
<path fill="none" stroke="#0000ff" d="M136.5518,-112.75C147.5318,-113.49 157.0218,-110.91 157.0218,-105 157.0218,-101.03 152.7318,-98.563 146.5918,-97.594"/>
<polygon fill="#0000ff" stroke="#0000ff" points="146.6664,-94.0946 136.5518,-97.248 146.4253,-101.0904 146.6664,-94.0946"/>
<text text-anchor="middle" x="166.0218" y="-103.1" font-family="Calibri" font-size="8.00" fill="#000000">0.2</text>
</g>
</g>
</svg>
