<?xml version="1.0" encoding="UTF-8" standalone="no"?>
<!DOCTYPE svg PUBLIC "-//W3C//DTD SVG 1.1//EN"
 "http://www.w3.org/Graphics/SVG/1.1/DTD/svg11.dtd">
<!-- Generated by graphviz version 2.40.1 (20161225.0304)
 -->
<!-- Pages: 1 -->
<svg width="563pt" height="479pt"
 viewBox="0.00 0.00 563.15 479.00" xmlns="http://www.w3.org/2000/svg" xmlns:xlink="http://www.w3.org/1999/xlink">
<g id="graph0" class="graph" transform="scale(1 1) rotate(0) translate(4 475)">
<polygon fill="#ffffff" stroke="transparent" points="-4,4 -4,-475 559.1515,-475 559.1515,4 -4,4"/>
<!-- 1 -->
<g id="node1" class="node">
<title>1</title>
<ellipse fill="none" stroke="#ff0000" cx="445.1515" cy="-453" rx="27" ry="18"/>
<text text-anchor="middle" x="445.1515" y="-450.5" font-family="Calibri" font-size="10.00" fill="#000000">1</text>
</g>
<!-- 2 -->
<g id="node2" class="node">
<title>2</title>
<ellipse fill="none" stroke="#ff0000" cx="317.1515" cy="-366" rx="27" ry="18"/>
<text text-anchor="middle" x="317.1515" y="-363.5" font-family="Calibri" font-size="10.00" fill="#000000">2</text>
</g>
<!-- 1&#45;&gt;2 -->
<g id="edge1" class="edge">
<title>1&#45;&gt;2</title>
<path fill="none" stroke="#0000ff" d="M423.6815,-441.75C411.2815,-435 395.5315,-426 382.1515,-417 368.3215,-407.7 353.6615,-396.33 341.7615,-386.7"/>
<polygon fill="#0000ff" stroke="#0000ff" points="343.9726,-383.9868 334.0215,-380.35 339.5327,-389.3986 343.9726,-383.9868"/>
<text text-anchor="middle" x="391.1515" y="-407.6" font-family="Calibri" font-size="8.00" fill="#000000">0.5</text>
</g>
<!-- 4 -->
<g id="node3" class="node">
<title>4</title>
<ellipse fill="none" stroke="#ff0000" cx="418.1515" cy="-18" rx="27" ry="18"/>
<text text-anchor="middle" x="418.1515" y="-15.5" font-family="Calibri" font-size="10.00" fill="#000000">4</text>
</g>
<!-- 1&#45;&gt;4 -->
<g id="edge2" class="edge">
<title>1&#45;&gt;4</title>
<path fill="none" stroke="#0000ff" d="M458.5215,-437.16C471.1415,-420.54 488.1515,-393.13 488.1515,-366 488.1515,-366 488.1515,-366 488.1515,-105 488.1515,-76.672 465.3415,-52.337 445.7715,-36.667"/>
<polygon fill="#0000ff" stroke="#0000ff" points="447.7307,-33.7599 437.6515,-30.495 443.4948,-39.3328 447.7307,-33.7599"/>
<text text-anchor="middle" x="497.1515" y="-233.6" font-family="Calibri" font-size="8.00" fill="#000000">0.5</text>
</g>
<!-- 2&#45;&gt;1 -->
<g id="edge3" class="edge">
<title>2&#45;&gt;1</title>
<path fill="none" stroke="#0000ff" d="M341.8715,-373.51C359.2115,-379.52 382.3615,-389.07 400.1515,-402 410.2415,-409.34 419.6715,-419.3 427.2615,-428.48"/>
<polygon fill="#0000ff" stroke="#0000ff" points="424.7304,-430.9217 433.6815,-436.59 430.2189,-426.5769 424.7304,-430.9217"/>
<text text-anchor="middle" x="432.6515" y="-407.6" font-family="Calibri" font-size="8.00" fill="#000000">0.333</text>
</g>
<!-- 3 -->
<g id="node4" class="node">
<title>3</title>
<ellipse fill="none" stroke="#ff0000" cx="80.1515" cy="-105" rx="27" ry="18"/>
<text text-anchor="middle" x="80.1515" y="-102.5" font-family="Calibri" font-size="10.00" fill="#000000">3</text>
</g>
<!-- 2&#45;&gt;3 -->
<g id="edge4" class="edge">
<title>2&#45;&gt;3</title>
<path fill="none" stroke="#0000ff" d="M290.1415,-365.63C229.8915,-364.29 86.8595,-358.16 49.1515,-330 10.2643,-300.96 0,-275.46 10.1511,-228 19.0135,-186.56 26.4215,-176.76 49.1515,-141 51.9545,-136.59 55.2705,-132.15 58.6725,-127.98"/>
<polygon fill="#0000ff" stroke="#0000ff" points="61.3612,-130.2212 65.2095,-120.35 56.0454,-125.6669 61.3612,-130.2212"/>
<text text-anchor="middle" x="25.6515" y="-233.6" font-family="Calibri" font-size="8.00" fill="#000000">0.333</text>
</g>
<!-- 5 -->
<g id="node5" class="node">
<title>5</title>
<ellipse fill="none" stroke="#ff0000" cx="320.1515" cy="-279" rx="27" ry="18"/>
<text text-anchor="middle" x="320.1515" y="-276.5" font-family="Calibri" font-size="10.00" fill="#000000">5</text>
</g>
<!-- 2&#45;&gt;5 -->
<g id="edge5" class="edge">
<title>2&#45;&gt;5</title>
<path fill="none" stroke="#0000ff" d="M303.4115,-350.28C296.4415,-340.38 290.2015,-327.2 294.1515,-315 295.5115,-310.79 297.5715,-306.66 299.9415,-302.78"/>
<polygon fill="#0000ff" stroke="#0000ff" points="303.0146,-304.4924 305.8715,-294.29 297.2759,-300.484 303.0146,-304.4924"/>
<text text-anchor="middle" x="309.6515" y="-320.6" font-family="Calibri" font-size="8.00" fill="#000000">0.333</text>
</g>
<!-- 4&#45;&gt;1 -->
<g id="edge6" class="edge">
<title>4&#45;&gt;1</title>
<path fill="none" stroke="#0000ff" d="M443.0615,-25.265C475.7915,-36.522 529.1515,-61.54 529.1515,-105 529.1515,-366 529.1515,-366 529.1515,-366 529.1515,-397.65 500.0215,-422.19 476.0715,-437.02"/>
<polygon fill="#0000ff" stroke="#0000ff" points="474.0635,-434.1406 467.2215,-442.23 477.6147,-440.1729 474.0635,-434.1406"/>
<text text-anchor="middle" x="544.6515" y="-233.6" font-family="Calibri" font-size="8.00" fill="#000000">0.333</text>
</g>
<!-- 4&#45;&gt;5 -->
<g id="edge7" class="edge">
<title>4&#45;&gt;5</title>
<path fill="none" stroke="#0000ff" d="M423.5515,-35.786C434.9115,-77.097 456.4415,-180.75 408.1515,-243 395.6915,-259.07 374.8415,-268.01 356.5715,-272.96"/>
<polygon fill="#0000ff" stroke="#0000ff" points="355.6568,-269.5801 346.7515,-275.32 357.2925,-276.3863 355.6568,-269.5801"/>
<text text-anchor="middle" x="454.6515" y="-146.6" font-family="Calibri" font-size="8.00" fill="#000000">0.333</text>
</g>
<!-- 7 -->
<g id="node6" class="node">
<title>7</title>
<ellipse fill="none" stroke="#ff0000" cx="329.1515" cy="-105" rx="27" ry="18"/>
<text text-anchor="middle" x="329.1515" y="-102.5" font-family="Calibri" font-size="10.00" fill="#000000">7</text>
</g>
<!-- 4&#45;&gt;7 -->
<g id="edge8" class="edge">
<title>4&#45;&gt;7</title>
<path fill="none" stroke="#0000ff" d="M393.6515,-25.817C379.0415,-31.575 361.0715,-40.731 349.1515,-54 343.2815,-60.539 339.0415,-69.004 336.0215,-77.152"/>
<polygon fill="#0000ff" stroke="#0000ff" points="332.6541,-76.1903 332.9115,-86.782 339.3154,-78.3416 332.6541,-76.1903"/>
<text text-anchor="middle" x="364.6515" y="-59.6" font-family="Calibri" font-size="8.00" fill="#000000">0.333</text>
</g>
<!-- 3&#45;&gt;2 -->
<g id="edge9" class="edge">
<title>3&#45;&gt;2</title>
<path fill="none" stroke="#0000ff" d="M78.6915,-123.18C78.5785,-133.25 79.6185,-145.77 84.1515,-156 125.9815,-250.41 233.6715,-320.17 286.7115,-350"/>
<polygon fill="#0000ff" stroke="#0000ff" points="285.2061,-353.1669 295.6515,-354.94 288.5916,-347.0401 285.2061,-353.1669"/>
<text text-anchor="middle" x="153.1515" y="-233.6" font-family="Calibri" font-size="8.00" fill="#000000">0.5</text>
</g>
<!-- 6 -->
<g id="node7" class="node">
<title>6</title>
<ellipse fill="none" stroke="#ff0000" cx="191.1515" cy="-192" rx="27" ry="18"/>
<text text-anchor="middle" x="191.1515" y="-189.5" font-family="Calibri" font-size="10.00" fill="#000000">6</text>
</g>
<!-- 3&#45;&gt;6 -->
<g id="edge10" class="edge">
<title>3&#45;&gt;6</title>
<path fill="none" stroke="#0000ff" d="M82.2575,-123.04C84.3795,-133.82 88.6335,-147.1 97.1515,-156 112.3815,-171.91 135.3915,-180.88 154.8415,-185.89"/>
<polygon fill="#0000ff" stroke="#0000ff" points="154.0891,-189.3083 164.6215,-188.16 155.6718,-182.4896 154.0891,-189.3083"/>
<text text-anchor="middle" x="106.1515" y="-146.6" font-family="Calibri" font-size="8.00" fill="#000000">0.5</text>
</g>
<!-- 5&#45;&gt;2 -->
<g id="edge11" class="edge">
<title>5&#45;&gt;2</title>
<path fill="none" stroke="#0000ff" d="M323.7315,-296.95C325.2215,-306.73 326.3515,-319.03 325.1515,-330 324.8515,-332.71 324.4315,-335.52 323.9415,-338.31"/>
<polygon fill="#0000ff" stroke="#0000ff" points="320.4977,-337.6813 321.9215,-348.18 327.3555,-339.0849 320.4977,-337.6813"/>
<text text-anchor="middle" x="338.6515" y="-320.6" font-family="Calibri" font-size="8.00" fill="#000000">0.25</text>
</g>
<!-- 5&#45;&gt;4 -->
<g id="edge12" class="edge">
<title>5&#45;&gt;4</title>
<path fill="none" stroke="#0000ff" d="M339.1415,-265.8C346.6915,-259.67 354.8215,-251.79 360.1515,-243 398.7015,-179.43 411.8115,-90.773 416.1215,-46.1"/>
<polygon fill="#0000ff" stroke="#0000ff" points="419.6213,-46.2569 417.0215,-35.986 412.6488,-45.6364 419.6213,-46.2569"/>
<text text-anchor="middle" x="412.6515" y="-146.6" font-family="Calibri" font-size="8.00" fill="#000000">0.25</text>
</g>
<!-- 5&#45;&gt;6 -->
<g id="edge13" class="edge">
<title>5&#45;&gt;6</title>
<path fill="none" stroke="#0000ff" d="M293.7415,-275.09C260.6015,-269.59 206.5615,-258.49 194.1515,-243 189.0015,-236.58 187.1915,-228.11 186.9815,-219.92"/>
<polygon fill="#0000ff" stroke="#0000ff" points="190.4806,-220.0166 187.4315,-209.87 183.4876,-219.7034 190.4806,-220.0166"/>
<text text-anchor="middle" x="206.6515" y="-233.6" font-family="Calibri" font-size="8.00" fill="#000000">0.25</text>
</g>
<!-- 8 -->
<g id="node8" class="node">
<title>8</title>
<ellipse fill="none" stroke="#ff0000" cx="299.1515" cy="-192" rx="27" ry="18"/>
<text text-anchor="middle" x="299.1515" y="-189.5" font-family="Calibri" font-size="10.00" fill="#000000">8</text>
</g>
<!-- 5&#45;&gt;8 -->
<g id="edge14" class="edge">
<title>5&#45;&gt;8</title>
<path fill="none" stroke="#0000ff" d="M307.2515,-263.12C303.1915,-257.17 299.2315,-250.12 297.1515,-243 295.0615,-235.83 294.5615,-227.86 294.8315,-220.38"/>
<polygon fill="#0000ff" stroke="#0000ff" points="298.3308,-220.5278 295.6415,-210.28 291.3532,-219.9682 298.3308,-220.5278"/>
<text text-anchor="middle" x="309.6515" y="-233.6" font-family="Calibri" font-size="8.00" fill="#000000">0.25</text>
</g>
<!-- 7&#45;&gt;4 -->
<g id="edge15" class="edge">
<title>7&#45;&gt;4</title>
<path fill="none" stroke="#0000ff" d="M319.2815,-88.057C314.5115,-77.438 311.1715,-63.93 318.1515,-54 325.8315,-43.072 356.8115,-32.99 382.2815,-26.292"/>
<polygon fill="#0000ff" stroke="#0000ff" points="383.2297,-29.6624 392.0615,-23.81 381.5078,-22.8775 383.2297,-29.6624"/>
<text text-anchor="middle" x="327.1515" y="-59.6" font-family="Calibri" font-size="8.00" fill="#000000">0.5</text>
</g>
<!-- 7&#45;&gt;8 -->
<g id="edge16" class="edge">
<title>7&#45;&gt;8</title>
<path fill="none" stroke="#0000ff" d="M333.2415,-123.02C334.6915,-133.05 335.1215,-145.56 331.1515,-156 329.2715,-160.95 326.3515,-165.66 323.0415,-169.94"/>
<polygon fill="#0000ff" stroke="#0000ff" points="320.2944,-167.7642 316.3315,-177.59 325.5569,-172.3801 320.2944,-167.7642"/>
<text text-anchor="middle" x="343.1515" y="-146.6" font-family="Calibri" font-size="8.00" fill="#000000">0.5</text>
</g>
<!-- 6&#45;&gt;3 -->
<g id="edge17" class="edge">
<title>6&#45;&gt;3</title>
<path fill="none" stroke="#0000ff" d="M173.3215,-178.02C155.1115,-163.75 126.6715,-141.46 105.9955,-125.26"/>
<polygon fill="#0000ff" stroke="#0000ff" points="107.9684,-122.3593 97.9405,-118.94 103.6474,-127.8665 107.9684,-122.3593"/>
<text text-anchor="middle" x="158.6515" y="-146.6" font-family="Calibri" font-size="8.00" fill="#000000">0.333</text>
</g>
<!-- 6&#45;&gt;5 -->
<g id="edge18" class="edge">
<title>6&#45;&gt;5</title>
<path fill="none" stroke="#0000ff" d="M208.9715,-205.91C222.7115,-216.44 242.3115,-231.09 260.1515,-243 269.9715,-249.56 280.9915,-256.33 290.8815,-262.2"/>
<polygon fill="#0000ff" stroke="#0000ff" points="289.1772,-265.2581 299.5715,-267.31 292.7255,-259.224 289.1772,-265.2581"/>
<text text-anchor="middle" x="275.6515" y="-233.6" font-family="Calibri" font-size="8.00" fill="#000000">0.333</text>
</g>
<!-- 9 -->
<g id="node9" class="node">
<title>9</title>
<ellipse fill="none" stroke="#ff0000" cx="201.1515" cy="-105" rx="27" ry="18"/>
<text text-anchor="middle" x="201.1515" y="-102.5" font-family="Calibri" font-size="10.00" fill="#000000">9</text>
</g>
<!-- 6&#45;&gt;9 -->
<g id="edge19" class="edge">
<title>6&#45;&gt;9</title>
<path fill="none" stroke="#0000ff" d="M190.5215,-173.99C190.4215,-164.19 190.7015,-151.89 192.1515,-141 192.5115,-138.28 193.0015,-135.47 193.5715,-132.67"/>
<polygon fill="#0000ff" stroke="#0000ff" points="197.0131,-133.3221 195.8615,-122.79 190.1939,-131.7414 197.0131,-133.3221"/>
<text text-anchor="middle" x="207.6515" y="-146.6" font-family="Calibri" font-size="8.00" fill="#000000">0.333</text>
</g>
<!-- 8&#45;&gt;5 -->
<g id="edge20" class="edge">
<title>8&#45;&gt;5</title>
<path fill="none" stroke="#0000ff" d="M312.0515,-207.88C316.1115,-213.83 320.0715,-220.88 322.1515,-228 324.2415,-235.17 324.7415,-243.14 324.4715,-250.62"/>
<polygon fill="#0000ff" stroke="#0000ff" points="320.9723,-250.4695 323.6515,-260.72 327.9493,-251.0361 320.9723,-250.4695"/>
<text text-anchor="middle" x="340.6515" y="-233.6" font-family="Calibri" font-size="8.00" fill="#000000">0.333</text>
</g>
<!-- 8&#45;&gt;7 -->
<g id="edge21" class="edge">
<title>8&#45;&gt;7</title>
<path fill="none" stroke="#0000ff" d="M294.4815,-173.96C292.7615,-163.93 292.1015,-151.42 296.1515,-141 298.1915,-135.77 301.3815,-130.83 304.9915,-126.39"/>
<polygon fill="#0000ff" stroke="#0000ff" points="307.6155,-128.7071 311.7915,-118.97 302.4548,-123.9777 307.6155,-128.7071"/>
<text text-anchor="middle" x="311.6515" y="-146.6" font-family="Calibri" font-size="8.00" fill="#000000">0.333</text>
</g>
<!-- 8&#45;&gt;9 -->
<g id="edge22" class="edge">
<title>8&#45;&gt;9</title>
<path fill="none" stroke="#0000ff" d="M282.5315,-177.24C266.8015,-163.28 243.0315,-142.18 225.2315,-126.38"/>
<polygon fill="#0000ff" stroke="#0000ff" points="227.3322,-123.5646 217.5315,-119.54 222.6833,-128.798 227.3322,-123.5646"/>
<text text-anchor="middle" x="271.6515" y="-146.6" font-family="Calibri" font-size="8.00" fill="#000000">0.333</text>
</g>
<!-- 9&#45;&gt;9 -->
<g id="edge23" class="edge">
<title>9&#45;&gt;9</title>
<path fill="none" stroke="#0000ff" d="M225.6815,-112.75C236.6615,-113.49 246.1515,-110.91 246.1515,-105 246.1515,-101.03 241.8615,-98.563 235.7215,-97.594"/>
<polygon fill="#0000ff" stroke="#0000ff" points="235.7961,-94.0946 225.6815,-97.248 235.555,-101.0904 235.7961,-94.0946"/>
<text text-anchor="middle" x="255.1515" y="-103.1" font-family="Calibri" font-size="8.00" fill="#000000">1.0</text>
</g>
</g>
</svg>
