<?xml version="1.0" encoding="UTF-8" standalone="no"?>
<!DOCTYPE svg PUBLIC "-//W3C//DTD SVG 1.1//EN"
 "http://www.w3.org/Graphics/SVG/1.1/DTD/svg11.dtd">
<!-- Generated by graphviz version 2.40.1 (20161225.0304)
 -->
<!-- Pages: 1 -->
<svg width="2230pt" height="933pt"
 viewBox="0.00 0.00 2229.50 932.64" xmlns="http://www.w3.org/2000/svg" xmlns:xlink="http://www.w3.org/1999/xlink">
<g id="graph0" class="graph" transform="scale(1 1) rotate(0) translate(4 928.6396)">
<polygon fill="#ffffff" stroke="transparent" points="-4,4 -4,-928.6396 2225.504,-928.6396 2225.504,4 -4,4"/>
<!-- 2 -->
<g id="node1" class="node">
<title>2</title>
<ellipse fill="none" stroke="#ff0000" cx="1021.454" cy="-895.6296" rx="27" ry="18"/>
<text text-anchor="middle" x="1021.454" y="-893.1296" font-family="Calibri" font-size="10.00" fill="#000000">2</text>
</g>
<!-- 2&#45;&gt;2 -->
<g id="edge1" class="edge">
<title>2&#45;&gt;2</title>
<path fill="none" stroke="#0000ff" d="M1046.004,-903.3796C1057.004,-904.1196 1066.504,-901.5396 1066.504,-895.6296 1066.504,-891.6596 1062.204,-889.1896 1056.004,-888.2196"/>
<polygon fill="#0000ff" stroke="#0000ff" points="1056.1172,-884.7215 1046.004,-887.8796 1055.8793,-891.7175 1056.1172,-884.7215"/>
<text text-anchor="middle" x="1082.004" y="-893.7296" font-family="Calibri" font-size="8.00" fill="#000000">0.028</text>
</g>
<!-- 3 -->
<g id="node2" class="node">
<title>3</title>
<ellipse fill="none" stroke="#ff0000" cx="967.454" cy="-808.6296" rx="27" ry="18"/>
<text text-anchor="middle" x="967.454" y="-806.1296" font-family="Calibri" font-size="10.00" fill="#000000">3</text>
</g>
<!-- 2&#45;&gt;3 -->
<g id="edge2" class="edge">
<title>2&#45;&gt;3</title>
<path fill="none" stroke="#0000ff" d="M1015.424,-877.9396C1011.584,-867.7896 1006.084,-855.0396 999.454,-844.6296 996.554,-840.0696 993.084,-835.5196 989.504,-831.2696"/>
<polygon fill="#0000ff" stroke="#0000ff" points="991.8866,-828.6811 982.634,-823.5196 986.6484,-833.3245 991.8866,-828.6811"/>
<text text-anchor="middle" x="1022.954" y="-850.2296" font-family="Calibri" font-size="8.00" fill="#000000">0.056</text>
</g>
<!-- 4 -->
<g id="node3" class="node">
<title>4</title>
<ellipse fill="none" stroke="#ff0000" cx="1497.504" cy="-112.6296" rx="27" ry="18"/>
<text text-anchor="middle" x="1497.504" y="-110.1296" font-family="Calibri" font-size="10.00" fill="#000000">4</text>
</g>
<!-- 2&#45;&gt;4 -->
<g id="edge3" class="edge">
<title>2&#45;&gt;4</title>
<path fill="none" stroke="#0000ff" d="M994.204,-895.3896C842.574,-893.9896 108.073,-885.8296 68.456,-859.6296 47.562,-845.8096 44.4563,-833.6796 44.4563,-808.6296 44.4563,-808.6296 44.4563,-808.6296 44.4563,-547.6296 44.4563,-360.4196 0,-201.9496 179.454,-148.6296 225.794,-134.8596 1001.134,-132.0996 1049.504,-130.6296 1202.004,-125.9896 1383.604,-117.8996 1460.304,-114.3696"/>
<polygon fill="#0000ff" stroke="#0000ff" points="1460.5775,-117.8608 1470.404,-113.8996 1460.2521,-110.8683 1460.5775,-117.8608"/>
<text text-anchor="middle" x="59.956" y="-502.2296" font-family="Calibri" font-size="8.00" fill="#000000">0.083</text>
</g>
<!-- 5 -->
<g id="node4" class="node">
<title>5</title>
<ellipse fill="none" stroke="#ff0000" cx="786.454" cy="-199.6296" rx="27" ry="18"/>
<text text-anchor="middle" x="786.454" y="-197.1296" font-family="Calibri" font-size="10.00" fill="#000000">5</text>
</g>
<!-- 2&#45;&gt;5 -->
<g id="edge4" class="edge">
<title>2&#45;&gt;5</title>
<path fill="none" stroke="#0000ff" d="M994.074,-894.9696C872.864,-891.9596 387.674,-878.7996 322.454,-859.6296 278.714,-846.7696 233.454,-854.2196 233.454,-808.6296 233.454,-808.6296 233.454,-808.6296 233.454,-591.1296 233.454,-416.3796 241.244,-305.4096 401.454,-235.6296 463.284,-208.6996 665.194,-201.8696 749.224,-200.1696"/>
<polygon fill="#0000ff" stroke="#0000ff" points="749.4115,-203.6668 759.344,-199.9796 749.28,-196.668 749.4115,-203.6668"/>
<text text-anchor="middle" x="249.954" y="-545.7296" font-family="Calibri" font-size="8.00" fill="#000000">0.111</text>
</g>
<!-- 6 -->
<g id="node5" class="node">
<title>6</title>
<ellipse fill="none" stroke="#ff0000" cx="1034.454" cy="-286.6296" rx="27" ry="18"/>
<text text-anchor="middle" x="1034.454" y="-284.1296" font-family="Calibri" font-size="10.00" fill="#000000">6</text>
</g>
<!-- 2&#45;&gt;6 -->
<g id="edge5" class="edge">
<title>2&#45;&gt;6</title>
<path fill="none" stroke="#0000ff" d="M994.094,-894.9096C870.904,-891.5596 372.524,-876.9696 344.454,-859.6296 322.274,-845.9196 315.454,-834.6996 315.454,-808.6296 315.454,-808.6296 315.454,-808.6296 315.454,-634.6296 315.454,-567.6696 370.324,-570.3696 402.454,-511.6296 418.344,-482.5896 406.934,-465.9096 430.454,-442.6296 534.004,-340.1796 594.224,-358.2896 735.454,-322.6296 827.804,-299.3096 940.124,-290.9496 997.234,-288.0696"/>
<polygon fill="#0000ff" stroke="#0000ff" points="997.4133,-291.5651 1007.234,-287.5896 997.0777,-284.5732 997.4133,-291.5651"/>
<text text-anchor="middle" x="348.954" y="-589.2296" font-family="Calibri" font-size="8.00" fill="#000000">0.139</text>
</g>
<!-- 7 -->
<g id="node6" class="node">
<title>7</title>
<ellipse fill="none" stroke="#ff0000" cx="1493.504" cy="-373.6296" rx="27" ry="18"/>
<text text-anchor="middle" x="1493.504" y="-371.1296" font-family="Calibri" font-size="10.00" fill="#000000">7</text>
</g>
<!-- 2&#45;&gt;7 -->
<g id="edge6" class="edge">
<title>2&#45;&gt;7</title>
<path fill="none" stroke="#0000ff" d="M1048.704,-894.8296C1162.804,-891.3596 1599.404,-877.0396 1658.504,-859.6296 1686.904,-851.2396 1695.004,-847.1096 1716.504,-826.6296 1822.504,-725.3596 1792.904,-622.9996 1718.504,-496.6296 1690.404,-448.9696 1680.004,-432.0096 1629.504,-409.6296 1597.204,-395.3496 1558.004,-385.7196 1530.004,-380.0396"/>
<polygon fill="#0000ff" stroke="#0000ff" points="1530.2892,-376.5293 1519.804,-378.0496 1528.9487,-383.3998 1530.2892,-376.5293"/>
<text text-anchor="middle" x="1798.004" y="-632.7296" font-family="Calibri" font-size="8.00" fill="#000000">0.167</text>
</g>
<!-- 8 -->
<g id="node7" class="node">
<title>8</title>
<ellipse fill="none" stroke="#ff0000" cx="823.454" cy="-460.6296" rx="27" ry="18"/>
<text text-anchor="middle" x="823.454" y="-458.1296" font-family="Calibri" font-size="10.00" fill="#000000">8</text>
</g>
<!-- 2&#45;&gt;8 -->
<g id="edge7" class="edge">
<title>2&#45;&gt;8</title>
<path fill="none" stroke="#0000ff" d="M996.194,-888.9596C931.494,-870.1996 762.454,-810.0096 727.454,-685.6296 703.794,-601.5296 729.864,-567.1296 781.454,-496.6296 785.724,-490.7996 791.114,-485.2796 796.594,-480.3996"/>
<polygon fill="#0000ff" stroke="#0000ff" points="799.128,-482.8436 804.564,-473.7496 794.6434,-477.4688 799.128,-482.8436"/>
<text text-anchor="middle" x="742.954" y="-676.2296" font-family="Calibri" font-size="8.00" fill="#000000">0.139</text>
</g>
<!-- 9 -->
<g id="node8" class="node">
<title>9</title>
<ellipse fill="none" stroke="#ff0000" cx="1310.504" cy="-547.6296" rx="27" ry="18"/>
<text text-anchor="middle" x="1310.504" y="-545.1296" font-family="Calibri" font-size="10.00" fill="#000000">9</text>
</g>
<!-- 2&#45;&gt;9 -->
<g id="edge8" class="edge">
<title>2&#45;&gt;9</title>
<path fill="none" stroke="#0000ff" d="M1048.504,-894.8296C1155.304,-891.5396 1543.704,-878.3796 1595.504,-859.6296 1649.604,-840.0096 1670.204,-826.1396 1691.504,-772.6296 1751.304,-622.0296 1453.704,-566.8396 1347.204,-552.0896"/>
<polygon fill="#0000ff" stroke="#0000ff" points="1347.5824,-548.609 1337.204,-550.7396 1346.6458,-555.5461 1347.5824,-548.609"/>
<text text-anchor="middle" x="1714.004" y="-719.7296" font-family="Calibri" font-size="8.00" fill="#000000">0.111</text>
</g>
<!-- 10 -->
<g id="node9" class="node">
<title>10</title>
<ellipse fill="none" stroke="#ff0000" cx="1872.504" cy="-25.6296" rx="27" ry="18"/>
<text text-anchor="middle" x="1872.504" y="-23.1296" font-family="Calibri" font-size="10.00" fill="#000000">10</text>
</g>
<!-- 2&#45;&gt;10 -->
<g id="edge9" class="edge">
<title>2&#45;&gt;10</title>
<path fill="none" stroke="#0000ff" d="M1048.504,-895.0796C1224.004,-891.3696 2195.504,-868.1196 2195.504,-808.6296 2195.504,-808.6296 2195.504,-808.6296 2195.504,-112.6296 2195.504,-53.9526 1994.204,-33.7016 1909.404,-27.7736"/>
<polygon fill="#0000ff" stroke="#0000ff" points="1909.6154,-24.28 1899.404,-27.1046 1909.148,-31.2644 1909.6154,-24.28"/>
<text text-anchor="middle" x="2211.004" y="-458.7296" font-family="Calibri" font-size="8.00" fill="#000000">0.083</text>
</g>
<!-- 11 -->
<g id="node10" class="node">
<title>11</title>
<ellipse fill="none" stroke="#ff0000" cx="1302.504" cy="-634.6296" rx="27" ry="18"/>
<text text-anchor="middle" x="1302.504" y="-632.1296" font-family="Calibri" font-size="10.00" fill="#000000">11</text>
</g>
<!-- 2&#45;&gt;11 -->
<g id="edge10" class="edge">
<title>2&#45;&gt;11</title>
<path fill="none" stroke="#0000ff" d="M1048.804,-894.6796C1157.204,-890.8096 1552.304,-875.6496 1573.504,-859.6296 1643.804,-806.2596 1694.604,-735.2396 1634.504,-670.6296 1615.404,-650.1596 1411.104,-656.6696 1383.504,-652.6296 1368.304,-650.4196 1351.804,-646.9396 1337.604,-643.6296"/>
<polygon fill="#0000ff" stroke="#0000ff" points="1338.3455,-640.2082 1327.804,-641.2696 1336.7066,-647.0136 1338.3455,-640.2082"/>
<text text-anchor="middle" x="1672.004" y="-763.2296" font-family="Calibri" font-size="8.00" fill="#000000">0.056</text>
</g>
<!-- 12 -->
<g id="node11" class="node">
<title>12</title>
<ellipse fill="none" stroke="#ff0000" cx="1279.504" cy="-721.6296" rx="27" ry="18"/>
<text text-anchor="middle" x="1279.504" y="-719.1296" font-family="Calibri" font-size="10.00" fill="#000000">12</text>
</g>
<!-- 2&#45;&gt;12 -->
<g id="edge11" class="edge">
<title>2&#45;&gt;12</title>
<path fill="none" stroke="#0000ff" d="M1048.604,-894.9096C1109.104,-892.8496 1253.204,-885.3096 1293.504,-859.6296 1320.504,-842.3896 1321.904,-821.8096 1314.504,-790.6296 1310.804,-775.3296 1303.204,-759.5796 1295.904,-746.9996"/>
<polygon fill="#0000ff" stroke="#0000ff" points="1298.7144,-744.8767 1290.604,-738.0596 1292.693,-748.4465 1298.7144,-744.8767"/>
<text text-anchor="middle" x="1333.004" y="-806.7296" font-family="Calibri" font-size="8.00" fill="#000000">0.028</text>
</g>
<!-- 3&#45;&gt;2 -->
<g id="edge12" class="edge">
<title>3&#45;&gt;2</title>
<path fill="none" stroke="#0000ff" d="M961.844,-826.6696C959.724,-836.9396 958.974,-849.6896 964.454,-859.6296 969.804,-869.3396 979.004,-876.7896 988.464,-882.3296"/>
<polygon fill="#0000ff" stroke="#0000ff" points="987.0209,-885.5247 997.504,-887.0596 990.2662,-879.3224 987.0209,-885.5247"/>
<text text-anchor="middle" x="979.954" y="-850.2296" font-family="Calibri" font-size="8.00" fill="#000000">0.028</text>
</g>
<!-- 3&#45;&gt;3 -->
<g id="edge13" class="edge">
<title>3&#45;&gt;3</title>
<path fill="none" stroke="#0000ff" d="M991.984,-816.3796C1002.964,-817.1196 1012.454,-814.5396 1012.454,-808.6296 1012.454,-804.6596 1008.174,-802.1896 1002.034,-801.2196"/>
<polygon fill="#0000ff" stroke="#0000ff" points="1002.0967,-797.7198 991.984,-800.8796 1001.8599,-804.7158 1002.0967,-797.7198"/>
<text text-anchor="middle" x="1027.954" y="-806.7296" font-family="Calibri" font-size="8.00" fill="#000000">0.056</text>
</g>
<!-- 3&#45;&gt;4 -->
<g id="edge14" class="edge">
<title>3&#45;&gt;4</title>
<path fill="none" stroke="#0000ff" d="M940.274,-806.9696C853.234,-801.5596 584.884,-784.1196 547.454,-772.6296 518.734,-763.8196 512.414,-757.7596 488.454,-739.6296 444.844,-706.6396 437.704,-693.5696 401.454,-652.6296 375.644,-623.4796 374.694,-611.4596 347.454,-583.6296 338.624,-574.5996 333.504,-575.3696 325.454,-565.6296 297.474,-531.7396 290.284,-520.9596 278.454,-478.6296 253.244,-388.4096 233.234,-337.7496 296.454,-268.6296 348.734,-211.4796 373.944,-206.0296 447.454,-181.6296 565.544,-142.4396 601.454,-158.8696 725.454,-148.6296 870.784,-136.6296 1325.904,-119.0496 1459.904,-114.0196"/>
<polygon fill="#0000ff" stroke="#0000ff" points="1460.2413,-117.5096 1470.104,-113.6396 1459.9806,-110.5144 1460.2413,-117.5096"/>
<text text-anchor="middle" x="293.954" y="-458.7296" font-family="Calibri" font-size="8.00" fill="#000000">0.083</text>
</g>
<!-- 3&#45;&gt;5 -->
<g id="edge15" class="edge">
<title>3&#45;&gt;5</title>
<path fill="none" stroke="#0000ff" d="M941.044,-804.3496C915.214,-800.2896 874.724,-794.2896 839.454,-790.6296 780.304,-784.4896 626.534,-797.3796 572.454,-772.6296 535.594,-755.7596 332.534,-549.2696 317.454,-511.6296 293.084,-450.7896 366.634,-271.5496 421.454,-235.6296 448.484,-217.9196 662.154,-205.6596 749.474,-201.3396"/>
<polygon fill="#0000ff" stroke="#0000ff" points="749.6533,-204.8351 759.474,-200.8596 749.3177,-197.8432 749.6533,-204.8351"/>
<text text-anchor="middle" x="332.954" y="-502.2296" font-family="Calibri" font-size="8.00" fill="#000000">0.111</text>
</g>
<!-- 3&#45;&gt;6 -->
<g id="edge16" class="edge">
<title>3&#45;&gt;6</title>
<path fill="none" stroke="#0000ff" d="M941.024,-804.5696C915.174,-800.6796 874.664,-794.8096 839.454,-790.6296 798.224,-785.7396 685.644,-798.8696 653.454,-772.6296 611.174,-738.1496 601.754,-581.5696 618.454,-529.6296 656.884,-410.1796 695.584,-373.1396 810.454,-322.6296 843.314,-308.1796 942.924,-296.0596 997.584,-290.2696"/>
<polygon fill="#0000ff" stroke="#0000ff" points="997.9666,-293.7488 1007.554,-289.2396 997.2472,-286.7858 997.9666,-293.7488"/>
<text text-anchor="middle" x="633.954" y="-545.7296" font-family="Calibri" font-size="8.00" fill="#000000">0.139</text>
</g>
<!-- 3&#45;&gt;7 -->
<g id="edge17" class="edge">
<title>3&#45;&gt;7</title>
<path fill="none" stroke="#0000ff" d="M994.504,-806.9096C1047.304,-803.2196 1167.404,-793.1496 1266.504,-772.6296 1425.804,-739.6196 1492.604,-762.7396 1612.504,-652.6296 1658.004,-610.7996 1698.204,-587.8696 1677.504,-529.6296 1653.604,-462.5996 1630.404,-449.4696 1571.504,-409.6296 1557.704,-400.3396 1541.204,-392.3196 1526.904,-386.2196"/>
<polygon fill="#0000ff" stroke="#0000ff" points="1527.984,-382.8796 1517.404,-382.3196 1525.3256,-389.3551 1527.984,-382.8796"/>
<text text-anchor="middle" x="1693.004" y="-589.2296" font-family="Calibri" font-size="8.00" fill="#000000">0.167</text>
</g>
<!-- 3&#45;&gt;8 -->
<g id="edge18" class="edge">
<title>3&#45;&gt;8</title>
<path fill="none" stroke="#0000ff" d="M940.564,-805.7796C900.234,-800.9896 826.784,-790.0996 807.454,-772.6296 754.364,-724.6196 760.114,-687.8296 767.454,-616.6296 773.044,-562.4396 768.364,-545.4896 792.454,-496.6296 794.764,-491.9396 797.834,-487.3696 801.144,-483.1396"/>
<polygon fill="#0000ff" stroke="#0000ff" points="803.8348,-485.3783 807.664,-475.4996 798.5101,-480.8342 803.8348,-485.3783"/>
<text text-anchor="middle" x="782.954" y="-632.7296" font-family="Calibri" font-size="8.00" fill="#000000">0.139</text>
</g>
<!-- 3&#45;&gt;9 -->
<g id="edge19" class="edge">
<title>3&#45;&gt;9</title>
<path fill="none" stroke="#0000ff" d="M983.214,-793.6796C1023.814,-755.6396 1136.204,-653.2096 1241.504,-583.6296 1253.204,-575.8696 1266.804,-568.4596 1278.804,-562.4096"/>
<polygon fill="#0000ff" stroke="#0000ff" points="1280.5919,-565.4301 1288.004,-557.8596 1277.4887,-559.1555 1280.5919,-565.4301"/>
<text text-anchor="middle" x="1136.004" y="-676.2296" font-family="Calibri" font-size="8.00" fill="#000000">0.111</text>
</g>
<!-- 3&#45;&gt;10 -->
<g id="edge20" class="edge">
<title>3&#45;&gt;10</title>
<path fill="none" stroke="#0000ff" d="M940.444,-807.1096C848.484,-801.8596 550.954,-784.1596 509.454,-772.6296 415.954,-746.6496 250.724,-646.4996 219.454,-598.6296 117.187,-442.0796 100.59,-357.7396 163.454,-181.6296 228.294,0 387.984,-73.7476 580.454,-61.6296 834.194,-45.6536 1651.004,-29.7536 1835.304,-26.3126"/>
<polygon fill="#0000ff" stroke="#0000ff" points="1835.3709,-29.8121 1845.304,-26.1266 1835.2406,-22.8133 1835.3709,-29.8121"/>
<text text-anchor="middle" x="150.954" y="-415.2296" font-family="Calibri" font-size="8.00" fill="#000000">0.083</text>
</g>
<!-- 3&#45;&gt;11 -->
<g id="edge21" class="edge">
<title>3&#45;&gt;11</title>
<path fill="none" stroke="#0000ff" d="M994.524,-806.8196C1028.364,-803.6696 1087.304,-795.1696 1132.504,-772.6296 1174.504,-751.6496 1176.004,-733.2596 1212.504,-703.6296 1233.504,-686.5496 1257.904,-667.9096 1276.004,-654.3096"/>
<polygon fill="#0000ff" stroke="#0000ff" points="1278.4074,-656.8819 1284.304,-648.0796 1274.2052,-651.2835 1278.4074,-656.8819"/>
<text text-anchor="middle" x="1228.004" y="-719.7296" font-family="Calibri" font-size="8.00" fill="#000000">0.056</text>
</g>
<!-- 3&#45;&gt;12 -->
<g id="edge22" class="edge">
<title>3&#45;&gt;12</title>
<path fill="none" stroke="#0000ff" d="M994.504,-806.8296C1032.214,-803.5796 1102.204,-794.8796 1157.504,-772.6296 1168.804,-768.0696 1169.504,-763.0296 1180.504,-757.6296 1202.004,-746.9896 1208.904,-747.8496 1231.504,-739.6296 1236.104,-737.9296 1241.004,-736.1196 1245.904,-734.3196"/>
<polygon fill="#0000ff" stroke="#0000ff" points="1247.4651,-737.4725 1255.604,-730.6896 1245.0116,-730.9166 1247.4651,-737.4725"/>
<text text-anchor="middle" x="1196.004" y="-763.2296" font-family="Calibri" font-size="8.00" fill="#000000">0.028</text>
</g>
<!-- 4&#45;&gt;2 -->
<g id="edge23" class="edge">
<title>4&#45;&gt;2</title>
<path fill="none" stroke="#0000ff" d="M1470.404,-113.7796C1400.704,-116.7296 1209.104,-124.7696 1049.504,-130.6296 809.044,-139.4596 747.274,-119.6196 508.454,-148.6296 438.104,-157.1696 421.184,-164.3596 352.454,-181.6296 269.384,-202.5096 228.244,-175.2896 167.454,-235.6296 52.157,-350.0696 82.456,-428.6796 82.456,-591.1296 82.456,-808.6296 82.456,-808.6296 82.456,-808.6296 82.456,-843.9696 110.492,-846.8996 143.454,-859.6296 222.574,-890.1996 826.824,-894.8196 984.124,-895.5096"/>
<polygon fill="#0000ff" stroke="#0000ff" points="984.2302,-899.0099 994.244,-895.5496 984.2579,-892.01 984.2302,-899.0099"/>
<text text-anchor="middle" x="96.956" y="-502.2296" font-family="Calibri" font-size="8.00" fill="#000000">0.028</text>
</g>
<!-- 4&#45;&gt;3 -->
<g id="edge24" class="edge">
<title>4&#45;&gt;3</title>
<path fill="none" stroke="#0000ff" d="M1524.704,-113.9696C1575.404,-116.9396 1687.804,-125.7296 1779.504,-148.6296 1819.604,-158.6496 1832.904,-157.4396 1866.504,-181.6296 2041.104,-307.5496 2143.104,-512.7796 1979.504,-652.6296 1891.904,-727.4296 1837.704,-678.0796 1725.504,-703.6296 1604.304,-731.2096 1577.204,-752.8396 1454.504,-772.6296 1342.304,-790.7196 1312.804,-782.2396 1199.504,-790.6296 1130.704,-795.7296 1050.504,-802.0296 1004.654,-805.6596"/>
<polygon fill="#0000ff" stroke="#0000ff" points="1004.285,-802.1778 994.594,-806.4596 1004.84,-809.1558 1004.285,-802.1778"/>
<text text-anchor="middle" x="2077.004" y="-458.7296" font-family="Calibri" font-size="8.00" fill="#000000">0.056</text>
</g>
<!-- 4&#45;&gt;4 -->
<g id="edge25" class="edge">
<title>4&#45;&gt;4</title>
<path fill="none" stroke="#0000ff" d="M1522.004,-120.3796C1533.004,-121.1196 1542.504,-118.5396 1542.504,-112.6296 1542.504,-108.6596 1538.204,-106.1926 1532.004,-105.2236"/>
<polygon fill="#0000ff" stroke="#0000ff" points="1532.1191,-101.7256 1522.004,-104.8776 1531.877,-108.7214 1532.1191,-101.7256"/>
<text text-anchor="middle" x="1558.004" y="-110.7296" font-family="Calibri" font-size="8.00" fill="#000000">0.083</text>
</g>
<!-- 4&#45;&gt;5 -->
<g id="edge26" class="edge">
<title>4&#45;&gt;5</title>
<path fill="none" stroke="#0000ff" d="M1470.104,-113.9796C1404.304,-117.4696 1232.004,-127.9696 1089.504,-148.6296 1056.204,-153.4496 1048.504,-157.6896 1015.454,-163.6296 947.654,-175.8196 868.144,-187.8096 822.894,-194.4096"/>
<polygon fill="#0000ff" stroke="#0000ff" points="822.3582,-190.9506 812.964,-195.8496 823.3628,-197.8781 822.3582,-190.9506"/>
<text text-anchor="middle" x="1105.004" y="-154.2296" font-family="Calibri" font-size="8.00" fill="#000000">0.111</text>
</g>
<!-- 4&#45;&gt;6 -->
<g id="edge27" class="edge">
<title>4&#45;&gt;6</title>
<path fill="none" stroke="#0000ff" d="M1470.504,-115.7496C1424.904,-121.3496 1334.604,-133.9196 1306.504,-148.6296 1249.104,-178.5796 1259.504,-219.9696 1202.504,-250.6296 1180.104,-262.6396 1113.404,-274.5696 1071.004,-281.2396"/>
<polygon fill="#0000ff" stroke="#0000ff" points="1070.4521,-277.7833 1061.104,-282.7696 1071.5213,-284.7011 1070.4521,-277.7833"/>
<text text-anchor="middle" x="1281.004" y="-197.7296" font-family="Calibri" font-size="8.00" fill="#000000">0.139</text>
</g>
<!-- 4&#45;&gt;7 -->
<g id="edge28" class="edge">
<title>4&#45;&gt;7</title>
<path fill="none" stroke="#0000ff" d="M1504.904,-129.9996C1507.204,-135.8496 1509.604,-142.4596 1511.504,-148.6296 1524.504,-192.7696 1530.304,-204.5996 1529.504,-250.6296 1529.004,-274.6396 1528.604,-280.6396 1527.504,-304.6296 1526.704,-319.3096 1531.104,-324.0596 1525.504,-337.6296 1523.404,-342.5196 1520.404,-347.1996 1517.104,-351.4696"/>
<polygon fill="#0000ff" stroke="#0000ff" points="1514.3596,-349.2909 1510.404,-359.1196 1519.6255,-353.9029 1514.3596,-349.2909"/>
<text text-anchor="middle" x="1545.004" y="-241.2296" font-family="Calibri" font-size="8.00" fill="#000000">0.167</text>
</g>
<!-- 4&#45;&gt;8 -->
<g id="edge29" class="edge">
<title>4&#45;&gt;8</title>
<path fill="none" stroke="#0000ff" d="M1470.404,-113.5496C1310.304,-119.2496 491.074,-152.3796 421.454,-235.6296 366.654,-301.1596 683.194,-413.9896 789.534,-449.5596"/>
<polygon fill="#0000ff" stroke="#0000ff" points="788.5505,-452.9209 799.144,-452.7496 790.7559,-446.2773 788.5505,-452.9209"/>
<text text-anchor="middle" x="470.954" y="-284.7296" font-family="Calibri" font-size="8.00" fill="#000000">0.139</text>
</g>
<!-- 4&#45;&gt;9 -->
<g id="edge30" class="edge">
<title>4&#45;&gt;9</title>
<path fill="none" stroke="#0000ff" d="M1524.304,-115.5596C1568.404,-122.0396 1651.504,-141.8996 1651.504,-199.6296 1651.504,-460.6296 1651.504,-460.6296 1651.504,-460.6296 1651.504,-496.3096 1622.204,-497.4596 1589.504,-511.6296 1578.504,-516.3796 1421.004,-534.9296 1347.604,-543.3896"/>
<polygon fill="#0000ff" stroke="#0000ff" points="1346.94,-539.9427 1337.404,-544.5596 1347.7377,-546.8971 1346.94,-539.9427"/>
<text text-anchor="middle" x="1667.004" y="-328.2296" font-family="Calibri" font-size="8.00" fill="#000000">0.111</text>
</g>
<!-- 4&#45;&gt;10 -->
<g id="edge31" class="edge">
<title>4&#45;&gt;10</title>
<path fill="none" stroke="#0000ff" d="M1523.204,-106.6496C1588.704,-91.4706 1761.304,-51.4156 1836.504,-33.9596"/>
<polygon fill="#0000ff" stroke="#0000ff" points="1837.5473,-37.3109 1846.504,-31.6516 1835.973,-30.4902 1837.5473,-37.3109"/>
<text text-anchor="middle" x="1722.004" y="-67.2296" font-family="Calibri" font-size="8.00" fill="#000000">0.083</text>
</g>
<!-- 4&#45;&gt;11 -->
<g id="edge32" class="edge">
<title>4&#45;&gt;11</title>
<path fill="none" stroke="#0000ff" d="M1523.704,-116.8696C1560.104,-123.1096 1623.304,-135.4696 1642.504,-148.6296 1757.804,-228.0196 1854.304,-298.0396 1794.504,-424.6296 1768.404,-479.7296 1744.804,-488.3096 1688.504,-511.6296 1612.904,-542.8996 1577.004,-490.1696 1505.504,-529.6296 1487.704,-539.4196 1490.204,-549.8996 1477.504,-565.6296 1465.304,-580.5596 1465.804,-588.5196 1449.504,-598.6296 1444.704,-601.5996 1380.104,-616.7996 1338.104,-626.4796"/>
<polygon fill="#0000ff" stroke="#0000ff" points="1337.1688,-623.1031 1328.204,-628.7496 1338.7333,-629.9261 1337.1688,-623.1031"/>
<text text-anchor="middle" x="1828.004" y="-371.7296" font-family="Calibri" font-size="8.00" fill="#000000">0.056</text>
</g>
<!-- 4&#45;&gt;12 -->
<g id="edge33" class="edge">
<title>4&#45;&gt;12</title>
<path fill="none" stroke="#0000ff" d="M1524.204,-115.7096C1563.004,-120.5696 1637.204,-131.2996 1698.504,-148.6296 1737.004,-159.5496 1748.904,-159.6496 1782.504,-181.6296 1870.204,-239.1296 1911.204,-288.7396 1890.504,-391.6296 1873.904,-473.8396 1874.404,-504.0396 1817.504,-565.6296 1767.904,-619.1996 1728.304,-587.3196 1661.504,-616.6296 1636.704,-627.4896 1634.804,-637.4796 1612.504,-652.6296 1601.004,-660.4096 1572.504,-680.9696 1559.504,-685.6296 1537.104,-693.6096 1387.704,-710.1796 1316.804,-717.7296"/>
<polygon fill="#0000ff" stroke="#0000ff" points="1316.0801,-714.2866 1306.504,-718.8196 1316.8168,-721.2477 1316.0801,-714.2866"/>
<text text-anchor="middle" x="1902.004" y="-415.2296" font-family="Calibri" font-size="8.00" fill="#000000">0.028</text>
</g>
<!-- 5&#45;&gt;2 -->
<g id="edge34" class="edge">
<title>5&#45;&gt;2</title>
<path fill="none" stroke="#0000ff" d="M759.354,-200.7296C678.824,-204.1696 441.974,-215.7696 367.454,-235.6296 333.834,-244.5896 321.894,-244.8896 296.454,-268.6296 237.374,-323.7596 128.456,-510.3196 128.456,-591.1296 128.456,-808.6296 128.456,-808.6296 128.456,-808.6296 128.456,-869.0396 195.444,-846.6996 254.454,-859.6296 325.994,-875.3096 839.884,-890.5996 983.984,-894.6096"/>
<polygon fill="#0000ff" stroke="#0000ff" points="984.0009,-898.1113 994.094,-894.8896 984.1948,-891.114 984.0009,-898.1113"/>
<text text-anchor="middle" x="156.954" y="-545.7296" font-family="Calibri" font-size="8.00" fill="#000000">0.028</text>
</g>
<!-- 5&#45;&gt;3 -->
<g id="edge35" class="edge">
<title>5&#45;&gt;3</title>
<path fill="none" stroke="#0000ff" d="M759.364,-200.7396C695.734,-203.6896 538.584,-213.0996 491.454,-235.6296 472.454,-244.7096 467.694,-250.2296 457.454,-268.6296 404.134,-364.4796 377.294,-408.4396 414.454,-511.6296 427.384,-547.5196 603.494,-755.2696 637.454,-772.6296 677.584,-793.1396 794.684,-785.4896 839.454,-790.6296 870.414,-794.1796 905.454,-799.1796 931.034,-803.0096"/>
<polygon fill="#0000ff" stroke="#0000ff" points="930.6254,-806.4874 941.034,-804.5096 931.6639,-799.5648 930.6254,-806.4874"/>
<text text-anchor="middle" x="429.954" y="-502.2296" font-family="Calibri" font-size="8.00" fill="#000000">0.056</text>
</g>
<!-- 5&#45;&gt;4 -->
<g id="edge36" class="edge">
<title>5&#45;&gt;4</title>
<path fill="none" stroke="#0000ff" d="M810.944,-191.6096C847.424,-180.0096 918.434,-158.8496 980.454,-148.6296 1072.904,-133.3896 1357.404,-119.1096 1460.004,-114.3196"/>
<polygon fill="#0000ff" stroke="#0000ff" points="1460.3757,-117.8063 1470.204,-113.8496 1460.0535,-110.8137 1460.3757,-117.8063"/>
<text text-anchor="middle" x="995.954" y="-154.2296" font-family="Calibri" font-size="8.00" fill="#000000">0.083</text>
</g>
<!-- 5&#45;&gt;5 -->
<g id="edge37" class="edge">
<title>5&#45;&gt;5</title>
<path fill="none" stroke="#0000ff" d="M810.984,-207.3796C821.964,-208.1196 831.454,-205.5396 831.454,-199.6296 831.454,-195.6596 827.174,-193.1896 821.034,-192.2196"/>
<polygon fill="#0000ff" stroke="#0000ff" points="821.0967,-188.7198 810.984,-191.8796 820.8599,-195.7158 821.0967,-188.7198"/>
<text text-anchor="middle" x="846.954" y="-197.7296" font-family="Calibri" font-size="8.00" fill="#000000">0.111</text>
</g>
<!-- 5&#45;&gt;6 -->
<g id="edge38" class="edge">
<title>5&#45;&gt;6</title>
<path fill="none" stroke="#0000ff" d="M811.214,-207.5496C833.354,-214.6996 866.664,-225.5996 895.454,-235.6296 931.774,-248.2896 973.124,-263.5696 1001.214,-274.0896"/>
<polygon fill="#0000ff" stroke="#0000ff" points="1000.3416,-277.5002 1010.934,-277.7296 1002.7966,-270.9448 1000.3416,-277.5002"/>
<text text-anchor="middle" x="948.954" y="-241.2296" font-family="Calibri" font-size="8.00" fill="#000000">0.139</text>
</g>
<!-- 5&#45;&gt;7 -->
<g id="edge39" class="edge">
<title>5&#45;&gt;7</title>
<path fill="none" stroke="#0000ff" d="M813.444,-200.8796C930.434,-206.3496 1388.504,-228.2096 1401.504,-235.6296 1444.204,-260.1596 1471.004,-313.6396 1484.004,-346.3496"/>
<polygon fill="#0000ff" stroke="#0000ff" points="1480.743,-347.6224 1487.504,-355.7796 1487.3056,-345.1866 1480.743,-347.6224"/>
<text text-anchor="middle" x="1479.004" y="-284.7296" font-family="Calibri" font-size="8.00" fill="#000000">0.167</text>
</g>
<!-- 5&#45;&gt;8 -->
<g id="edge40" class="edge">
<title>5&#45;&gt;8</title>
<path fill="none" stroke="#0000ff" d="M774.664,-216.0196C757.674,-241.6996 729.574,-293.0696 741.454,-337.6296 751.984,-377.1196 781.134,-415.0696 801.674,-438.1196"/>
<polygon fill="#0000ff" stroke="#0000ff" points="799.2055,-440.6067 808.534,-445.6296 804.3738,-435.8857 799.2055,-440.6067"/>
<text text-anchor="middle" x="756.954" y="-328.2296" font-family="Calibri" font-size="8.00" fill="#000000">0.139</text>
</g>
<!-- 5&#45;&gt;9 -->
<g id="edge41" class="edge">
<title>5&#45;&gt;9</title>
<path fill="none" stroke="#0000ff" d="M813.444,-201.2696C883.814,-205.7396 1071.604,-218.9096 1131.504,-235.6296 1164.604,-244.8796 1171.604,-251.6296 1201.504,-268.6296 1277.404,-311.8296 1313.504,-325.8996 1338.504,-409.6296 1340.404,-416.0196 1340.104,-418.1796 1338.504,-424.6296 1336.204,-433.4896 1331.504,-433.9996 1328.504,-442.6296 1319.604,-467.6996 1315.004,-497.7196 1312.704,-519.2196"/>
<polygon fill="#0000ff" stroke="#0000ff" points="1309.2054,-519.0336 1311.704,-529.3296 1316.1714,-519.7227 1309.2054,-519.0336"/>
<text text-anchor="middle" x="1348.004" y="-371.7296" font-family="Calibri" font-size="8.00" fill="#000000">0.111</text>
</g>
<!-- 5&#45;&gt;10 -->
<g id="edge42" class="edge">
<title>5&#45;&gt;10</title>
<path fill="none" stroke="#0000ff" d="M807.634,-188.0296C860.084,-159.9796 1001.034,-88.8116 1128.504,-61.6296 1265.504,-32.4046 1703.504,-26.8616 1834.804,-25.8486"/>
<polygon fill="#0000ff" stroke="#0000ff" points="1835.2295,-29.3457 1845.204,-25.7736 1835.179,-22.3459 1835.2295,-29.3457"/>
<text text-anchor="middle" x="1029.954" y="-110.7296" font-family="Calibri" font-size="8.00" fill="#000000">0.083</text>
</g>
<!-- 5&#45;&gt;11 -->
<g id="edge43" class="edge">
<title>5&#45;&gt;11</title>
<path fill="none" stroke="#0000ff" d="M785.794,-217.6496C785.444,-255.9496 790.444,-345.6796 841.454,-391.6296 875.664,-422.4396 904.504,-385.0896 943.454,-409.6296 990.624,-439.3396 969.214,-482.0296 1016.454,-511.6296 1056.604,-536.7696 1077.104,-513.1696 1121.504,-529.6296 1128.404,-532.2196 1230.004,-594.9696 1236.504,-598.6296 1251.304,-607.0296 1255.404,-608.4396 1270.504,-616.6296 1271.304,-617.0696 1272.104,-617.5196 1272.904,-617.9696"/>
<polygon fill="#0000ff" stroke="#0000ff" points="1271.3651,-621.1187 1281.804,-622.9296 1274.7728,-615.0042 1271.3651,-621.1187"/>
<text text-anchor="middle" x="975.954" y="-415.2296" font-family="Calibri" font-size="8.00" fill="#000000">0.056</text>
</g>
<!-- 5&#45;&gt;12 -->
<g id="edge44" class="edge">
<title>5&#45;&gt;12</title>
<path fill="none" stroke="#0000ff" d="M759.534,-201.1096C692.654,-205.0596 523.134,-216.8496 506.454,-235.6296 379.164,-378.9296 454.354,-550.3396 616.454,-652.6296 669.884,-686.3396 697.284,-651.3896 757.454,-670.6296 770.904,-674.9296 771.834,-681.9296 785.454,-685.6296 884.604,-712.5796 1148.604,-675.6596 1247.504,-703.6296 1248.504,-703.9296 1249.604,-704.2796 1250.704,-704.6596"/>
<polygon fill="#0000ff" stroke="#0000ff" points="1249.5453,-707.975 1260.104,-708.8496 1252.3953,-701.5814 1249.5453,-707.975"/>
<text text-anchor="middle" x="474.954" y="-458.7296" font-family="Calibri" font-size="8.00" fill="#000000">0.028</text>
</g>
<!-- 6&#45;&gt;2 -->
<g id="edge45" class="edge">
<title>6&#45;&gt;2</title>
<path fill="none" stroke="#0000ff" d="M1007.354,-288.1696C959.454,-291.3796 857.004,-300.4196 773.454,-322.6296 735.494,-332.7196 726.104,-337.1096 691.454,-355.6296 643.514,-381.2596 641.194,-405.0996 590.454,-424.6296 562.824,-435.2596 477.924,-420.3296 458.454,-442.6296 421.774,-484.6596 465.584,-512.7896 483.454,-565.6296 527.204,-694.9596 526.914,-758.8996 645.454,-826.6296 689.774,-851.9496 705.564,-848.8396 755.454,-859.6296 836.204,-877.0896 932.684,-887.6296 984.384,-892.4696"/>
<polygon fill="#0000ff" stroke="#0000ff" points="984.1284,-895.9607 994.404,-893.3796 984.7616,-888.9894 984.1284,-895.9607"/>
<text text-anchor="middle" x="509.954" y="-589.2296" font-family="Calibri" font-size="8.00" fill="#000000">0.028</text>
</g>
<!-- 6&#45;&gt;3 -->
<g id="edge46" class="edge">
<title>6&#45;&gt;3</title>
<path fill="none" stroke="#0000ff" d="M1007.904,-290.1496C977.884,-294.8196 928.024,-304.6296 888.454,-322.6296 775.334,-374.0896 741.964,-412.4896 700.454,-529.6296 662.094,-637.8996 689.514,-714.2796 788.454,-772.6296 812.074,-786.5596 885.534,-798.1096 930.674,-804.1296"/>
<polygon fill="#0000ff" stroke="#0000ff" points="930.3062,-807.6112 940.674,-805.4296 931.2087,-800.6696 930.3062,-807.6112"/>
<text text-anchor="middle" x="715.954" y="-545.7296" font-family="Calibri" font-size="8.00" fill="#000000">0.056</text>
</g>
<!-- 6&#45;&gt;4 -->
<g id="edge47" class="edge">
<title>6&#45;&gt;4</title>
<path fill="none" stroke="#0000ff" d="M1061.404,-283.7696C1087.704,-279.8796 1127.804,-270.8996 1156.504,-250.6296 1187.404,-228.7696 1177.104,-205.5696 1206.504,-181.6296 1234.004,-159.1296 1245.404,-158.9496 1279.504,-148.6296 1341.304,-129.8796 1416.304,-120.2096 1460.204,-115.7996"/>
<polygon fill="#0000ff" stroke="#0000ff" points="1460.7889,-119.2594 1470.404,-114.8096 1460.1126,-112.2921 1460.7889,-119.2594"/>
<text text-anchor="middle" x="1222.004" y="-197.7296" font-family="Calibri" font-size="8.00" fill="#000000">0.083</text>
</g>
<!-- 6&#45;&gt;5 -->
<g id="edge48" class="edge">
<title>6&#45;&gt;5</title>
<path fill="none" stroke="#0000ff" d="M1007.524,-284.4096C972.464,-280.7696 909.814,-271.7196 860.454,-250.6296 842.634,-243.0196 824.684,-230.7796 810.924,-220.2096"/>
<polygon fill="#0000ff" stroke="#0000ff" points="812.9563,-217.3544 802.944,-213.8896 808.6103,-222.8419 812.9563,-217.3544"/>
<text text-anchor="middle" x="875.954" y="-241.2296" font-family="Calibri" font-size="8.00" fill="#000000">0.111</text>
</g>
<!-- 6&#45;&gt;6 -->
<g id="edge49" class="edge">
<title>6&#45;&gt;6</title>
<path fill="none" stroke="#0000ff" d="M1059.004,-294.3796C1070.004,-295.1196 1079.504,-292.5396 1079.504,-286.6296 1079.504,-282.6596 1075.204,-280.1896 1069.004,-279.2196"/>
<polygon fill="#0000ff" stroke="#0000ff" points="1069.1172,-275.7215 1059.004,-278.8796 1068.8793,-282.7175 1069.1172,-275.7215"/>
<text text-anchor="middle" x="1095.004" y="-284.7296" font-family="Calibri" font-size="8.00" fill="#000000">0.139</text>
</g>
<!-- 6&#45;&gt;7 -->
<g id="edge50" class="edge">
<title>6&#45;&gt;7</title>
<path fill="none" stroke="#0000ff" d="M1060.404,-291.5596C1138.104,-306.2696 1368.304,-349.9096 1457.504,-366.8196"/>
<polygon fill="#0000ff" stroke="#0000ff" points="1457.0295,-370.2916 1467.504,-368.6996 1458.3229,-363.4121 1457.0295,-370.2916"/>
<text text-anchor="middle" x="1306.004" y="-328.2296" font-family="Calibri" font-size="8.00" fill="#000000">0.167</text>
</g>
<!-- 6&#45;&gt;8 -->
<g id="edge51" class="edge">
<title>6&#45;&gt;8</title>
<path fill="none" stroke="#0000ff" d="M1014.784,-299.3996C1004.874,-306.0496 992.804,-314.4696 982.454,-322.6296 946.384,-351.0996 942.634,-364.6196 905.454,-391.6296 892.564,-400.9996 887.084,-399.9196 874.454,-409.6296 863.754,-417.8596 853.024,-428.2096 844.184,-437.4196"/>
<polygon fill="#0000ff" stroke="#0000ff" points="841.5253,-435.1383 837.244,-444.8296 846.6344,-439.9234 841.5253,-435.1383"/>
<text text-anchor="middle" x="960.954" y="-371.7296" font-family="Calibri" font-size="8.00" fill="#000000">0.139</text>
</g>
<!-- 6&#45;&gt;9 -->
<g id="edge52" class="edge">
<title>6&#45;&gt;9</title>
<path fill="none" stroke="#0000ff" d="M1059.204,-294.2796C1077.704,-300.5196 1103.004,-310.3096 1123.504,-322.6296 1197.004,-367.0196 1182.904,-412.2796 1237.504,-478.6296 1251.904,-496.2496 1270.704,-513.8796 1285.504,-526.8996"/>
<polygon fill="#0000ff" stroke="#0000ff" points="1283.4491,-529.7496 1293.304,-533.6396 1288.0259,-524.4531 1283.4491,-529.7496"/>
<text text-anchor="middle" x="1218.004" y="-415.2296" font-family="Calibri" font-size="8.00" fill="#000000">0.111</text>
</g>
<!-- 6&#45;&gt;10 -->
<g id="edge53" class="edge">
<title>6&#45;&gt;10</title>
<path fill="none" stroke="#0000ff" d="M1048.004,-270.9096C1074.104,-241.8296 1134.204,-179.7696 1198.504,-148.6296 1313.704,-92.8366 1711.604,-43.9176 1835.404,-29.7506"/>
<polygon fill="#0000ff" stroke="#0000ff" points="1835.9642,-33.2095 1845.504,-28.6006 1835.1722,-26.2545 1835.9642,-33.2095"/>
<text text-anchor="middle" x="1214.004" y="-154.2296" font-family="Calibri" font-size="8.00" fill="#000000">0.083</text>
</g>
<!-- 6&#45;&gt;11 -->
<g id="edge54" class="edge">
<title>6&#45;&gt;11</title>
<path fill="none" stroke="#0000ff" d="M1052.404,-300.2996C1059.604,-306.5096 1067.604,-314.3196 1073.504,-322.6296 1116.504,-384.1896 1097.104,-415.8996 1138.504,-478.6296 1149.704,-495.6896 1153.304,-500.5496 1170.504,-511.6296 1190.304,-524.4396 1201.304,-515.7796 1220.504,-529.6296 1249.704,-550.8296 1273.804,-585.2696 1288.104,-608.8896"/>
<polygon fill="#0000ff" stroke="#0000ff" points="1285.1932,-610.843 1293.304,-617.6596 1291.2144,-607.2729 1285.1932,-610.843"/>
<text text-anchor="middle" x="1154.004" y="-458.7296" font-family="Calibri" font-size="8.00" fill="#000000">0.056</text>
</g>
<!-- 6&#45;&gt;12 -->
<g id="edge55" class="edge">
<title>6&#45;&gt;12</title>
<path fill="none" stroke="#0000ff" d="M1031.074,-304.7596C1022.594,-352.5196 1002.884,-480.2996 1028.454,-511.6296 1053.704,-542.5596 1082.604,-508.4796 1116.504,-529.6296 1190.604,-575.9796 1175.904,-622.5096 1236.504,-685.6296 1241.704,-691.1396 1247.804,-696.6396 1253.704,-701.6396"/>
<polygon fill="#0000ff" stroke="#0000ff" points="1251.5643,-704.4118 1261.504,-708.0796 1256.0211,-699.0138 1251.5643,-704.4118"/>
<text text-anchor="middle" x="1044.004" y="-502.2296" font-family="Calibri" font-size="8.00" fill="#000000">0.028</text>
</g>
<!-- 7&#45;&gt;2 -->
<g id="edge56" class="edge">
<title>7&#45;&gt;2</title>
<path fill="none" stroke="#0000ff" d="M1520.204,-376.5196C1553.404,-380.7696 1611.304,-390.3796 1657.504,-409.6296 1819.304,-477.1296 1946.504,-502.8096 1946.504,-678.1296 1946.504,-808.6296 1946.504,-808.6296 1946.504,-808.6296 1946.504,-924.6396 1805.604,-845.1396 1690.504,-859.6296 1566.804,-875.1896 1181.404,-889.9196 1059.104,-894.3096"/>
<polygon fill="#0000ff" stroke="#0000ff" points="1058.6719,-890.8228 1048.804,-894.6796 1058.9232,-897.8183 1058.6719,-890.8228"/>
<text text-anchor="middle" x="1960.004" y="-632.7296" font-family="Calibri" font-size="8.00" fill="#000000">0.028</text>
</g>
<!-- 7&#45;&gt;3 -->
<g id="edge57" class="edge">
<title>7&#45;&gt;3</title>
<path fill="none" stroke="#0000ff" d="M1519.604,-378.8296C1553.704,-386.8796 1613.304,-405.4896 1649.504,-442.6296 1701.604,-496.2196 1744.704,-531.1796 1712.504,-598.6296 1666.304,-695.1096 1614.004,-693.6696 1517.504,-739.6296 1471.404,-761.5596 1457.604,-763.1596 1407.504,-772.6296 1397.604,-774.4896 1108.404,-797.4796 1004.314,-805.7196"/>
<polygon fill="#0000ff" stroke="#0000ff" points="1003.9686,-802.2359 994.274,-806.5096 1004.5178,-809.2143 1003.9686,-802.2359"/>
<text text-anchor="middle" x="1734.004" y="-589.2296" font-family="Calibri" font-size="8.00" fill="#000000">0.056</text>
</g>
<!-- 7&#45;&gt;4 -->
<g id="edge58" class="edge">
<title>7&#45;&gt;4</title>
<path fill="none" stroke="#0000ff" d="M1495.104,-355.4896C1496.304,-341.5896 1497.804,-321.9096 1498.504,-304.6296 1499.004,-288.6396 1500.204,-284.5296 1498.504,-268.6296 1497.604,-260.4796 1495.304,-258.7796 1494.504,-250.6296 1493.704,-243.9996 1494.404,-242.2996 1494.504,-235.6296 1494.804,-203.2596 1495.804,-166.0996 1496.604,-141.1696"/>
<polygon fill="#0000ff" stroke="#0000ff" points="1500.1084,-141.0682 1496.904,-130.9696 1493.1114,-140.8623 1500.1084,-141.0682"/>
<text text-anchor="middle" x="1510.004" y="-241.2296" font-family="Calibri" font-size="8.00" fill="#000000">0.083</text>
</g>
<!-- 7&#45;&gt;5 -->
<g id="edge59" class="edge">
<title>7&#45;&gt;5</title>
<path fill="none" stroke="#0000ff" d="M1475.804,-359.8996C1441.504,-333.2296 1367.904,-276.3496 1355.504,-268.6296 1327.204,-251.1696 1320.504,-244.3096 1288.504,-235.6296 1200.804,-211.8696 924.454,-202.9596 823.684,-200.4496"/>
<polygon fill="#0000ff" stroke="#0000ff" points="823.745,-196.9502 813.664,-200.2096 823.5773,-203.9481 823.745,-196.9502"/>
<text text-anchor="middle" x="1418.004" y="-284.7296" font-family="Calibri" font-size="8.00" fill="#000000">0.111</text>
</g>
<!-- 7&#45;&gt;6 -->
<g id="edge60" class="edge">
<title>7&#45;&gt;6</title>
<path fill="none" stroke="#0000ff" d="M1467.204,-368.5796C1446.004,-364.6296 1415.404,-359.2296 1388.504,-355.6296 1305.704,-344.5696 1283.304,-353.9096 1201.504,-337.6296 1188.304,-335.0096 1113.404,-311.6096 1068.504,-297.4296"/>
<polygon fill="#0000ff" stroke="#0000ff" points="1069.4944,-294.0719 1058.904,-294.3796 1067.3748,-300.7433 1069.4944,-294.0719"/>
<text text-anchor="middle" x="1217.004" y="-328.2296" font-family="Calibri" font-size="8.00" fill="#000000">0.139</text>
</g>
<!-- 7&#45;&gt;7 -->
<g id="edge61" class="edge">
<title>7&#45;&gt;7</title>
<path fill="none" stroke="#0000ff" d="M1518.004,-381.3796C1529.004,-382.1196 1538.504,-379.5396 1538.504,-373.6296 1538.504,-369.6596 1534.204,-367.1896 1528.004,-366.2196"/>
<polygon fill="#0000ff" stroke="#0000ff" points="1528.1172,-362.7215 1518.004,-365.8796 1527.8793,-369.7175 1528.1172,-362.7215"/>
<text text-anchor="middle" x="1554.004" y="-371.7296" font-family="Calibri" font-size="8.00" fill="#000000">0.167</text>
</g>
<!-- 7&#45;&gt;8 -->
<g id="edge62" class="edge">
<title>7&#45;&gt;8</title>
<path fill="none" stroke="#0000ff" d="M1467.304,-379.1096C1446.104,-383.2996 1415.504,-388.8096 1388.504,-391.6296 1283.204,-402.5996 1014.214,-380.4696 912.454,-409.6296 889.714,-416.1496 866.604,-429.6296 849.644,-441.0996"/>
<polygon fill="#0000ff" stroke="#0000ff" points="847.5673,-438.2807 841.364,-446.8696 851.5695,-444.0238 847.5673,-438.2807"/>
<text text-anchor="middle" x="927.954" y="-415.2296" font-family="Calibri" font-size="8.00" fill="#000000">0.139</text>
</g>
<!-- 7&#45;&gt;9 -->
<g id="edge63" class="edge">
<title>7&#45;&gt;9</title>
<path fill="none" stroke="#0000ff" d="M1467.304,-378.3396C1434.204,-385.7896 1377.904,-403.6596 1349.504,-442.6296 1340.204,-455.3096 1327.104,-493.7296 1318.704,-520.3996"/>
<polygon fill="#0000ff" stroke="#0000ff" points="1315.3556,-519.3805 1315.704,-529.9696 1322.0351,-521.4744 1315.3556,-519.3805"/>
<text text-anchor="middle" x="1365.004" y="-458.7296" font-family="Calibri" font-size="8.00" fill="#000000">0.111</text>
</g>
<!-- 7&#45;&gt;10 -->
<g id="edge64" class="edge">
<title>7&#45;&gt;10</title>
<path fill="none" stroke="#0000ff" d="M1513.704,-361.1996C1583.604,-318.2396 1811.004,-177.9396 1822.504,-163.6296 1848.604,-131.0296 1861.704,-83.6186 1867.804,-53.7166"/>
<polygon fill="#0000ff" stroke="#0000ff" points="1871.3076,-54.0392 1869.804,-43.5516 1864.4392,-52.6878 1871.3076,-54.0392"/>
<text text-anchor="middle" x="1812.004" y="-197.7296" font-family="Calibri" font-size="8.00" fill="#000000">0.083</text>
</g>
<!-- 7&#45;&gt;11 -->
<g id="edge65" class="edge">
<title>7&#45;&gt;11</title>
<path fill="none" stroke="#0000ff" d="M1494.404,-391.6696C1495.604,-434.9496 1492.104,-545.0096 1429.504,-598.6296 1422.404,-604.6796 1373.104,-617.5496 1338.104,-626.1496"/>
<polygon fill="#0000ff" stroke="#0000ff" points="1337.0924,-622.7936 1328.204,-628.5596 1338.7481,-629.5949 1337.0924,-622.7936"/>
<text text-anchor="middle" x="1500.004" y="-502.2296" font-family="Calibri" font-size="8.00" fill="#000000">0.056</text>
</g>
<!-- 7&#45;&gt;12 -->
<g id="edge66" class="edge">
<title>7&#45;&gt;12</title>
<path fill="none" stroke="#0000ff" d="M1516.104,-383.6296C1527.904,-389.7496 1541.804,-398.5396 1551.504,-409.6296 1674.704,-551.2896 1642.304,-566.8996 1628.504,-598.6296 1617.104,-624.7096 1560.204,-673.4196 1534.504,-685.6296 1496.704,-703.5796 1377.804,-714.5296 1316.604,-719.1196"/>
<polygon fill="#0000ff" stroke="#0000ff" points="1316.3226,-715.6307 1306.604,-719.8496 1316.8323,-722.6122 1316.3226,-715.6307"/>
<text text-anchor="middle" x="1658.004" y="-545.7296" font-family="Calibri" font-size="8.00" fill="#000000">0.028</text>
</g>
<!-- 8&#45;&gt;2 -->
<g id="edge67" class="edge">
<title>8&#45;&gt;2</title>
<path fill="none" stroke="#0000ff" d="M798.334,-467.3396C717.684,-490.2096 474.454,-570.0996 542.454,-685.6296 637.244,-846.6596 889.154,-884.4996 984.334,-893.1496"/>
<polygon fill="#0000ff" stroke="#0000ff" points="984.1041,-896.6426 994.364,-893.9996 984.6953,-889.6676 984.1041,-896.6426"/>
<text text-anchor="middle" x="557.954" y="-676.2296" font-family="Calibri" font-size="8.00" fill="#000000">0.028</text>
</g>
<!-- 8&#45;&gt;3 -->
<g id="edge68" class="edge">
<title>8&#45;&gt;3</title>
<path fill="none" stroke="#0000ff" d="M819.184,-478.6596C811.784,-513.6896 799.544,-592.7296 823.454,-652.6296 847.324,-712.4296 905.674,-763.2596 940.334,-789.5096"/>
<polygon fill="#0000ff" stroke="#0000ff" points="938.4804,-792.4928 948.594,-795.6496 942.6564,-786.8749 938.4804,-792.4928"/>
<text text-anchor="middle" x="838.954" y="-632.7296" font-family="Calibri" font-size="8.00" fill="#000000">0.056</text>
</g>
<!-- 8&#45;&gt;4 -->
<g id="edge69" class="edge">
<title>8&#45;&gt;4</title>
<path fill="none" stroke="#0000ff" d="M850.494,-458.6096C939.534,-451.9096 1219.004,-430.5396 1237.504,-424.6296 1265.004,-415.8296 1276.504,-415.0196 1293.504,-391.6296 1326.304,-346.3096 1292.104,-316.8596 1320.504,-268.6296 1357.404,-205.9196 1428.304,-155.1196 1468.204,-129.8996"/>
<polygon fill="#0000ff" stroke="#0000ff" points="1470.3249,-132.704 1477.004,-124.4796 1466.6539,-126.7437 1470.3249,-132.704"/>
<text text-anchor="middle" x="1336.004" y="-284.7296" font-family="Calibri" font-size="8.00" fill="#000000">0.083</text>
</g>
<!-- 8&#45;&gt;5 -->
<g id="edge70" class="edge">
<title>8&#45;&gt;5</title>
<path fill="none" stroke="#0000ff" d="M803.144,-448.2896C773.824,-429.0396 721.314,-388.6996 704.454,-337.6296 689.524,-292.3896 731.094,-246.0396 760.364,-220.2296"/>
<polygon fill="#0000ff" stroke="#0000ff" points="762.8952,-222.671 768.234,-213.5196 758.3536,-217.3442 762.8952,-222.671"/>
<text text-anchor="middle" x="719.954" y="-328.2296" font-family="Calibri" font-size="8.00" fill="#000000">0.111</text>
</g>
<!-- 8&#45;&gt;6 -->
<g id="edge71" class="edge">
<title>8&#45;&gt;6</title>
<path fill="none" stroke="#0000ff" d="M827.184,-442.6896C832.824,-419.6996 845.604,-379.9196 870.454,-355.6296 905.934,-320.9396 961.464,-302.6196 997.914,-293.7796"/>
<polygon fill="#0000ff" stroke="#0000ff" points="999.1551,-297.0854 1008.114,-291.4296 997.5835,-290.2641 999.1551,-297.0854"/>
<text text-anchor="middle" x="885.954" y="-371.7296" font-family="Calibri" font-size="8.00" fill="#000000">0.139</text>
</g>
<!-- 8&#45;&gt;7 -->
<g id="edge72" class="edge">
<title>8&#45;&gt;7</title>
<path fill="none" stroke="#0000ff" d="M850.504,-458.0896C889.554,-454.4496 964.014,-447.6496 1027.454,-442.6296 1141.604,-433.5996 1171.904,-445.8496 1284.504,-424.6296 1306.404,-420.4896 1310.904,-415.4096 1332.504,-409.6296 1375.004,-398.2396 1424.604,-387.5396 1457.304,-380.8096"/>
<polygon fill="#0000ff" stroke="#0000ff" points="1458.2949,-384.1802 1467.404,-378.7696 1456.909,-377.3188 1458.2949,-384.1802"/>
<text text-anchor="middle" x="1348.004" y="-415.2296" font-family="Calibri" font-size="8.00" fill="#000000">0.167</text>
</g>
<!-- 8&#45;&gt;8 -->
<g id="edge73" class="edge">
<title>8&#45;&gt;8</title>
<path fill="none" stroke="#0000ff" d="M847.984,-468.3796C858.964,-469.1196 868.454,-466.5396 868.454,-460.6296 868.454,-456.6596 864.174,-454.1896 858.034,-453.2196"/>
<polygon fill="#0000ff" stroke="#0000ff" points="858.0967,-449.7198 847.984,-452.8796 857.8599,-456.7158 858.0967,-449.7198"/>
<text text-anchor="middle" x="883.954" y="-458.7296" font-family="Calibri" font-size="8.00" fill="#000000">0.139</text>
</g>
<!-- 8&#45;&gt;9 -->
<g id="edge74" class="edge">
<title>8&#45;&gt;9</title>
<path fill="none" stroke="#0000ff" d="M850.684,-462.6296C903.214,-466.7796 1022.044,-477.5596 1120.504,-496.6296 1175.504,-507.2896 1238.004,-525.2396 1275.804,-536.7496"/>
<polygon fill="#0000ff" stroke="#0000ff" points="1275.2175,-540.2303 1285.804,-539.8096 1277.2658,-533.5366 1275.2175,-540.2303"/>
<text text-anchor="middle" x="1199.004" y="-502.2296" font-family="Calibri" font-size="8.00" fill="#000000">0.111</text>
</g>
<!-- 8&#45;&gt;10 -->
<g id="edge75" class="edge">
<title>8&#45;&gt;10</title>
<path fill="none" stroke="#0000ff" d="M796.344,-458.3696C753.624,-454.3396 668.294,-444.4196 598.454,-424.6296 394.854,-366.9296 43.8825,-279.1596 210.454,-148.6296 342.644,-45.0436 1602.204,-28.1776 1835.404,-25.9356"/>
<polygon fill="#0000ff" stroke="#0000ff" points="1835.437,-29.4355 1845.404,-25.8426 1835.3718,-22.4358 1835.437,-29.4355"/>
<text text-anchor="middle" x="194.954" y="-241.2296" font-family="Calibri" font-size="8.00" fill="#000000">0.083</text>
</g>
<!-- 8&#45;&gt;11 -->
<g id="edge76" class="edge">
<title>8&#45;&gt;11</title>
<path fill="none" stroke="#0000ff" d="M849.994,-464.8596C873.734,-469.6096 908.664,-479.0696 934.454,-496.6296 983.004,-529.6796 966.274,-571.6896 1018.454,-598.6296 1068.304,-624.3896 1216.704,-600.4796 1270.504,-616.6296 1271.504,-616.9496 1272.604,-617.3096 1273.704,-617.7096"/>
<polygon fill="#0000ff" stroke="#0000ff" points="1272.5501,-621.029 1283.104,-621.9596 1275.434,-614.6506 1272.5501,-621.029"/>
<text text-anchor="middle" x="997.954" y="-545.7296" font-family="Calibri" font-size="8.00" fill="#000000">0.056</text>
</g>
<!-- 8&#45;&gt;12 -->
<g id="edge77" class="edge">
<title>8&#45;&gt;12</title>
<path fill="none" stroke="#0000ff" d="M824.254,-478.9296C827.384,-524.8496 842.874,-644.2196 919.454,-685.6296 983.664,-720.3496 1177.404,-683.1996 1247.504,-703.6296 1248.504,-703.9396 1249.604,-704.2996 1250.704,-704.6796"/>
<polygon fill="#0000ff" stroke="#0000ff" points="1249.5485,-707.9976 1260.104,-708.9096 1252.4211,-701.6142 1249.5485,-707.9976"/>
<text text-anchor="middle" x="864.954" y="-589.2296" font-family="Calibri" font-size="8.00" fill="#000000">0.028</text>
</g>
<!-- 9&#45;&gt;2 -->
<g id="edge78" class="edge">
<title>9&#45;&gt;2</title>
<path fill="none" stroke="#0000ff" d="M1337.304,-550.4596C1380.004,-555.2996 1466.104,-566.3196 1537.504,-583.6296 1582.904,-594.6596 1597.004,-593.0696 1637.504,-616.6296 1697.404,-651.5396 1751.004,-672.5496 1733.504,-739.6296 1715.304,-808.7496 1695.004,-839.3096 1626.504,-859.6296 1572.204,-875.7096 1182.404,-890.1696 1058.904,-894.3896"/>
<polygon fill="#0000ff" stroke="#0000ff" points="1058.6806,-890.895 1048.804,-894.7296 1058.9161,-897.8911 1058.6806,-890.895"/>
<text text-anchor="middle" x="1752.004" y="-719.7296" font-family="Calibri" font-size="8.00" fill="#000000">0.028</text>
</g>
<!-- 9&#45;&gt;3 -->
<g id="edge79" class="edge">
<title>9&#45;&gt;3</title>
<path fill="none" stroke="#0000ff" d="M1286.504,-556.2096C1267.104,-563.2396 1239.404,-573.6296 1215.504,-583.6296 1127.804,-620.2896 1098.904,-630.3296 1038.454,-703.6296 1017.374,-729.1696 996.544,-760.9696 982.954,-782.8396"/>
<polygon fill="#0000ff" stroke="#0000ff" points="979.8489,-781.2075 977.594,-791.5596 985.8124,-784.8732 979.8489,-781.2075"/>
<text text-anchor="middle" x="1082.004" y="-676.2296" font-family="Calibri" font-size="8.00" fill="#000000">0.056</text>
</g>
<!-- 9&#45;&gt;4 -->
<g id="edge80" class="edge">
<title>9&#45;&gt;4</title>
<path fill="none" stroke="#0000ff" d="M1337.404,-545.9996C1387.204,-542.5196 1491.104,-532.8596 1519.504,-511.6296 1589.804,-459.0396 1597.504,-417.9296 1597.504,-330.1296 1597.504,-330.1296 1597.504,-330.1296 1597.504,-199.6296 1597.504,-163.5496 1559.904,-139.0296 1530.904,-125.4496"/>
<polygon fill="#0000ff" stroke="#0000ff" points="1531.966,-122.0927 1521.404,-121.2596 1529.1412,-128.4975 1531.966,-122.0927"/>
<text text-anchor="middle" x="1613.004" y="-328.2296" font-family="Calibri" font-size="8.00" fill="#000000">0.083</text>
</g>
<!-- 9&#45;&gt;5 -->
<g id="edge81" class="edge">
<title>9&#45;&gt;5</title>
<path fill="none" stroke="#0000ff" d="M1306.004,-529.7196C1300.104,-505.7796 1289.404,-462.0396 1280.504,-424.6296 1269.604,-379.3396 1288.004,-356.9296 1256.504,-322.6296 1239.104,-303.6896 1225.504,-313.8096 1201.504,-304.6296 1164.304,-290.4196 1157.304,-280.9396 1119.504,-268.6296 1054.104,-247.3796 1035.714,-249.6296 968.454,-235.6296 918.084,-225.1496 859.714,-213.7296 822.944,-206.6296"/>
<polygon fill="#0000ff" stroke="#0000ff" points="823.1969,-203.1137 812.714,-204.6496 821.8667,-209.9861 823.1969,-203.1137"/>
<text text-anchor="middle" x="1292.004" y="-371.7296" font-family="Calibri" font-size="8.00" fill="#000000">0.111</text>
</g>
<!-- 9&#45;&gt;6 -->
<g id="edge82" class="edge">
<title>9&#45;&gt;6</title>
<path fill="none" stroke="#0000ff" d="M1289.404,-536.1896C1277.404,-529.4496 1262.304,-520.5196 1249.504,-511.6296 1230.204,-498.3196 1225.404,-494.7596 1208.504,-478.6296 1185.204,-456.4896 1178.704,-451.0596 1160.504,-424.6296 1140.804,-396.1596 1143.204,-384.6696 1124.504,-355.6296 1114.304,-339.9496 1112.604,-334.7696 1098.504,-322.6296 1088.904,-314.4196 1077.104,-307.1796 1066.304,-301.3796"/>
<polygon fill="#0000ff" stroke="#0000ff" points="1067.6938,-298.1579 1057.204,-296.6696 1064.4761,-304.3746 1067.6938,-298.1579"/>
<text text-anchor="middle" x="1176.004" y="-415.2296" font-family="Calibri" font-size="8.00" fill="#000000">0.139</text>
</g>
<!-- 9&#45;&gt;7 -->
<g id="edge83" class="edge">
<title>9&#45;&gt;7</title>
<path fill="none" stroke="#0000ff" d="M1325.804,-532.6496C1340.104,-518.7396 1361.804,-497.3996 1380.504,-478.6296 1410.604,-448.2896 1415.704,-438.1996 1447.504,-409.6296 1453.604,-404.0996 1460.504,-398.4396 1467.104,-393.2896"/>
<polygon fill="#0000ff" stroke="#0000ff" points="1469.3369,-395.9873 1475.104,-387.0996 1465.0532,-390.451 1469.3369,-395.9873"/>
<text text-anchor="middle" x="1429.004" y="-458.7296" font-family="Calibri" font-size="8.00" fill="#000000">0.167</text>
</g>
<!-- 9&#45;&gt;8 -->
<g id="edge84" class="edge">
<title>9&#45;&gt;8</title>
<path fill="none" stroke="#0000ff" d="M1283.504,-544.8096C1231.904,-539.1696 1121.104,-525.8096 1085.504,-511.6296 1074.504,-507.2596 1074.504,-500.9496 1063.504,-496.6296 1027.264,-482.4396 918.564,-469.9996 860.684,-464.1596"/>
<polygon fill="#0000ff" stroke="#0000ff" points="860.7905,-460.6531 850.494,-463.1496 860.1,-467.619 860.7905,-460.6531"/>
<text text-anchor="middle" x="1101.004" y="-502.2296" font-family="Calibri" font-size="8.00" fill="#000000">0.139</text>
</g>
<!-- 9&#45;&gt;9 -->
<g id="edge85" class="edge">
<title>9&#45;&gt;9</title>
<path fill="none" stroke="#0000ff" d="M1335.004,-555.3796C1346.004,-556.1196 1355.504,-553.5396 1355.504,-547.6296 1355.504,-543.6596 1351.204,-541.1896 1345.004,-540.2196"/>
<polygon fill="#0000ff" stroke="#0000ff" points="1345.1172,-536.7215 1335.004,-539.8796 1344.8793,-543.7175 1345.1172,-536.7215"/>
<text text-anchor="middle" x="1371.004" y="-545.7296" font-family="Calibri" font-size="8.00" fill="#000000">0.111</text>
</g>
<!-- 9&#45;&gt;10 -->
<g id="edge86" class="edge">
<title>9&#45;&gt;10</title>
<path fill="none" stroke="#0000ff" d="M1337.204,-544.6296C1412.004,-536.2296 1618.204,-512.9796 1621.504,-511.6296 1719.704,-471.1896 1714.004,-414.4596 1802.504,-355.6296 1898.204,-291.9296 2035.504,-358.1196 2035.504,-243.1296 2035.504,-243.1296 2035.504,-243.1296 2035.504,-112.6296 2035.504,-55.8496 1957.504,-35.9956 1909.404,-29.1496"/>
<polygon fill="#0000ff" stroke="#0000ff" points="1909.7733,-25.6682 1899.404,-27.8426 1908.866,-32.6091 1909.7733,-25.6682"/>
<text text-anchor="middle" x="2048.004" y="-284.7296" font-family="Calibri" font-size="8.00" fill="#000000">0.083</text>
</g>
<!-- 9&#45;&gt;11 -->
<g id="edge87" class="edge">
<title>9&#45;&gt;11</title>
<path fill="none" stroke="#0000ff" d="M1306.404,-565.4796C1305.204,-571.2396 1304.104,-577.6796 1303.504,-583.6296 1302.704,-590.8496 1302.304,-598.6696 1302.104,-605.9796"/>
<polygon fill="#0000ff" stroke="#0000ff" points="1298.6024,-606.1357 1302.004,-616.1696 1305.6021,-606.2045 1298.6024,-606.1357"/>
<text text-anchor="middle" x="1319.004" y="-589.2296" font-family="Calibri" font-size="8.00" fill="#000000">0.056</text>
</g>
<!-- 9&#45;&gt;12 -->
<g id="edge88" class="edge">
<title>9&#45;&gt;12</title>
<path fill="none" stroke="#0000ff" d="M1289.804,-559.6496C1271.604,-571.5196 1246.504,-591.5196 1235.504,-616.6296 1223.204,-644.5896 1241.704,-677.0396 1258.404,-698.3796"/>
<polygon fill="#0000ff" stroke="#0000ff" points="1255.8407,-700.7725 1264.904,-706.2596 1261.2407,-696.3182 1255.8407,-700.7725"/>
<text text-anchor="middle" x="1251.004" y="-632.7296" font-family="Calibri" font-size="8.00" fill="#000000">0.028</text>
</g>
<!-- 10&#45;&gt;10 -->
<g id="edge89" class="edge">
<title>10&#45;&gt;10</title>
<path fill="none" stroke="#0000ff" d="M1897.004,-33.3816C1908.004,-34.1196 1917.504,-31.5356 1917.504,-25.6296 1917.504,-21.6616 1913.204,-19.1926 1907.004,-18.2236"/>
<polygon fill="#0000ff" stroke="#0000ff" points="1907.1191,-14.7256 1897.004,-17.8776 1906.877,-21.7214 1907.1191,-14.7256"/>
<text text-anchor="middle" x="1926.504" y="-23.7296" font-family="Calibri" font-size="8.00" fill="#000000">1.0</text>
</g>
<!-- 11&#45;&gt;2 -->
<g id="edge90" class="edge">
<title>11&#45;&gt;2</title>
<path fill="none" stroke="#0000ff" d="M1322.604,-646.7796C1331.704,-653.0296 1342.004,-661.2996 1349.504,-670.6296 1359.504,-683.2396 1361.004,-687.8796 1364.504,-703.6296 1376.104,-757.3096 1378.304,-778.1596 1352.504,-826.6296 1342.104,-846.0696 1335.504,-850.5396 1315.504,-859.6296 1270.404,-880.0096 1127.304,-890.0796 1058.704,-893.8296"/>
<polygon fill="#0000ff" stroke="#0000ff" points="1058.2031,-890.3513 1048.404,-894.3796 1058.5764,-897.3413 1058.2031,-890.3513"/>
<text text-anchor="middle" x="1388.004" y="-763.2296" font-family="Calibri" font-size="8.00" fill="#000000">0.028</text>
</g>
<!-- 11&#45;&gt;3 -->
<g id="edge91" class="edge">
<title>11&#45;&gt;3</title>
<path fill="none" stroke="#0000ff" d="M1282.004,-646.6696C1278.204,-648.7496 1274.304,-650.8196 1270.504,-652.6296 1214.804,-679.1396 1190.504,-666.2796 1141.504,-703.6296 1110.904,-726.8896 1121.004,-750.7596 1089.504,-772.6296 1064.104,-790.2096 1030.064,-799.3196 1004.394,-803.9696"/>
<polygon fill="#0000ff" stroke="#0000ff" points="1003.5842,-800.5561 994.294,-805.6496 1004.7328,-807.4613 1003.5842,-800.5561"/>
<text text-anchor="middle" x="1157.004" y="-719.7296" font-family="Calibri" font-size="8.00" fill="#000000">0.056</text>
</g>
<!-- 11&#45;&gt;4 -->
<g id="edge92" class="edge">
<title>11&#45;&gt;4</title>
<path fill="none" stroke="#0000ff" d="M1328.304,-628.7796C1344.204,-625.2096 1365.004,-620.5896 1383.504,-616.6296 1422.104,-608.3496 1432.804,-610.3796 1470.504,-598.6296 1545.204,-575.3396 1557.804,-553.0896 1632.504,-529.6296 1670.104,-517.7896 1682.204,-524.7996 1719.504,-511.6296 1749.604,-500.9596 1759.104,-499.3996 1783.504,-478.6296 1820.004,-447.4796 1832.504,-437.2396 1847.504,-391.6296 1889.404,-263.6796 1792.704,-195.6096 1666.504,-148.6296 1622.504,-132.2696 1569.204,-122.4696 1534.404,-117.3096"/>
<polygon fill="#0000ff" stroke="#0000ff" points="1534.5971,-113.8019 1524.204,-115.8596 1533.6118,-120.7323 1534.5971,-113.8019"/>
<text text-anchor="middle" x="1871.004" y="-371.7296" font-family="Calibri" font-size="8.00" fill="#000000">0.083</text>
</g>
<!-- 11&#45;&gt;5 -->
<g id="edge93" class="edge">
<title>11&#45;&gt;5</title>
<path fill="none" stroke="#0000ff" d="M1283.104,-621.9396C1279.104,-619.8196 1274.704,-617.8996 1270.504,-616.6296 1152.204,-581.5096 1113.104,-628.5696 993.454,-598.6296 902.574,-575.8896 660.224,-503.3696 609.454,-424.6296 555.804,-341.4196 692.824,-251.4696 756.264,-215.6496"/>
<polygon fill="#0000ff" stroke="#0000ff" points="758.0099,-218.6836 765.054,-210.7696 754.6121,-212.5635 758.0099,-218.6836"/>
<text text-anchor="middle" x="624.954" y="-415.2296" font-family="Calibri" font-size="8.00" fill="#000000">0.111</text>
</g>
<!-- 11&#45;&gt;6 -->
<g id="edge94" class="edge">
<title>11&#45;&gt;6</title>
<path fill="none" stroke="#0000ff" d="M1285.204,-620.6496C1268.504,-606.9096 1242.404,-585.2096 1220.504,-565.6296 1203.104,-550.1296 1201.404,-543.0796 1182.504,-529.6296 1179.904,-527.8596 1086.304,-481.0596 1084.504,-478.6296 1041.004,-422.3096 1069.404,-390.6296 1048.504,-322.6296 1047.504,-319.6496 1046.504,-316.5596 1045.404,-313.5096"/>
<polygon fill="#0000ff" stroke="#0000ff" points="1048.6262,-312.1357 1041.804,-304.0296 1042.0822,-314.6208 1048.6262,-312.1357"/>
<text text-anchor="middle" x="1100.004" y="-458.7296" font-family="Calibri" font-size="8.00" fill="#000000">0.139</text>
</g>
<!-- 11&#45;&gt;7 -->
<g id="edge95" class="edge">
<title>11&#45;&gt;7</title>
<path fill="none" stroke="#0000ff" d="M1325.704,-625.3696C1339.604,-619.1296 1357.104,-609.9696 1370.504,-598.6296 1397.004,-576.0396 1443.104,-487.1696 1447.504,-478.6296 1460.804,-452.8196 1473.804,-422.3296 1482.604,-400.8696"/>
<polygon fill="#0000ff" stroke="#0000ff" points="1485.9283,-401.9888 1486.504,-391.4096 1479.4567,-399.3207 1485.9283,-401.9888"/>
<text text-anchor="middle" x="1453.004" y="-502.2296" font-family="Calibri" font-size="8.00" fill="#000000">0.167</text>
</g>
<!-- 11&#45;&gt;8 -->
<g id="edge96" class="edge">
<title>11&#45;&gt;8</title>
<path fill="none" stroke="#0000ff" d="M1282.704,-622.0596C1278.704,-619.9796 1274.504,-618.0496 1270.504,-616.6296 1221.104,-599.5696 1204.104,-614.7796 1154.504,-598.6296 1130.904,-590.9696 979.534,-505.5796 956.454,-496.6296 924.424,-484.1996 886.464,-474.3896 859.314,-468.1696"/>
<polygon fill="#0000ff" stroke="#0000ff" points="859.9979,-464.7361 849.474,-465.9596 858.464,-471.566 859.9979,-464.7361"/>
<text text-anchor="middle" x="1102.004" y="-545.7296" font-family="Calibri" font-size="8.00" fill="#000000">0.139</text>
</g>
<!-- 11&#45;&gt;9 -->
<g id="edge97" class="edge">
<title>11&#45;&gt;9</title>
<path fill="none" stroke="#0000ff" d="M1319.604,-620.2196C1325.504,-614.2196 1331.404,-606.7596 1334.504,-598.6296 1337.904,-589.6296 1335.104,-580.0096 1330.404,-571.5796"/>
<polygon fill="#0000ff" stroke="#0000ff" points="1333.1972,-569.4553 1324.804,-562.9896 1327.3333,-573.2781 1333.1972,-569.4553"/>
<text text-anchor="middle" x="1351.004" y="-589.2296" font-family="Calibri" font-size="8.00" fill="#000000">0.111</text>
</g>
<!-- 11&#45;&gt;10 -->
<g id="edge98" class="edge">
<title>11&#45;&gt;10</title>
<path fill="none" stroke="#0000ff" d="M1327.904,-628.4896C1343.804,-624.7696 1364.804,-620.0896 1383.504,-616.6296 1436.904,-606.7296 1450.804,-607.7296 1504.504,-598.6296 1717.904,-562.4096 1787.204,-555.7996 1959.504,-424.6296 2039.404,-363.7196 2094.504,-343.6596 2094.504,-243.1296 2094.504,-243.1296 2094.504,-243.1296 2094.504,-112.6296 2094.504,-75.5586 2062.004,-77.4976 2028.504,-61.6296 1990.004,-43.4316 1941.804,-34.1286 1909.304,-29.5876"/>
<polygon fill="#0000ff" stroke="#0000ff" points="1909.6746,-26.1063 1899.304,-28.2746 1908.7632,-33.0467 1909.6746,-26.1063"/>
<text text-anchor="middle" x="2091.004" y="-328.2296" font-family="Calibri" font-size="8.00" fill="#000000">0.083</text>
</g>
<!-- 11&#45;&gt;11 -->
<g id="edge99" class="edge">
<title>11&#45;&gt;11</title>
<path fill="none" stroke="#0000ff" d="M1327.004,-642.3796C1338.004,-643.1196 1347.504,-640.5396 1347.504,-634.6296 1347.504,-630.6596 1343.204,-628.1896 1337.004,-627.2196"/>
<polygon fill="#0000ff" stroke="#0000ff" points="1337.1172,-623.7215 1327.004,-626.8796 1336.8793,-630.7175 1337.1172,-623.7215"/>
<text text-anchor="middle" x="1363.004" y="-632.7296" font-family="Calibri" font-size="8.00" fill="#000000">0.056</text>
</g>
<!-- 11&#45;&gt;12 -->
<g id="edge100" class="edge">
<title>11&#45;&gt;12</title>
<path fill="none" stroke="#0000ff" d="M1310.604,-652.0596C1314.104,-662.1196 1316.604,-674.8696 1312.504,-685.6296 1310.404,-690.8596 1307.204,-695.7996 1303.604,-700.2396"/>
<polygon fill="#0000ff" stroke="#0000ff" points="1300.98,-697.9225 1296.804,-707.6596 1306.1407,-702.6519 1300.98,-697.9225"/>
<text text-anchor="middle" x="1330.004" y="-676.2296" font-family="Calibri" font-size="8.00" fill="#000000">0.028</text>
</g>
<!-- 12&#45;&gt;2 -->
<g id="edge101" class="edge">
<title>12&#45;&gt;2</title>
<path fill="none" stroke="#0000ff" d="M1278.104,-739.8196C1276.504,-750.3896 1273.004,-763.3896 1265.504,-772.6296 1210.704,-839.5396 1110.204,-873.5196 1056.904,-887.5496"/>
<polygon fill="#0000ff" stroke="#0000ff" points="1056.0367,-884.1587 1047.204,-890.0096 1057.7576,-890.9439 1056.0367,-884.1587"/>
<text text-anchor="middle" x="1261.004" y="-806.7296" font-family="Calibri" font-size="8.00" fill="#000000">0.028</text>
</g>
<!-- 12&#45;&gt;3 -->
<g id="edge102" class="edge">
<title>12&#45;&gt;3</title>
<path fill="none" stroke="#0000ff" d="M1261.904,-735.4896C1243.704,-749.7796 1217.104,-770.2896 1211.504,-772.6296 1174.804,-787.8996 1063.304,-799.9296 1004.564,-805.4096"/>
<polygon fill="#0000ff" stroke="#0000ff" points="1004.2152,-801.9268 994.574,-806.3196 1004.8503,-808.8979 1004.2152,-801.9268"/>
<text text-anchor="middle" x="1247.004" y="-763.2296" font-family="Calibri" font-size="8.00" fill="#000000">0.056</text>
</g>
<!-- 12&#45;&gt;4 -->
<g id="edge103" class="edge">
<title>12&#45;&gt;4</title>
<path fill="none" stroke="#0000ff" d="M1306.304,-718.8996C1375.704,-711.7696 1557.804,-692.6396 1584.504,-685.6296 1646.204,-669.3596 1801.304,-611.6996 1845.504,-565.6296 1857.804,-552.7196 1917.804,-439.4096 1921.504,-424.6296 1949.204,-312.8496 1924.504,-249.4496 1831.504,-181.6296 1784.204,-147.1996 1611.104,-124.8296 1534.404,-116.3996"/>
<polygon fill="#0000ff" stroke="#0000ff" points="1534.6218,-112.9029 1524.304,-115.3096 1533.8707,-119.8625 1534.6218,-112.9029"/>
<text text-anchor="middle" x="1940.004" y="-415.2296" font-family="Calibri" font-size="8.00" fill="#000000">0.083</text>
</g>
<!-- 12&#45;&gt;5 -->
<g id="edge104" class="edge">
<title>12&#45;&gt;5</title>
<path fill="none" stroke="#0000ff" d="M1260.104,-709.0296C1256.004,-706.8996 1251.704,-704.9596 1247.504,-703.6296 1163.504,-677.4996 1137.904,-694.5796 1050.504,-685.6296 920.974,-672.3696 876.294,-709.9996 759.454,-652.6296 662.684,-605.1096 630.984,-578.5296 590.454,-478.6296 554.604,-390.2696 568.464,-337.4596 634.454,-268.6296 666.174,-235.5496 716.704,-217.0096 750.704,-207.6696"/>
<polygon fill="#0000ff" stroke="#0000ff" points="751.9035,-210.9738 760.694,-205.0596 750.134,-204.2011 751.9035,-210.9738"/>
<text text-anchor="middle" x="605.954" y="-458.7296" font-family="Calibri" font-size="8.00" fill="#000000">0.111</text>
</g>
<!-- 12&#45;&gt;6 -->
<g id="edge105" class="edge">
<title>12&#45;&gt;6</title>
<path fill="none" stroke="#0000ff" d="M1259.704,-708.9596C1255.804,-706.8896 1251.604,-704.9896 1247.504,-703.6296 1185.804,-683.3296 1162.304,-710.8296 1102.504,-685.6296 1029.994,-655.1096 1006.834,-636.3496 972.454,-565.6296 941.724,-502.4196 910.204,-469.8496 946.454,-409.6296 955.274,-394.9796 968.434,-403.7896 980.454,-391.6296 992.194,-379.7496 1010.874,-340.4396 1022.904,-313.4396"/>
<polygon fill="#0000ff" stroke="#0000ff" points="1026.1809,-314.6824 1027.004,-304.1196 1019.7735,-311.8637 1026.1809,-314.6824"/>
<text text-anchor="middle" x="958.954" y="-502.2296" font-family="Calibri" font-size="8.00" fill="#000000">0.139</text>
</g>
<!-- 12&#45;&gt;7 -->
<g id="edge106" class="edge">
<title>12&#45;&gt;7</title>
<path fill="none" stroke="#0000ff" d="M1304.604,-714.8596C1325.704,-708.6696 1356.404,-698.5296 1381.504,-685.6296 1469.204,-640.4296 1491.604,-606.3096 1519.504,-511.6296 1530.604,-473.7196 1517.204,-428.4896 1505.904,-400.4096"/>
<polygon fill="#0000ff" stroke="#0000ff" points="1509.0044,-398.7531 1501.904,-390.8896 1502.551,-401.4647 1509.0044,-398.7531"/>
<text text-anchor="middle" x="1529.004" y="-545.7296" font-family="Calibri" font-size="8.00" fill="#000000">0.167</text>
</g>
<!-- 12&#45;&gt;8 -->
<g id="edge107" class="edge">
<title>12&#45;&gt;8</title>
<path fill="none" stroke="#0000ff" d="M1260.104,-708.9396C1256.104,-706.8196 1251.704,-704.8996 1247.504,-703.6296 1187.204,-685.7896 1019.454,-717.6896 965.454,-685.6296 926.304,-662.3796 863.234,-541.4796 836.304,-487.1396"/>
<polygon fill="#0000ff" stroke="#0000ff" points="839.4173,-485.5391 831.864,-478.1096 833.1356,-488.6279 839.4173,-485.5391"/>
<text text-anchor="middle" x="910.954" y="-589.2296" font-family="Calibri" font-size="8.00" fill="#000000">0.139</text>
</g>
<!-- 12&#45;&gt;9 -->
<g id="edge108" class="edge">
<title>12&#45;&gt;9</title>
<path fill="none" stroke="#0000ff" d="M1304.404,-714.4996C1331.304,-705.2696 1372.104,-686.2396 1387.504,-652.6296 1400.604,-623.8896 1392.104,-606.6696 1370.504,-583.6296 1362.504,-575.1496 1352.104,-567.9796 1342.204,-562.3196"/>
<polygon fill="#0000ff" stroke="#0000ff" points="1343.7727,-559.1895 1333.304,-557.5596 1340.4714,-565.3621 1343.7727,-559.1895"/>
<text text-anchor="middle" x="1409.004" y="-632.7296" font-family="Calibri" font-size="8.00" fill="#000000">0.111</text>
</g>
<!-- 12&#45;&gt;10 -->
<g id="edge109" class="edge">
<title>12&#45;&gt;10</title>
<path fill="none" stroke="#0000ff" d="M1306.604,-719.3596C1364.804,-714.3896 1505.304,-701.6796 1622.504,-685.6296 1709.504,-673.6996 1735.304,-683.8096 1817.504,-652.6296 1899.804,-621.3696 2136.504,-505.2396 2136.504,-417.1296 2136.504,-417.1296 2136.504,-417.1296 2136.504,-112.6296 2136.504,-65.3686 1981.904,-39.4986 1909.304,-29.9526"/>
<polygon fill="#0000ff" stroke="#0000ff" points="1909.5671,-26.4578 1899.204,-28.6616 1908.6795,-33.4013 1909.5671,-26.4578"/>
<text text-anchor="middle" x="2152.004" y="-371.7296" font-family="Calibri" font-size="8.00" fill="#000000">0.083</text>
</g>
<!-- 12&#45;&gt;11 -->
<g id="edge110" class="edge">
<title>12&#45;&gt;11</title>
<path fill="none" stroke="#0000ff" d="M1275.804,-703.7696C1274.504,-693.8096 1274.104,-681.2796 1277.504,-670.6296 1278.704,-666.5496 1280.704,-662.5196 1282.904,-658.7196"/>
<polygon fill="#0000ff" stroke="#0000ff" points="1285.8374,-660.6289 1288.404,-650.3496 1279.9874,-656.7847 1285.8374,-660.6289"/>
<text text-anchor="middle" x="1293.004" y="-676.2296" font-family="Calibri" font-size="8.00" fill="#000000">0.056</text>
</g>
<!-- 12&#45;&gt;12 -->
<g id="edge111" class="edge">
<title>12&#45;&gt;12</title>
<path fill="none" stroke="#0000ff" d="M1304.004,-729.3796C1315.004,-730.1196 1324.504,-727.5396 1324.504,-721.6296 1324.504,-717.6596 1320.204,-715.1896 1314.004,-714.2196"/>
<polygon fill="#0000ff" stroke="#0000ff" points="1314.1172,-710.7215 1304.004,-713.8796 1313.8793,-717.7175 1314.1172,-710.7215"/>
<text text-anchor="middle" x="1340.004" y="-719.7296" font-family="Calibri" font-size="8.00" fill="#000000">0.028</text>
</g>
</g>
</svg>
