<?xml version="1.0" encoding="UTF-8" standalone="no"?>
<!DOCTYPE svg PUBLIC "-//W3C//DTD SVG 1.1//EN"
 "http://www.w3.org/Graphics/SVG/1.1/DTD/svg11.dtd">
<!-- Generated by graphviz version 2.40.1 (20161225.0304)
 -->
<!-- Pages: 1 -->
<svg width="141pt" height="392pt"
 viewBox="0.00 0.00 141.00 392.00" xmlns="http://www.w3.org/2000/svg" xmlns:xlink="http://www.w3.org/1999/xlink">
<g id="graph0" class="graph" transform="scale(1 1) rotate(0) translate(4 388)">
<polygon fill="#ffffff" stroke="transparent" points="-4,4 -4,-388 137,-388 137,4 -4,4"/>
<!-- 0 -->
<g id="node1" class="node">
<title>0</title>
<ellipse fill="none" stroke="#ff0000" cx="73" cy="-366" rx="27" ry="18"/>
<text text-anchor="middle" x="73" y="-363.5" font-family="Calibri" font-size="10.00" fill="#000000">0</text>
</g>
<!-- 0&#45;&gt;0 -->
<g id="edge1" class="edge">
<title>0&#45;&gt;0</title>
<path fill="none" stroke="#0000ff" d="M97.532,-373.75C108.51,-374.49 118,-371.91 118,-366 118,-362.03 113.72,-359.56 107.57,-358.59"/>
<polygon fill="#0000ff" stroke="#0000ff" points="107.6448,-355.0906 97.532,-358.25 107.4078,-362.0866 107.6448,-355.0906"/>
<text text-anchor="middle" x="127" y="-364.1" font-family="Calibri" font-size="8.00" fill="#000000">0.5</text>
</g>
<!-- 1 -->
<g id="node2" class="node">
<title>1</title>
<ellipse fill="none" stroke="#ff0000" cx="73" cy="-279" rx="27" ry="18"/>
<text text-anchor="middle" x="73" y="-276.5" font-family="Calibri" font-size="10.00" fill="#000000">1</text>
</g>
<!-- 0&#45;&gt;1 -->
<g id="edge2" class="edge">
<title>0&#45;&gt;1</title>
<path fill="none" stroke="#0000ff" d="M61.319,-349.3C55.842,-339.49 51.092,-326.74 54,-315 54.859,-311.53 56.119,-308.03 57.588,-304.65"/>
<polygon fill="#0000ff" stroke="#0000ff" points="60.8045,-306.0424 62.124,-295.53 54.5369,-302.925 60.8045,-306.0424"/>
<text text-anchor="middle" x="63" y="-320.6" font-family="Calibri" font-size="8.00" fill="#000000">0.5</text>
</g>
<!-- 1&#45;&gt;0 -->
<g id="edge3" class="edge">
<title>1&#45;&gt;0</title>
<path fill="none" stroke="#0000ff" d="M73,-297C73,-308.78 73,-324.41 73,-337.82"/>
<polygon fill="#0000ff" stroke="#0000ff" points="69.5001,-337.97 73,-347.97 76.5001,-337.97 69.5001,-337.97"/>
<text text-anchor="middle" x="88.5" y="-320.6" font-family="Calibri" font-size="8.00" fill="#000000">0.333</text>
</g>
<!-- 2 -->
<g id="node3" class="node">
<title>2</title>
<ellipse fill="none" stroke="#ff0000" cx="27" cy="-192" rx="27" ry="18"/>
<text text-anchor="middle" x="27" y="-189.5" font-family="Calibri" font-size="10.00" fill="#000000">2</text>
</g>
<!-- 1&#45;&gt;2 -->
<g id="edge4" class="edge">
<title>1&#45;&gt;2</title>
<path fill="none" stroke="#0000ff" d="M63.912,-261.81C57.36,-249.42 48.394,-232.46 40.94,-218.37"/>
<polygon fill="#0000ff" stroke="#0000ff" points="43.835,-216.357 36.069,-209.15 37.6456,-219.6269 43.835,-216.357"/>
<text text-anchor="middle" x="68.5" y="-233.6" font-family="Calibri" font-size="8.00" fill="#000000">0.667</text>
</g>
<!-- 2&#45;&gt;2 -->
<g id="edge5" class="edge">
<title>2&#45;&gt;2</title>
<path fill="none" stroke="#0000ff" d="M51.532,-199.75C62.508,-200.49 72,-197.91 72,-192 72,-188.03 67.715,-185.56 61.574,-184.59"/>
<polygon fill="#0000ff" stroke="#0000ff" points="61.6447,-181.0905 51.532,-184.25 61.4078,-188.0865 61.6447,-181.0905"/>
<text text-anchor="middle" x="81" y="-190.1" font-family="Calibri" font-size="8.00" fill="#000000">0.5</text>
</g>
<!-- 3 -->
<g id="node4" class="node">
<title>3</title>
<ellipse fill="none" stroke="#ff0000" cx="27" cy="-105" rx="27" ry="18"/>
<text text-anchor="middle" x="27" y="-102.5" font-family="Calibri" font-size="10.00" fill="#000000">3</text>
</g>
<!-- 2&#45;&gt;3 -->
<g id="edge6" class="edge">
<title>2&#45;&gt;3</title>
<path fill="none" stroke="#0000ff" d="M27,-173.97C27,-162.19 27,-146.56 27,-133.16"/>
<polygon fill="#0000ff" stroke="#0000ff" points="30.5001,-133 27,-123 23.5001,-133 30.5001,-133"/>
<text text-anchor="middle" x="36" y="-146.6" font-family="Calibri" font-size="8.00" fill="#000000">0.5</text>
</g>
<!-- 3&#45;&gt;3 -->
<g id="edge7" class="edge">
<title>3&#45;&gt;3</title>
<path fill="none" stroke="#0000ff" d="M51.532,-112.75C62.508,-113.49 72,-110.91 72,-105 72,-101.03 67.715,-98.563 61.574,-97.594"/>
<polygon fill="#0000ff" stroke="#0000ff" points="61.6466,-94.0945 51.532,-97.248 61.4055,-101.0904 61.6466,-94.0945"/>
<text text-anchor="middle" x="81" y="-103.1" font-family="Calibri" font-size="8.00" fill="#000000">0.5</text>
</g>
<!-- 4 -->
<g id="node5" class="node">
<title>4</title>
<ellipse fill="none" stroke="#ff0000" cx="72" cy="-18" rx="27" ry="18"/>
<text text-anchor="middle" x="72" y="-15.5" font-family="Calibri" font-size="10.00" fill="#000000">4</text>
</g>
<!-- 3&#45;&gt;4 -->
<g id="edge8" class="edge">
<title>3&#45;&gt;4</title>
<path fill="none" stroke="#0000ff" d="M35.891,-87.812C42.3,-75.419 51.071,-58.463 58.363,-44.365"/>
<polygon fill="#0000ff" stroke="#0000ff" points="61.6423,-45.6432 63.128,-35.153 55.4248,-42.4271 61.6423,-45.6432"/>
<text text-anchor="middle" x="62" y="-59.6" font-family="Calibri" font-size="8.00" fill="#000000">0.5</text>
</g>
<!-- 4&#45;&gt;1 -->
<g id="edge9" class="edge">
<title>4&#45;&gt;1</title>
<path fill="none" stroke="#0000ff" d="M80.742,-35.048C87.226,-48.697 95.518,-68.545 99,-87 111.89,-155.3 112.37,-177.91 88,-243 86.896,-245.95 85.698,-249.01 84.477,-252.06"/>
<polygon fill="#0000ff" stroke="#0000ff" points="81.1529,-250.9405 80.583,-261.52 87.626,-253.605 81.1529,-250.9405"/>
<text text-anchor="middle" x="116" y="-146.6" font-family="Calibri" font-size="8.00" fill="#000000">1.0</text>
</g>
</g>
</svg>
