<?xml version="1.0" encoding="UTF-8" standalone="no"?>
<!DOCTYPE svg PUBLIC "-//W3C//DTD SVG 1.1//EN"
 "http://www.w3.org/Graphics/SVG/1.1/DTD/svg11.dtd">
<!-- Generated by graphviz version 2.40.1 (20161225.0304)
 -->
<!-- Pages: 1 -->
<svg width="196pt" height="392pt"
 viewBox="0.00 0.00 196.08 392.00" xmlns="http://www.w3.org/2000/svg" xmlns:xlink="http://www.w3.org/1999/xlink">
<g id="graph0" class="graph" transform="scale(1 1) rotate(0) translate(4 388)">
<polygon fill="#ffffff" stroke="transparent" points="-4,4 -4,-388 192.0828,-388 192.0828,4 -4,4"/>
<!-- 0 -->
<g id="node1" class="node">
<title>0</title>
<ellipse fill="none" stroke="#ff0000" cx="86.5858" cy="-366" rx="27" ry="18"/>
<text text-anchor="middle" x="86.5858" y="-363.5" font-family="Calibri" font-size="10.00" fill="#000000">0</text>
</g>
<!-- 1 -->
<g id="node2" class="node">
<title>1</title>
<ellipse fill="none" stroke="#ff0000" cx="34.5858" cy="-279" rx="27" ry="18"/>
<text text-anchor="middle" x="34.5858" y="-276.5" font-family="Calibri" font-size="10.00" fill="#000000">1</text>
</g>
<!-- 0&#45;&gt;1 -->
<g id="edge1" class="edge">
<title>0&#45;&gt;1</title>
<path fill="none" stroke="#0000ff" d="M61.2888,-359.49C46.3298,-354.2 28.5978,-345.07 19.5858,-330 14.9748,-322.29 16.0398,-313.07 19.1318,-304.6"/>
<polygon fill="#0000ff" stroke="#0000ff" points="22.3259,-306.031 23.2888,-295.48 15.9564,-303.1277 22.3259,-306.031"/>
<text text-anchor="middle" x="32.0858" y="-320.6" font-family="Calibri" font-size="8.00" fill="#000000">0.07</text>
</g>
<!-- 4 -->
<g id="node3" class="node">
<title>4</title>
<ellipse fill="none" stroke="#ff0000" cx="86.5858" cy="-18" rx="27" ry="18"/>
<text text-anchor="middle" x="86.5858" y="-15.5" font-family="Calibri" font-size="10.00" fill="#000000">4</text>
</g>
<!-- 0&#45;&gt;4 -->
<g id="edge2" class="edge">
<title>0&#45;&gt;4</title>
<path fill="none" stroke="#0000ff" d="M93.1348,-348.28C98.9668,-330.89 106.5828,-303.49 106.5828,-279 106.5828,-279 106.5828,-279 106.5828,-105 106.5828,-84.722 101.3608,-62.445 96.2528,-45.51"/>
<polygon fill="#0000ff" stroke="#0000ff" points="99.505,-44.1879 93.1348,-35.722 92.8352,-46.3126 99.505,-44.1879"/>
<text text-anchor="middle" x="119.0828" y="-190.1" font-family="Calibri" font-size="8.00" fill="#000000">0.93</text>
</g>
<!-- 1&#45;&gt;0 -->
<g id="edge3" class="edge">
<title>1&#45;&gt;0</title>
<path fill="none" stroke="#0000ff" d="M44.5808,-295.72C52.1268,-308.35 62.6148,-325.9 71.2238,-340.3"/>
<polygon fill="#0000ff" stroke="#0000ff" points="68.4259,-342.441 76.5598,-349.23 74.4348,-338.8504 68.4259,-342.441"/>
<text text-anchor="middle" x="76.0858" y="-320.6" font-family="Calibri" font-size="8.00" fill="#000000">0.93</text>
</g>
<!-- 2 -->
<g id="node4" class="node">
<title>2</title>
<ellipse fill="none" stroke="#ff0000" cx="31.5858" cy="-192" rx="27" ry="18"/>
<text text-anchor="middle" x="31.5858" y="-189.5" font-family="Calibri" font-size="10.00" fill="#000000">2</text>
</g>
<!-- 1&#45;&gt;2 -->
<g id="edge4" class="edge">
<title>1&#45;&gt;2</title>
<path fill="none" stroke="#0000ff" d="M17.9348,-264.5C12.2468,-258.49 6.5708,-251.04 3.5856,-243 0,-233.34 3.7168,-223.28 9.486,-214.68"/>
<polygon fill="#0000ff" stroke="#0000ff" points="12.3759,-216.665 15.7448,-206.62 6.8471,-212.3717 12.3759,-216.665"/>
<text text-anchor="middle" x="16.0858" y="-233.6" font-family="Calibri" font-size="8.00" fill="#000000">0.07</text>
</g>
<!-- 4&#45;&gt;0 -->
<g id="edge5" class="edge">
<title>4&#45;&gt;0</title>
<path fill="none" stroke="#0000ff" d="M108.2928,-29.23C132.2828,-43.38 167.5828,-70.123 167.5828,-105 167.5828,-279 167.5828,-279 167.5828,-279 167.5828,-309.93 139.8328,-334.46 116.8128,-349.48"/>
<polygon fill="#0000ff" stroke="#0000ff" points="114.9422,-346.5216 108.2928,-354.77 118.6347,-352.4686 114.9422,-346.5216"/>
<text text-anchor="middle" x="180.0828" y="-190.1" font-family="Calibri" font-size="8.00" fill="#000000">0.07</text>
</g>
<!-- 3 -->
<g id="node5" class="node">
<title>3</title>
<ellipse fill="none" stroke="#ff0000" cx="34.5858" cy="-105" rx="27" ry="18"/>
<text text-anchor="middle" x="34.5858" y="-102.5" font-family="Calibri" font-size="10.00" fill="#000000">3</text>
</g>
<!-- 4&#45;&gt;3 -->
<g id="edge6" class="edge">
<title>4&#45;&gt;3</title>
<path fill="none" stroke="#0000ff" d="M76.5898,-34.723C69.0448,-47.347 58.5558,-64.896 49.9478,-79.298"/>
<polygon fill="#0000ff" stroke="#0000ff" points="46.7378,-77.8466 44.6118,-88.226 52.7464,-81.4378 46.7378,-77.8466"/>
<text text-anchor="middle" x="76.0858" y="-59.6" font-family="Calibri" font-size="8.00" fill="#000000">0.93</text>
</g>
<!-- 2&#45;&gt;1 -->
<g id="edge7" class="edge">
<title>2&#45;&gt;1</title>
<path fill="none" stroke="#0000ff" d="M32.2068,-210C32.6128,-221.78 33.1518,-237.41 33.6138,-250.82"/>
<polygon fill="#0000ff" stroke="#0000ff" points="30.1212,-251.0966 33.9638,-260.97 37.117,-250.8553 30.1212,-251.0966"/>
<text text-anchor="middle" x="46.0858" y="-233.6" font-family="Calibri" font-size="8.00" fill="#000000">0.93</text>
</g>
<!-- 2&#45;&gt;3 -->
<g id="edge8" class="edge">
<title>2&#45;&gt;3</title>
<path fill="none" stroke="#0000ff" d="M17.8478,-176.28C10.8792,-166.38 4.6409,-153.2 8.5856,-141 9.9465,-136.79 12.0038,-132.66 14.3758,-128.78"/>
<polygon fill="#0000ff" stroke="#0000ff" points="17.4489,-130.4924 20.3058,-120.29 11.7102,-126.484 17.4489,-130.4924"/>
<text text-anchor="middle" x="21.0858" y="-146.6" font-family="Calibri" font-size="8.00" fill="#000000">0.07</text>
</g>
<!-- 3&#45;&gt;4 -->
<g id="edge9" class="edge">
<title>3&#45;&gt;4</title>
<path fill="none" stroke="#0000ff" d="M27.0348,-87.461C23.7928,-77.125 21.8988,-64.132 27.5858,-54 33.2958,-43.826 43.1808,-36.187 53.2438,-30.625"/>
<polygon fill="#0000ff" stroke="#0000ff" points="55.0083,-33.6571 62.4218,-26.088 51.9063,-27.3819 55.0083,-33.6571"/>
<text text-anchor="middle" x="40.0858" y="-59.6" font-family="Calibri" font-size="8.00" fill="#000000">0.07</text>
</g>
<!-- 3&#45;&gt;2 -->
<g id="edge10" class="edge">
<title>3&#45;&gt;2</title>
<path fill="none" stroke="#0000ff" d="M34.3838,-123.42C34.2378,-133.11 33.9908,-145.2 33.5858,-156 33.4948,-158.43 33.3848,-160.95 33.2648,-163.47"/>
<polygon fill="#0000ff" stroke="#0000ff" points="29.7574,-163.5207 32.7298,-173.69 36.7479,-163.8867 29.7574,-163.5207"/>
<text text-anchor="middle" x="47.0858" y="-146.6" font-family="Calibri" font-size="8.00" fill="#000000">0.93</text>
</g>
</g>
</svg>
